<svg xmlns="http://www.w3.org/2000/svg" xmlns:xlink="http://www.w3.org/1999/xlink" xmlns:s="https://github.com/nturley/netlistsvg" width="747" height="356.5">
  <style>svg {
    stroke:#000;
    fill:none;
  }
  text {
    fill:#000;
    stroke:none;
    font-size:10px;
    font-weight: bold;
    font-family: "Courier New", monospace;
  }
  .nodelabel {
    text-anchor: middle;
  }
  .inputPortLabel {
    text-anchor: end;
  }
  .splitjoinBody {
    fill:#000;
  }</style>
  <g s:type="add" transform="translate(550.3333333333334,221.5)" s:width="25" s:height="25" id="cell_$add$debouncer.v:34$7">
    <s:alias val="$add"/>
    <circle r="12.5" cx="12.5" cy="12.5" class="cell_$add$debouncer.v:34$7"/>
    <line x1="7.5" x2="17.5" y1="12.5" y2="12.5" class="cell_$add$debouncer.v:34$7"/>
    <line x1="12.5" x2="12.5" y1="7.5" y2="17.5" class="cell_$add$debouncer.v:34$7"/>
    <g s:x="3" s:y="5" s:pid="A"/>
    <g s:x="3" s:y="20" s:pid="B"/>
    <g s:x="25" s:y="12.5" s:pid="Y"/>
  </g>
  <g s:type="and" transform="translate(612,176.5)" s:width="30" s:height="25" id="cell_$and$debouncer.v:38$12">
    <s:alias val="$and"/>
    <s:alias val="$logic_and"/>
    <s:alias val="$_AND_"/>
    <path d="M0,0 L0,25 L15,25 A15 12.5 0 0 0 15,0 Z" class="cell_$and$debouncer.v:38$12"/>
    <g s:x="0" s:y="5" s:pid="A"/>
    <g s:x="0" s:y="20" s:pid="B"/>
    <g s:x="30" s:y="12.5" s:pid="Y"/>
  </g>
  <g s:type="and" transform="translate(547,104)" s:width="30" s:height="25" id="cell_$and$debouncer.v:39$14">
    <s:alias val="$and"/>
    <s:alias val="$logic_and"/>
    <s:alias val="$_AND_"/>
    <path d="M0,0 L0,25 L15,25 A15 12.5 0 0 0 15,0 Z" class="cell_$and$debouncer.v:39$14"/>
    <g s:x="0" s:y="5" s:pid="A"/>
    <g s:x="0" s:y="20" s:pid="B"/>
    <g s:x="30" s:y="12.5" s:pid="Y"/>
  </g>
  <g s:type="and" transform="translate(612,111.5)" s:width="30" s:height="25" id="cell_$and$debouncer.v:39$15">
    <s:alias val="$and"/>
    <s:alias val="$logic_and"/>
    <s:alias val="$_AND_"/>
    <path d="M0,0 L0,25 L15,25 A15 12.5 0 0 0 15,0 Z" class="cell_$and$debouncer.v:39$15"/>
    <g s:x="0" s:y="5" s:pid="A"/>
    <g s:x="0" s:y="20" s:pid="B"/>
    <g s:x="30" s:y="12.5" s:pid="Y"/>
  </g>
  <g s:type="eq" transform="translate(422,161.5)" s:width="25" s:height="25" id="cell_$eq$debouncer.v:26$4">
    <s:alias val="$eq"/>
    <circle r="12.5" cx="12.5" cy="12.5" class="cell_$eq$debouncer.v:26$4"/>
    <line x1="7.5" x2="17.5" y1="10" y2="10" class="cell_$eq$debouncer.v:26$4"/>
    <line x1="7.5" x2="17.5" y1="15" y2="15" class="cell_$eq$debouncer.v:26$4"/>
    <g s:x="3" s:y="5" s:pid="A"/>
    <g s:x="3" s:y="20" s:pid="B"/>
    <g s:x="25" s:y="12.5" s:pid="Y"/>
  </g>
  <g s:type="not" transform="translate(77,171.5)" s:width="30" s:height="20" id="cell_$not$debouncer.v:17$2">
    <s:alias val="$_NOT_"/>
    <s:alias val="$not"/>
    <path d="M0,0 L0,20 L20,10 Z" class="cell_$not$debouncer.v:17$2"/>
    <circle cx="23" cy="10" r="3" class="cell_$not$debouncer.v:17$2"/>
    <g s:x="0" s:y="10" s:pid="A"/>
    <g s:x="25" s:y="10" s:pid="Y"/>
  </g>
  <g s:type="not" transform="translate(214,43)" s:width="30" s:height="20" id="cell_$not$debouncer.v:35$8">
    <s:alias val="$_NOT_"/>
    <s:alias val="$not"/>
    <path d="M0,0 L0,20 L20,10 Z" class="cell_$not$debouncer.v:35$8"/>
    <circle cx="23" cy="10" r="3" class="cell_$not$debouncer.v:35$8"/>
    <g s:x="0" s:y="10" s:pid="A"/>
    <g s:x="25" s:y="10" s:pid="Y"/>
  </g>
  <g s:type="not" transform="translate(482,164)" s:width="30" s:height="20" id="cell_$not$debouncer.v:38$9">
    <s:alias val="$_NOT_"/>
    <s:alias val="$not"/>
    <path d="M0,0 L0,20 L20,10 Z" class="cell_$not$debouncer.v:38$9"/>
    <circle cx="23" cy="10" r="3" class="cell_$not$debouncer.v:38$9"/>
    <g s:x="0" s:y="10" s:pid="A"/>
    <g s:x="25" s:y="10" s:pid="Y"/>
  </g>
  <g s:type="dff" transform="translate(547,43)" s:width="30" s:height="40" id="cell_$procdff$24">
    <s:alias val="$dff"/>
    <s:alias val="$_DFF_"/>
    <rect width="30" height="40" x="0" y="0" class="cell_$procdff$24"/>
    <path d="M0,35 L5,30 L0,25" class="cell_$procdff$24"/>
    <g s:x="30" s:y="10" s:pid="Q"/>
    <g s:x="0" s:y="30" s:pid="CLK"/>
    <g s:x="0" s:y="10" s:pid="D"/>
  </g>
  <g s:type="dff" transform="translate(677,234)" s:width="30" s:height="40" id="cell_$procdff$25">
    <s:alias val="$dff"/>
    <s:alias val="$_DFF_"/>
    <rect width="30" height="40" x="0" y="0" class="cell_$procdff$25"/>
    <path d="M0,35 L5,30 L0,25" class="cell_$procdff$25"/>
    <g s:x="30" s:y="10" s:pid="Q"/>
    <g s:x="0" s:y="30" s:pid="CLK"/>
    <g s:x="0" s:y="10" s:pid="D"/>
  </g>
  <g s:type="dff" transform="translate(257.66666666666663,171.5)" s:width="30" s:height="40" id="cell_$procdff$26">
    <s:alias val="$dff"/>
    <s:alias val="$_DFF_"/>
    <rect width="30" height="40" x="0" y="0" class="cell_$procdff$26"/>
    <path d="M0,35 L5,30 L0,25" class="cell_$procdff$26"/>
    <g s:x="30" s:y="10" s:pid="Q"/>
    <g s:x="0" s:y="30" s:pid="CLK"/>
    <g s:x="0" s:y="10" s:pid="D"/>
  </g>
  <g s:type="dff" transform="translate(142,171.5)" s:width="30" s:height="40" id="cell_$procdff$27">
    <s:alias val="$dff"/>
    <s:alias val="$_DFF_"/>
    <rect width="30" height="40" x="0" y="0" class="cell_$procdff$27"/>
    <path d="M0,35 L5,30 L0,25" class="cell_$procdff$27"/>
    <g s:x="30" s:y="10" s:pid="Q"/>
    <g s:x="0" s:y="30" s:pid="CLK"/>
    <g s:x="0" s:y="10" s:pid="D"/>
  </g>
  <g s:type="mux" transform="translate(615.3333333333334,224)" s:width="20" s:height="40" id="cell_$procmux$17">
    <s:alias val="$pmux"/>
    <s:alias val="$mux"/>
    <s:alias val="$_MUX_"/>
    <path d="M0,0 L20,10 L20,30 L0,40 Z" class="cell_$procmux$17"/>
    <g s:x="0" s:y="10" s:pid="A"/>
    <g s:x="0" s:y="30" s:pid="B"/>
    <g s:x="10" s:y="35" s:pid="S"/>
    <g s:x="20" s:y="20" s:pid="Y"/>
  </g>
  <g s:type="mux" transform="translate(425.3333333333333,23)" s:width="20" s:height="40" id="cell_$procmux$19">
    <s:alias val="$pmux"/>
    <s:alias val="$mux"/>
    <s:alias val="$_MUX_"/>
    <path d="M0,0 L20,10 L20,30 L0,40 Z" class="cell_$procmux$19"/>
    <g s:x="0" s:y="10" s:pid="A"/>
    <g s:x="0" s:y="30" s:pid="B"/>
    <g s:x="10" s:y="35" s:pid="S"/>
    <g s:x="20" s:y="20" s:pid="Y"/>
  </g>
  <g s:type="mux" transform="translate(488.6666666666667,33)" s:width="20" s:height="40" id="cell_$procmux$22">
    <s:alias val="$pmux"/>
    <s:alias val="$mux"/>
    <s:alias val="$_MUX_"/>
    <path d="M0,0 L20,10 L20,30 L0,40 Z" class="cell_$procmux$22"/>
    <g s:x="0" s:y="10" s:pid="A"/>
    <g s:x="0" s:y="30" s:pid="B"/>
    <g s:x="10" s:y="35" s:pid="S"/>
    <g s:x="20" s:y="20" s:pid="Y"/>
  </g>
  <g s:type="generic" transform="translate(214,113.5)" s:width="30" s:height="40" id="cell_$reduce_and$debouncer.v:27$5">
    <text x="15" y="-4" class="nodelabel cell_$reduce_and$debouncer.v:27$5" s:attribute="ref">$reduce_and</text>
    <rect width="30" height="20" s:generic="body" class="cell_$reduce_and$debouncer.v:27$5"/>
    <g transform="translate(0,10)" s:x="0" s:y="10" s:pid="in0" id="port_$reduce_and$debouncer.v:27$5~A">
      <text x="-3" y="-4" class="inputPortLabel cell_$reduce_and$debouncer.v:27$5">A</text>
    </g>
    <g transform="translate(30,10)" s:x="30" s:y="10" s:pid="out0" id="port_$reduce_and$debouncer.v:27$5~Y">
      <text x="5" y="-4" style="fill:#000; stroke:none" class="cell_$reduce_and$debouncer.v:27$5">Y</text>
    </g>
  </g>
  <g s:type="inputExt" transform="translate(77,322.5)" s:width="30" s:height="20" id="cell_clk">
    <text x="15" y="-4" class="nodelabel cell_clk" s:attribute="ref">clk</text>
    <s:alias val="$_inputExt_"/>
    <path d="M0,0 L0,20 L15,20 L30,10 L15,0 Z" class="cell_clk"/>
    <g s:x="28" s:y="10" s:pid="Y"/>
  </g>
  <g s:type="inputExt" transform="translate(12,171.5)" s:width="30" s:height="20" id="cell_PB">
    <text x="15" y="-4" class="nodelabel cell_PB" s:attribute="ref">PB</text>
    <s:alias val="$_inputExt_"/>
    <path d="M0,0 L0,20 L15,20 L30,10 L15,0 Z" class="cell_PB"/>
    <g s:x="28" s:y="10" s:pid="Y"/>
  </g>
  <g s:type="outputExt" transform="translate(677,43)" s:width="30" s:height="20" id="cell_PB_state">
    <text x="15" y="-4" class="nodelabel cell_PB_state" s:attribute="ref">PB_state</text>
    <s:alias val="$_outputExt_"/>
    <path d="M30,0 L30,20 L15,20 L0,10 L15,0 Z" class="cell_PB_state"/>
    <g s:x="0" s:y="10" s:pid="A"/>
  </g>
  <g s:type="outputExt" transform="translate(677,114)" s:width="30" s:height="20" id="cell_PB_down">
    <text x="15" y="-4" class="nodelabel cell_PB_down" s:attribute="ref">PB_down</text>
    <s:alias val="$_outputExt_"/>
    <path d="M30,0 L30,20 L15,20 L0,10 L15,0 Z" class="cell_PB_down"/>
    <g s:x="0" s:y="10" s:pid="A"/>
  </g>
  <g s:type="outputExt" transform="translate(677,179)" s:width="30" s:height="20" id="cell_PB_up">
    <text x="15" y="-4" class="nodelabel cell_PB_up" s:attribute="ref">PB_up</text>
    <s:alias val="$_outputExt_"/>
    <path d="M30,0 L30,20 L15,20 L0,10 L15,0 Z" class="cell_PB_up"/>
    <g s:x="0" s:y="10" s:pid="A"/>
  </g>
  <g s:type="constant" transform="translate(482,231.5)" s:width="30" s:height="20" id="cell_1">
    <text x="15" y="-4" class="nodelabel cell_1" s:attribute="ref">1</text>
    <s:alias val="$_constant_"/>
    <rect width="30" height="20" class="cell_1"/>
    <g s:x="30" s:y="10" s:pid="Y"/>
  </g>
  <g s:type="constant" transform="translate(547,291.5)" s:width="30" s:height="20" id="cell_0000000000000000">
    <text x="15" y="-4" class="nodelabel cell_0000000000000000" s:attribute="ref">0x0</text>
    <s:alias val="$_constant_"/>
    <rect width="30" height="20" class="cell_0000000000000000"/>
    <g s:x="30" s:y="10" s:pid="Y"/>
  </g>
  <line x1="707" x2="735" y1="244" y2="244" class="net_7,8,9,10,11,12,13,14,15,16,17,18,19,20,21,22"/>
  <line x1="735" x2="735" y1="244" y2="211.5" class="net_7,8,9,10,11,12,13,14,15,16,17,18,19,20,21,22"/>
  <line x1="735" x2="522" y1="211.5" y2="211.5" class="net_7,8,9,10,11,12,13,14,15,16,17,18,19,20,21,22"/>
  <line x1="522" x2="522" y1="211.5" y2="226.5" class="net_7,8,9,10,11,12,13,14,15,16,17,18,19,20,21,22"/>
  <circle cx="735" cy="244" r="2" style="fill:#000" class="net_7,8,9,10,11,12,13,14,15,16,17,18,19,20,21,22"/>
  <line x1="522" x2="553.3333333333334" y1="226.5" y2="226.5" class="net_7,8,9,10,11,12,13,14,15,16,17,18,19,20,21,22"/>
  <line x1="707" x2="735" y1="244" y2="244" class="net_7,8,9,10,11,12,13,14,15,16,17,18,19,20,21,22"/>
  <line x1="735" x2="735" y1="244" y2="343.5" class="net_7,8,9,10,11,12,13,14,15,16,17,18,19,20,21,22"/>
  <line x1="735" x2="182" y1="343.5" y2="343.5" class="net_7,8,9,10,11,12,13,14,15,16,17,18,19,20,21,22"/>
  <line x1="182" x2="182" y1="343.5" y2="124" class="net_7,8,9,10,11,12,13,14,15,16,17,18,19,20,21,22"/>
  <line x1="182" x2="214" y1="124" y2="124" class="net_7,8,9,10,11,12,13,14,15,16,17,18,19,20,21,22"/>
  <line x1="512" x2="553.3333333333334" y1="241.5" y2="241.5" class="net_65"/>
  <line x1="577" x2="587" y1="116.5" y2="116.5" class="net_39"/>
  <line x1="587" x2="587" y1="116.5" y2="181.5" class="net_39"/>
  <circle cx="587" cy="116.5" r="2" style="fill:#000" class="net_39"/>
  <line x1="587" x2="612" y1="181.5" y2="181.5" class="net_39"/>
  <line x1="577" x2="612" y1="116.5" y2="116.5" class="net_39"/>
  <line x1="239" x2="392" y1="53" y2="53" class="net_40"/>
  <line x1="392" x2="392" y1="53" y2="196.5" class="net_40"/>
  <circle cx="392" cy="53" r="2" style="fill:#000" class="net_40"/>
  <line x1="392" x2="612" y1="196.5" y2="196.5" class="net_40"/>
  <line x1="239" x2="425.3333333333333" y1="53" y2="53" class="net_40"/>
  <line x1="507" x2="522" y1="174" y2="174" class="net_41"/>
  <line x1="522" x2="522" y1="174" y2="109" class="net_41"/>
  <line x1="522" x2="547" y1="109" y2="109" class="net_41"/>
  <line x1="245" x2="547" y1="124" y2="124" class="net_42"/>
  <line x1="245" x2="402" y1="124" y2="124" class="net_42"/>
  <line x1="402" x2="402" y1="124" y2="73" class="net_42"/>
  <line x1="402" x2="435.3333333333333" y1="73" y2="73" class="net_42"/>
  <circle cx="402" cy="124" r="2" style="fill:#000" class="net_42"/>
  <line x1="435.3333333333333" x2="435.3333333333333" y1="73" y2="58" class="net_42"/>
  <line x1="577" x2="597" y1="53" y2="53" class="net_4"/>
  <line x1="597" x2="597" y1="53" y2="131.5" class="net_4"/>
  <line x1="597" x2="612" y1="131.5" y2="131.5" class="net_4"/>
  <line x1="577" x2="597" y1="53" y2="53" class="net_4"/>
  <line x1="597" x2="597" y1="53" y2="94" class="net_4"/>
  <line x1="597" x2="412" y1="94" y2="94" class="net_4"/>
  <line x1="412" x2="412" y1="94" y2="166.5" class="net_4"/>
  <circle cx="597" cy="94" r="2" style="fill:#000" class="net_4"/>
  <line x1="412" x2="425" y1="166.5" y2="166.5" class="net_4"/>
  <line x1="577" x2="597" y1="53" y2="53" class="net_4"/>
  <line x1="597" x2="597" y1="53" y2="12" class="net_4"/>
  <line x1="597" x2="192" y1="12" y2="12" class="net_4"/>
  <line x1="192" x2="192" y1="12" y2="53" class="net_4"/>
  <circle cx="597" cy="53" r="2" style="fill:#000" class="net_4"/>
  <line x1="192" x2="214" y1="53" y2="53" class="net_4"/>
  <line x1="577" x2="597" y1="53" y2="53" class="net_4"/>
  <line x1="597" x2="597" y1="53" y2="12" class="net_4"/>
  <line x1="597" x2="392" y1="12" y2="12" class="net_4"/>
  <line x1="392" x2="392" y1="12" y2="33" class="net_4"/>
  <circle cx="392" cy="12" r="2" style="fill:#000" class="net_4"/>
  <line x1="392" x2="425.3333333333333" y1="33" y2="33" class="net_4"/>
  <line x1="577" x2="597" y1="53" y2="53" class="net_4"/>
  <line x1="597" x2="597" y1="53" y2="12" class="net_4"/>
  <line x1="597" x2="457" y1="12" y2="12" class="net_4"/>
  <line x1="457" x2="457" y1="12" y2="63" class="net_4"/>
  <circle cx="457" cy="12" r="2" style="fill:#000" class="net_4"/>
  <line x1="457" x2="488.6666666666667" y1="63" y2="63" class="net_4"/>
  <line x1="577" x2="677" y1="53" y2="53" class="net_4"/>
  <line x1="287.66666666666663" x2="425" y1="181.5" y2="181.5" class="net_43"/>
  <line x1="40" x2="77" y1="181.5" y2="181.5" class="net_3"/>
  <line x1="447" x2="482" y1="174" y2="174" class="net_44"/>
  <line x1="447" x2="457" y1="174" y2="174" class="net_44"/>
  <line x1="457" x2="457" y1="174" y2="321.5" class="net_44"/>
  <line x1="457" x2="625.3333333333334" y1="321.5" y2="321.5" class="net_44"/>
  <circle cx="457" cy="174" r="2" style="fill:#000" class="net_44"/>
  <line x1="625.3333333333334" x2="625.3333333333334" y1="321.5" y2="259" class="net_44"/>
  <line x1="447" x2="457" y1="174" y2="174" class="net_44"/>
  <line x1="457" x2="457" y1="174" y2="154" class="net_44"/>
  <line x1="457" x2="498.6666666666667" y1="154" y2="154" class="net_44"/>
  <line x1="498.6666666666667" x2="498.6666666666667" y1="154" y2="68" class="net_44"/>
  <line x1="105" x2="117" y1="332.5" y2="332.5" class="net_2"/>
  <line x1="117" x2="117" y1="332.5" y2="83" class="net_2"/>
  <line x1="117" x2="522" y1="83" y2="83" class="net_2"/>
  <line x1="522" x2="522" y1="83" y2="73" class="net_2"/>
  <circle cx="117" cy="332.5" r="2" style="fill:#000" class="net_2"/>
  <line x1="522" x2="547" y1="73" y2="73" class="net_2"/>
  <line x1="105" x2="652" y1="332.5" y2="332.5" class="net_2"/>
  <line x1="652" x2="652" y1="332.5" y2="264" class="net_2"/>
  <line x1="652" x2="677" y1="264" y2="264" class="net_2"/>
  <line x1="105" x2="192" y1="332.5" y2="332.5" class="net_2"/>
  <line x1="192" x2="192" y1="332.5" y2="201.5" class="net_2"/>
  <circle cx="192" cy="332.5" r="2" style="fill:#000" class="net_2"/>
  <line x1="192" x2="257.66666666666663" y1="201.5" y2="201.5" class="net_2"/>
  <line x1="105" x2="117" y1="332.5" y2="332.5" class="net_2"/>
  <line x1="117" x2="117" y1="332.5" y2="201.5" class="net_2"/>
  <circle cx="117" cy="201.5" r="2" style="fill:#000" class="net_2"/>
  <line x1="117" x2="142" y1="201.5" y2="201.5" class="net_2"/>
  <line x1="508.6666666666667" x2="547" y1="53" y2="53" class="net_46"/>
  <line x1="635.3333333333334" x2="677" y1="244" y2="244" class="net_47,48,49,50,51,52,53,54,55,56,57,58,59,60,61,62"/>
  <line x1="172" x2="257.66666666666663" y1="181.5" y2="181.5" class="net_63"/>
  <line x1="102" x2="142" y1="181.5" y2="181.5" class="net_45"/>
  <line x1="575.3333333333334" x2="615.3333333333334" y1="234" y2="234" class="net_23,24,25,26,27,28,29,30,31,32,33,34,35,36,37,38"/>
  <line x1="577" x2="587" y1="301.5" y2="301.5" class="net_66,67,68,69,70,71,72,73,74,75,76,77,78,79,80,81"/>
  <line x1="587" x2="587" y1="301.5" y2="254" class="net_66,67,68,69,70,71,72,73,74,75,76,77,78,79,80,81"/>
  <line x1="587" x2="615.3333333333334" y1="254" y2="254" class="net_66,67,68,69,70,71,72,73,74,75,76,77,78,79,80,81"/>
  <line x1="445.3333333333333" x2="488.6666666666667" y1="43" y2="43" class="net_64"/>
  <line x1="642" x2="677" y1="124" y2="124" class="net_5"/>
  <line x1="642" x2="677" y1="189" y2="189" class="net_6"/>
</svg>
