<?xml version="1.0" encoding="UTF-8" standalone="no"?>
<!DOCTYPE svg PUBLIC "-//W3C//DTD SVG 1.1//EN"
 "http://www.w3.org/Graphics/SVG/1.1/DTD/svg11.dtd">
<!-- Generated by graphviz version 2.38.0 (20140413.2041)
 -->
<!-- Title: debouncer Pages: 1 -->
<svg width="2615pt" height="496pt"
 viewBox="0.00 0.00 2615.32 496.00" xmlns="http://www.w3.org/2000/svg" xmlns:xlink="http://www.w3.org/1999/xlink">
<g id="graph0" class="graph" transform="scale(1 1) rotate(0) translate(4 492)">
<title>debouncer</title>
<polygon fill="white" stroke="none" points="-4,4 -4,-492 2611.32,-492 2611.32,4 -4,4"/>
<text text-anchor="middle" x="1303.66" y="-7.8" font-family="Times,serif" font-size="14.00">debouncer</text>
<!-- n9 -->
<g id="node1" class="node"><title>n9</title>
<polygon fill="none" stroke="black" points="54,-35.0442 54,-49.9558 38.1838,-60.5 15.8162,-60.5 3.55271e-15,-49.9558 0,-35.0442 15.8162,-24.5 38.1838,-24.5 54,-35.0442"/>
<text text-anchor="middle" x="27" y="-38.8" font-family="Times,serif" font-size="14.00">PB</text>
</g>
<!-- c27 -->
<g id="node17" class="node"><title>c27</title>
<polygon fill="none" stroke="black" points="90,-23.5 90,-61.5 183,-61.5 183,-23.5 90,-23.5"/>
<text text-anchor="middle" x="103" y="-38.8" font-family="Times,serif" font-size="14.00">A</text>
<polyline fill="none" stroke="black" points="116,-23.5 116,-61.5 "/>
<text text-anchor="middle" x="136.5" y="-46.3" font-family="Times,serif" font-size="14.00">$2</text>
<text text-anchor="middle" x="136.5" y="-31.3" font-family="Times,serif" font-size="14.00">$not</text>
<polyline fill="none" stroke="black" points="157,-23.5 157,-61.5 "/>
<text text-anchor="middle" x="170" y="-38.8" font-family="Times,serif" font-size="14.00">Y</text>
</g>
<!-- n9&#45;&gt;c27 -->
<g id="edge39" class="edge"><title>n9:e&#45;&gt;c27:p19:w</title>
<path fill="none" stroke="#7570b3" d="M54,-42.5C66,-42.5 71.25,-42.5 79.875,-42.5"/>
<polygon fill="#7570b3" stroke="#7570b3" points="80,-46.0001 90,-42.5 80,-39.0001 80,-46.0001"/>
</g>
<!-- n10 -->
<g id="node2" class="node"><title>n10</title>
<polygon fill="none" stroke="black" points="1581.75,-479.5 1530.31,-461.5 1581.75,-443.5 1633.2,-461.5 1581.75,-479.5"/>
<text text-anchor="middle" x="1581.75" y="-457.8" font-family="Times,serif" font-size="14.00">PB_cnt</text>
</g>
<!-- c22 -->
<g id="node12" class="node"><title>c22</title>
<polygon fill="none" stroke="black" points="1730.24,-377.5 1730.24,-423.5 1825.24,-423.5 1825.24,-377.5 1730.24,-377.5"/>
<text text-anchor="middle" x="1743.24" y="-408.3" font-family="Times,serif" font-size="14.00">A</text>
<polyline fill="none" stroke="black" points="1730.24,-400.5 1756.24,-400.5 "/>
<text text-anchor="middle" x="1743.24" y="-385.3" font-family="Times,serif" font-size="14.00">B</text>
<polyline fill="none" stroke="black" points="1756.24,-377.5 1756.24,-423.5 "/>
<text text-anchor="middle" x="1777.74" y="-404.3" font-family="Times,serif" font-size="14.00">$7</text>
<text text-anchor="middle" x="1777.74" y="-389.3" font-family="Times,serif" font-size="14.00">$add</text>
<polyline fill="none" stroke="black" points="1799.24,-377.5 1799.24,-423.5 "/>
<text text-anchor="middle" x="1812.24" y="-396.8" font-family="Times,serif" font-size="14.00">Y</text>
</g>
<!-- n10&#45;&gt;c22 -->
<g id="edge3" class="edge"><title>n10:e&#45;&gt;c22:p19:w</title>
<path fill="none" stroke="#1b9e77" stroke-width="3" d="M1634.75,-461.5C1678.18,-461.5 1681.38,-419.857 1718.52,-413.35"/>
<polygon fill="#1b9e77" stroke="#1b9e77" stroke-width="3" points="1719.07,-416.817 1728.74,-412.5 1718.49,-409.841 1719.07,-416.817"/>
</g>
<!-- c41 -->
<g id="node28" class="node"><title>c41</title>
<polygon fill="none" stroke="black" points="1708.74,-442.5 1708.74,-480.5 1846.74,-480.5 1846.74,-442.5 1708.74,-442.5"/>
<text text-anchor="middle" x="1721.74" y="-457.8" font-family="Times,serif" font-size="14.00">A</text>
<polyline fill="none" stroke="black" points="1734.74,-442.5 1734.74,-480.5 "/>
<text text-anchor="middle" x="1777.74" y="-465.3" font-family="Times,serif" font-size="14.00">$5</text>
<text text-anchor="middle" x="1777.74" y="-450.3" font-family="Times,serif" font-size="14.00">$reduce_and</text>
<polyline fill="none" stroke="black" points="1820.74,-442.5 1820.74,-480.5 "/>
<text text-anchor="middle" x="1833.74" y="-457.8" font-family="Times,serif" font-size="14.00">Y</text>
</g>
<!-- n10&#45;&gt;c41 -->
<g id="edge4" class="edge"><title>n10:e&#45;&gt;c41:p19:w</title>
<path fill="none" stroke="#1b9e77" stroke-width="3" d="M1634.75,-461.5C1663.91,-461.5 1673.68,-461.5 1698.45,-461.5"/>
<polygon fill="#1b9e77" stroke="#1b9e77" stroke-width="3" points="1698.74,-465 1708.74,-461.5 1698.74,-458 1698.74,-465"/>
</g>
<!-- n11 -->
<g id="node3" class="node"><title>n11</title>
<polygon fill="none" stroke="black" points="1962.71,-327.5 1882.78,-309.5 1962.71,-291.5 2042.64,-309.5 1962.71,-327.5"/>
<text text-anchor="middle" x="1962.71" y="-305.8" font-family="Times,serif" font-size="14.00">PB_cnt_max</text>
</g>
<!-- c24 -->
<g id="node14" class="node"><title>c24</title>
<polygon fill="none" stroke="black" points="2081.18,-396.5 2081.18,-442.5 2176.18,-442.5 2176.18,-396.5 2081.18,-396.5"/>
<text text-anchor="middle" x="2094.18" y="-427.3" font-family="Times,serif" font-size="14.00">A</text>
<polyline fill="none" stroke="black" points="2081.18,-419.5 2107.18,-419.5 "/>
<text text-anchor="middle" x="2094.18" y="-404.3" font-family="Times,serif" font-size="14.00">B</text>
<polyline fill="none" stroke="black" points="2107.18,-396.5 2107.18,-442.5 "/>
<text text-anchor="middle" x="2128.68" y="-423.3" font-family="Times,serif" font-size="14.00">$14</text>
<text text-anchor="middle" x="2128.68" y="-408.3" font-family="Times,serif" font-size="14.00">$and</text>
<polyline fill="none" stroke="black" points="2150.18,-396.5 2150.18,-442.5 "/>
<text text-anchor="middle" x="2163.18" y="-415.8" font-family="Times,serif" font-size="14.00">Y</text>
</g>
<!-- n11&#45;&gt;c24 -->
<g id="edge6" class="edge"><title>n11:e&#45;&gt;c24:p20:w</title>
<path fill="none" stroke="#1b9e77" d="M2042.68,-309.5C2085.23,-309.5 2042.01,-391.38 2069.82,-405.453"/>
<polygon fill="#1b9e77" stroke="#1b9e77" points="2069.18,-408.894 2079.68,-407.5 2070.6,-402.04 2069.18,-408.894"/>
</g>
<!-- c39 -->
<g id="node26" class="node"><title>c39</title>
<polygon fill="none" stroke="black" points="2078.68,-270 2078.68,-339 2178.68,-339 2178.68,-270 2078.68,-270"/>
<text text-anchor="middle" x="2091.68" y="-323.8" font-family="Times,serif" font-size="14.00">A</text>
<polyline fill="none" stroke="black" points="2078.68,-316 2104.68,-316 "/>
<text text-anchor="middle" x="2091.68" y="-300.8" font-family="Times,serif" font-size="14.00">B</text>
<polyline fill="none" stroke="black" points="2078.68,-293 2104.68,-293 "/>
<text text-anchor="middle" x="2091.68" y="-277.8" font-family="Times,serif" font-size="14.00">S</text>
<polyline fill="none" stroke="black" points="2104.68,-270 2104.68,-339 "/>
<text text-anchor="middle" x="2128.68" y="-308.3" font-family="Times,serif" font-size="14.00">$19</text>
<text text-anchor="middle" x="2128.68" y="-293.3" font-family="Times,serif" font-size="14.00">$mux</text>
<polyline fill="none" stroke="black" points="2152.68,-270 2152.68,-339 "/>
<text text-anchor="middle" x="2165.68" y="-300.8" font-family="Times,serif" font-size="14.00">Y</text>
</g>
<!-- n11&#45;&gt;c39 -->
<g id="edge7" class="edge"><title>n11:e&#45;&gt;c39:p37:w</title>
<path fill="none" stroke="#1b9e77" d="M2042.68,-309.5C2058.83,-309.5 2059.23,-291.72 2068.98,-284.496"/>
<polygon fill="#1b9e77" stroke="#1b9e77" points="2070.16,-287.796 2078.68,-281.5 2068.09,-281.109 2070.16,-287.796"/>
</g>
<!-- n12 -->
<g id="node4" class="node"><title>n12</title>
<polygon fill="none" stroke="black" points="2594.41,-353.044 2594.41,-367.956 2565.42,-378.5 2524.42,-378.5 2495.43,-367.956 2495.43,-353.044 2524.42,-342.5 2565.42,-342.5 2594.41,-353.044"/>
<text text-anchor="middle" x="2544.92" y="-356.8" font-family="Times,serif" font-size="14.00">PB_down</text>
</g>
<!-- n13 -->
<g id="node5" class="node"><title>n13</title>
<polygon fill="none" stroke="black" points="1082.77,-241.5 1027.47,-223.5 1082.77,-205.5 1138.07,-223.5 1082.77,-241.5"/>
<text text-anchor="middle" x="1082.77" y="-219.8" font-family="Times,serif" font-size="14.00">PB_idle</text>
</g>
<!-- c29 -->
<g id="node19" class="node"><title>c29</title>
<polygon fill="none" stroke="black" points="1353.76,-259.5 1353.76,-297.5 1446.76,-297.5 1446.76,-259.5 1353.76,-259.5"/>
<text text-anchor="middle" x="1366.76" y="-274.8" font-family="Times,serif" font-size="14.00">A</text>
<polyline fill="none" stroke="black" points="1379.76,-259.5 1379.76,-297.5 "/>
<text text-anchor="middle" x="1400.26" y="-282.3" font-family="Times,serif" font-size="14.00">$13</text>
<text text-anchor="middle" x="1400.26" y="-267.3" font-family="Times,serif" font-size="14.00">$not</text>
<polyline fill="none" stroke="black" points="1420.76,-259.5 1420.76,-297.5 "/>
<text text-anchor="middle" x="1433.76" y="-274.8" font-family="Times,serif" font-size="14.00">Y</text>
</g>
<!-- n13&#45;&gt;c29 -->
<g id="edge10" class="edge"><title>n13:e&#45;&gt;c29:p19:w</title>
<path fill="none" stroke="#e7298a" d="M1138.77,-223.5C1233.31,-223.5 1252.95,-274.701 1342.22,-278.301"/>
<polygon fill="#e7298a" stroke="#e7298a" points="1342.19,-281.801 1352.26,-278.5 1342.33,-274.802 1342.19,-281.801"/>
</g>
<!-- c38 -->
<g id="node25" class="node"><title>c38</title>
<polygon fill="none" stroke="black" points="1209.76,-355 1209.76,-424 1309.76,-424 1309.76,-355 1209.76,-355"/>
<text text-anchor="middle" x="1222.76" y="-408.8" font-family="Times,serif" font-size="14.00">A</text>
<polyline fill="none" stroke="black" points="1209.76,-401 1235.76,-401 "/>
<text text-anchor="middle" x="1222.76" y="-385.8" font-family="Times,serif" font-size="14.00">B</text>
<polyline fill="none" stroke="black" points="1209.76,-378 1235.76,-378 "/>
<text text-anchor="middle" x="1222.76" y="-362.8" font-family="Times,serif" font-size="14.00">S</text>
<polyline fill="none" stroke="black" points="1235.76,-355 1235.76,-424 "/>
<text text-anchor="middle" x="1259.76" y="-393.3" font-family="Times,serif" font-size="14.00">$17</text>
<text text-anchor="middle" x="1259.76" y="-378.3" font-family="Times,serif" font-size="14.00">$mux</text>
<polyline fill="none" stroke="black" points="1283.76,-355 1283.76,-424 "/>
<text text-anchor="middle" x="1296.76" y="-385.8" font-family="Times,serif" font-size="14.00">Y</text>
</g>
<!-- n13&#45;&gt;c38 -->
<g id="edge11" class="edge"><title>n13:e&#45;&gt;c38:p37:w</title>
<path fill="none" stroke="#e7298a" d="M1138.77,-223.5C1205.98,-223.5 1145.89,-351.816 1199.68,-365.349"/>
<polygon fill="#e7298a" stroke="#e7298a" points="1199.43,-368.843 1209.76,-366.5 1200.22,-361.888 1199.43,-368.843"/>
</g>
<!-- c40 -->
<g id="node27" class="node"><title>c40</title>
<polygon fill="none" stroke="black" points="2214.68,-173 2214.68,-242 2314.68,-242 2314.68,-173 2214.68,-173"/>
<text text-anchor="middle" x="2227.68" y="-226.8" font-family="Times,serif" font-size="14.00">A</text>
<polyline fill="none" stroke="black" points="2214.68,-219 2240.68,-219 "/>
<text text-anchor="middle" x="2227.68" y="-203.8" font-family="Times,serif" font-size="14.00">B</text>
<polyline fill="none" stroke="black" points="2214.68,-196 2240.68,-196 "/>
<text text-anchor="middle" x="2227.68" y="-180.8" font-family="Times,serif" font-size="14.00">S</text>
<polyline fill="none" stroke="black" points="2240.68,-173 2240.68,-242 "/>
<text text-anchor="middle" x="2264.68" y="-211.3" font-family="Times,serif" font-size="14.00">$22</text>
<text text-anchor="middle" x="2264.68" y="-196.3" font-family="Times,serif" font-size="14.00">$mux</text>
<polyline fill="none" stroke="black" points="2288.68,-173 2288.68,-242 "/>
<text text-anchor="middle" x="2301.68" y="-203.8" font-family="Times,serif" font-size="14.00">Y</text>
</g>
<!-- n13&#45;&gt;c40 -->
<g id="edge12" class="edge"><title>n13:e&#45;&gt;c40:p37:w</title>
<path fill="none" stroke="#e7298a" d="M1138.77,-223.5C1255.41,-223.5 1282.62,-191.5 1399.26,-191.5 1399.26,-191.5 1399.26,-191.5 1963.71,-191.5 2071.81,-191.5 2101.27,-184.931 2204.46,-184.52"/>
<polygon fill="#e7298a" stroke="#e7298a" points="2204.69,-188.02 2214.68,-184.5 2204.67,-181.02 2204.69,-188.02"/>
</g>
<!-- n14 -->
<g id="node6" class="node"><title>n14</title>
<polygon fill="none" stroke="black" points="2590.88,-244.044 2590.88,-258.956 2563.96,-269.5 2525.89,-269.5 2498.97,-258.956 2498.97,-244.044 2525.89,-233.5 2563.96,-233.5 2590.88,-244.044"/>
<text text-anchor="middle" x="2544.92" y="-247.8" font-family="Times,serif" font-size="14.00">PB_state</text>
</g>
<!-- c25 -->
<g id="node15" class="node"><title>c25</title>
<polygon fill="none" stroke="black" points="2357.68,-337.5 2357.68,-383.5 2452.68,-383.5 2452.68,-337.5 2357.68,-337.5"/>
<text text-anchor="middle" x="2370.68" y="-368.3" font-family="Times,serif" font-size="14.00">A</text>
<polyline fill="none" stroke="black" points="2357.68,-360.5 2383.68,-360.5 "/>
<text text-anchor="middle" x="2370.68" y="-345.3" font-family="Times,serif" font-size="14.00">B</text>
<polyline fill="none" stroke="black" points="2383.68,-337.5 2383.68,-383.5 "/>
<text text-anchor="middle" x="2405.18" y="-364.3" font-family="Times,serif" font-size="14.00">$15</text>
<text text-anchor="middle" x="2405.18" y="-349.3" font-family="Times,serif" font-size="14.00">$and</text>
<polyline fill="none" stroke="black" points="2426.68,-337.5 2426.68,-383.5 "/>
<text text-anchor="middle" x="2439.68" y="-356.8" font-family="Times,serif" font-size="14.00">Y</text>
</g>
<!-- n14&#45;&gt;c25 -->
<g id="edge14" class="edge"><title>n14:e&#45;&gt;c25:p20:w</title>
<path fill="none" stroke="#e7298a" d="M2591.92,-251.5C2599.93,-251.5 2595.59,-262.985 2590.92,-269.5 2554.31,-320.653 2520.44,-306.196 2459.68,-322.5 2437.46,-328.462 2373,-320.302 2357.18,-337 2356.85,-337.349 2356.52,-337.734 2356.22,-338.144"/>
<polygon fill="#e7298a" stroke="#e7298a" points="2352.71,-338.487 2356.18,-348.5 2359.71,-338.513 2352.71,-338.487"/>
</g>
<!-- c26 -->
<g id="node16" class="node"><title>c26</title>
<polygon fill="none" stroke="black" points="867.777,-157.5 867.777,-203.5 955.777,-203.5 955.777,-157.5 867.777,-157.5"/>
<text text-anchor="middle" x="880.777" y="-188.3" font-family="Times,serif" font-size="14.00">A</text>
<polyline fill="none" stroke="black" points="867.777,-180.5 893.777,-180.5 "/>
<text text-anchor="middle" x="880.777" y="-165.3" font-family="Times,serif" font-size="14.00">B</text>
<polyline fill="none" stroke="black" points="893.777,-157.5 893.777,-203.5 "/>
<text text-anchor="middle" x="911.777" y="-184.3" font-family="Times,serif" font-size="14.00">$4</text>
<text text-anchor="middle" x="911.777" y="-169.3" font-family="Times,serif" font-size="14.00">$eq</text>
<polyline fill="none" stroke="black" points="929.777,-157.5 929.777,-203.5 "/>
<text text-anchor="middle" x="942.777" y="-176.8" font-family="Times,serif" font-size="14.00">Y</text>
</g>
<!-- n14&#45;&gt;c26 -->
<g id="edge15" class="edge"><title>n14:e&#45;&gt;c26:p19:w</title>
<path fill="none" stroke="#e7298a" d="M2591.92,-251.5C2608.66,-251.5 2612.37,-351.806 2499.2,-269.5 2453.1,-235.978 2504.08,-183.232 2459.68,-147.5 2392.18,-93.1874 2352.31,-128.5 2265.68,-128.5 1258.76,-128.5 1258.76,-128.5 1258.76,-128.5 1224.07,-128.5 990.213,-199.774 955.777,-204 916.957,-208.764 896.606,-230.431 867.777,-204 867.304,-203.567 866.854,-203.062 866.438,-202.51"/>
<polygon fill="#e7298a" stroke="#e7298a" points="869.936,-202.613 866.777,-192.5 862.94,-202.376 869.936,-202.613"/>
</g>
<!-- c28 -->
<g id="node18" class="node"><title>c28</title>
<polygon fill="none" stroke="black" points="1731.24,-233.5 1731.24,-271.5 1824.24,-271.5 1824.24,-233.5 1731.24,-233.5"/>
<text text-anchor="middle" x="1744.24" y="-248.8" font-family="Times,serif" font-size="14.00">A</text>
<polyline fill="none" stroke="black" points="1757.24,-233.5 1757.24,-271.5 "/>
<text text-anchor="middle" x="1777.74" y="-256.3" font-family="Times,serif" font-size="14.00">$11</text>
<text text-anchor="middle" x="1777.74" y="-241.3" font-family="Times,serif" font-size="14.00">$not</text>
<polyline fill="none" stroke="black" points="1798.24,-233.5 1798.24,-271.5 "/>
<text text-anchor="middle" x="1811.24" y="-248.8" font-family="Times,serif" font-size="14.00">Y</text>
</g>
<!-- n14&#45;&gt;c28 -->
<g id="edge16" class="edge"><title>n14:e&#45;&gt;c28:p19:w</title>
<path fill="none" stroke="#e7298a" d="M2591.92,-251.5C2599.93,-251.5 2596.74,-263.994 2590.92,-269.5 2561.31,-297.516 2539.96,-270.072 2499.2,-269.5 2225.22,-265.654 2155.46,-233.948 1882.74,-260.5 1815.31,-267.065 1779.86,-318.663 1730.74,-272 1727.99,-269.385 1725.8,-265.326 1724.92,-261.586"/>
<polygon fill="#e7298a" stroke="#e7298a" points="1728.15,-262.974 1729.74,-252.5 1721.97,-259.692 1728.15,-262.974"/>
</g>
<!-- n14&#45;&gt;c39 -->
<g id="edge17" class="edge"><title>n14:e&#45;&gt;c39:p19:w</title>
<path fill="none" stroke="#e7298a" d="M2591.92,-251.5C2599.93,-251.5 2596.26,-263.524 2590.92,-269.5 2559.97,-304.151 2224.97,-335.597 2178.68,-339.5 2134.39,-343.233 2111.38,-369.594 2078.68,-339.5 2078.06,-338.934 2077.48,-338.252 2076.97,-337.503"/>
<polygon fill="#e7298a" stroke="#e7298a" points="2080.46,-337.723 2077.68,-327.5 2073.48,-337.227 2080.46,-337.723"/>
</g>
<!-- n14&#45;&gt;c40 -->
<g id="edge18" class="edge"><title>n14:e&#45;&gt;c40:p20:w</title>
<path fill="none" stroke="#e7298a" d="M2591.92,-251.5C2615.78,-251.5 2627.59,-290.077 2499.2,-269.5 2480.94,-266.574 2477.84,-259.946 2459.68,-256.5 2432.89,-251.419 2233.68,-262.053 2214.68,-242.5 2207.05,-234.653 2201.96,-220.538 2205.02,-212.848"/>
<polygon fill="#e7298a" stroke="#e7298a" points="2207.01,-215.734 2213.68,-207.5 2203.33,-209.778 2207.01,-215.734"/>
</g>
<!-- n15 -->
<g id="node7" class="node"><title>n15</title>
<polygon fill="none" stroke="black" points="435.694,-163.5 363.805,-145.5 435.694,-127.5 507.583,-145.5 435.694,-163.5"/>
<text text-anchor="middle" x="435.694" y="-141.8" font-family="Times,serif" font-size="14.00">PB_sync_0</text>
</g>
<!-- c35 -->
<g id="node22" class="node"><title>c35</title>
<polygon fill="none" stroke="black" points="543.389,-145.5 543.389,-191.5 652.389,-191.5 652.389,-145.5 543.389,-145.5"/>
<text text-anchor="middle" x="565.389" y="-176.3" font-family="Times,serif" font-size="14.00">CLK</text>
<polyline fill="none" stroke="black" points="543.389,-168.5 587.389,-168.5 "/>
<text text-anchor="middle" x="565.389" y="-153.3" font-family="Times,serif" font-size="14.00">D</text>
<polyline fill="none" stroke="black" points="587.389,-145.5 587.389,-191.5 "/>
<text text-anchor="middle" x="606.889" y="-172.3" font-family="Times,serif" font-size="14.00">$26</text>
<text text-anchor="middle" x="606.889" y="-157.3" font-family="Times,serif" font-size="14.00">$dff</text>
<polyline fill="none" stroke="black" points="626.389,-145.5 626.389,-191.5 "/>
<text text-anchor="middle" x="639.389" y="-164.8" font-family="Times,serif" font-size="14.00">Q</text>
</g>
<!-- n15&#45;&gt;c35 -->
<g id="edge20" class="edge"><title>n15:e&#45;&gt;c35:p31:w</title>
<path fill="none" stroke="#7570b3" d="M507.389,-145.5C520.067,-145.5 524.596,-151.817 533.327,-154.877"/>
<polygon fill="#7570b3" stroke="#7570b3" points="532.959,-158.363 543.389,-156.5 534.074,-151.452 532.959,-158.363"/>
</g>
<!-- n16 -->
<g id="node8" class="node"><title>n16</title>
<polygon fill="none" stroke="black" points="760.083,-186.5 688.194,-168.5 760.083,-150.5 831.972,-168.5 760.083,-186.5"/>
<text text-anchor="middle" x="760.083" y="-164.8" font-family="Times,serif" font-size="14.00">PB_sync_1</text>
</g>
<!-- n16&#45;&gt;c26 -->
<g id="edge22" class="edge"><title>n16:e&#45;&gt;c26:p20:w</title>
<path fill="none" stroke="#d95f02" d="M831.777,-168.5C843.777,-168.5 849.027,-168.5 857.652,-168.5"/>
<polygon fill="#d95f02" stroke="#d95f02" points="857.777,-172 867.777,-168.5 857.777,-165 857.777,-172"/>
</g>
<!-- n17 -->
<g id="node9" class="node"><title>n17</title>
<polygon fill="none" stroke="black" points="2581.99,-418.044 2581.99,-432.956 2560.28,-443.5 2529.57,-443.5 2507.85,-432.956 2507.85,-418.044 2529.57,-407.5 2560.28,-407.5 2581.99,-418.044"/>
<text text-anchor="middle" x="2544.92" y="-421.8" font-family="Times,serif" font-size="14.00">PB_up</text>
</g>
<!-- n18 -->
<g id="node10" class="node"><title>n18</title>
<polygon fill="none" stroke="black" points="54,-167.044 54,-181.956 38.1838,-192.5 15.8162,-192.5 3.55271e-15,-181.956 0,-167.044 15.8162,-156.5 38.1838,-156.5 54,-167.044"/>
<text text-anchor="middle" x="27" y="-170.8" font-family="Times,serif" font-size="14.00">clk</text>
</g>
<!-- c33 -->
<g id="node20" class="node"><title>c33</title>
<polygon fill="none" stroke="black" points="2350.68,-157.5 2350.68,-203.5 2459.68,-203.5 2459.68,-157.5 2350.68,-157.5"/>
<text text-anchor="middle" x="2372.68" y="-188.3" font-family="Times,serif" font-size="14.00">CLK</text>
<polyline fill="none" stroke="black" points="2350.68,-180.5 2394.68,-180.5 "/>
<text text-anchor="middle" x="2372.68" y="-165.3" font-family="Times,serif" font-size="14.00">D</text>
<polyline fill="none" stroke="black" points="2394.68,-157.5 2394.68,-203.5 "/>
<text text-anchor="middle" x="2414.18" y="-184.3" font-family="Times,serif" font-size="14.00">$24</text>
<text text-anchor="middle" x="2414.18" y="-169.3" font-family="Times,serif" font-size="14.00">$dff</text>
<polyline fill="none" stroke="black" points="2433.68,-157.5 2433.68,-203.5 "/>
<text text-anchor="middle" x="2446.68" y="-176.8" font-family="Times,serif" font-size="14.00">Q</text>
</g>
<!-- n18&#45;&gt;c33 -->
<g id="edge24" class="edge"><title>n18:e&#45;&gt;c33:p30:w</title>
<path fill="none" stroke="#1b9e77" d="M54,-174.5C72.5233,-174.5 73.1648,-161.226 90,-153.5 167.988,-117.711 186.692,-90.5 272.5,-90.5 272.5,-90.5 272.5,-90.5 2129.68,-90.5 2218.07,-90.5 2238.28,-119.046 2314.68,-163.5 2328.83,-171.734 2330.24,-185.26 2340.63,-190.416"/>
<polygon fill="#1b9e77" stroke="#1b9e77" points="2340.18,-193.897 2350.68,-192.5 2341.6,-187.042 2340.18,-193.897"/>
</g>
<!-- c34 -->
<g id="node21" class="node"><title>c34</title>
<polygon fill="none" stroke="black" points="1345.76,-441.5 1345.76,-487.5 1454.76,-487.5 1454.76,-441.5 1345.76,-441.5"/>
<text text-anchor="middle" x="1367.76" y="-472.3" font-family="Times,serif" font-size="14.00">CLK</text>
<polyline fill="none" stroke="black" points="1345.76,-464.5 1389.76,-464.5 "/>
<text text-anchor="middle" x="1367.76" y="-449.3" font-family="Times,serif" font-size="14.00">D</text>
<polyline fill="none" stroke="black" points="1389.76,-441.5 1389.76,-487.5 "/>
<text text-anchor="middle" x="1409.26" y="-468.3" font-family="Times,serif" font-size="14.00">$25</text>
<text text-anchor="middle" x="1409.26" y="-453.3" font-family="Times,serif" font-size="14.00">$dff</text>
<polyline fill="none" stroke="black" points="1428.76,-441.5 1428.76,-487.5 "/>
<text text-anchor="middle" x="1441.76" y="-460.8" font-family="Times,serif" font-size="14.00">Q</text>
</g>
<!-- n18&#45;&gt;c34 -->
<g id="edge25" class="edge"><title>n18:e&#45;&gt;c34:p30:w</title>
<path fill="none" stroke="#1b9e77" d="M54,-174.5C94.3445,-174.5 232.155,-464.5 272.5,-464.5 272.5,-464.5 272.5,-464.5 1083.77,-464.5 1196.92,-464.5 1227.43,-475.807 1335.74,-476.47"/>
<polygon fill="#1b9e77" stroke="#1b9e77" points="1335.75,-479.97 1345.76,-476.5 1335.77,-472.97 1335.75,-479.97"/>
</g>
<!-- n18&#45;&gt;c35 -->
<g id="edge26" class="edge"><title>n18:e&#45;&gt;c35:p30:w</title>
<path fill="none" stroke="#1b9e77" d="M54,-174.5C70.0985,-174.5 73.9282,-177.574 90,-178.5 287.737,-189.889 340.103,-180.822 533.188,-180.508"/>
<polygon fill="#1b9e77" stroke="#1b9e77" points="533.391,-184.008 543.389,-180.5 533.386,-177.008 533.391,-184.008"/>
</g>
<!-- c36 -->
<g id="node23" class="node"><title>c36</title>
<polygon fill="none" stroke="black" points="219,-119.5 219,-165.5 328,-165.5 328,-119.5 219,-119.5"/>
<text text-anchor="middle" x="241" y="-150.3" font-family="Times,serif" font-size="14.00">CLK</text>
<polyline fill="none" stroke="black" points="219,-142.5 263,-142.5 "/>
<text text-anchor="middle" x="241" y="-127.3" font-family="Times,serif" font-size="14.00">D</text>
<polyline fill="none" stroke="black" points="263,-119.5 263,-165.5 "/>
<text text-anchor="middle" x="282.5" y="-146.3" font-family="Times,serif" font-size="14.00">$27</text>
<text text-anchor="middle" x="282.5" y="-131.3" font-family="Times,serif" font-size="14.00">$dff</text>
<polyline fill="none" stroke="black" points="302,-119.5 302,-165.5 "/>
<text text-anchor="middle" x="315" y="-138.8" font-family="Times,serif" font-size="14.00">Q</text>
</g>
<!-- n18&#45;&gt;c36 -->
<g id="edge27" class="edge"><title>n18:e&#45;&gt;c36:p30:w</title>
<path fill="none" stroke="#1b9e77" d="M54,-174.5C124.407,-174.5 143.387,-156.331 208.974,-154.628"/>
<polygon fill="#1b9e77" stroke="#1b9e77" points="209.045,-158.127 219,-154.5 208.956,-151.128 209.045,-158.127"/>
</g>
<!-- v0 -->
<g id="node11" class="node"><title>v0</title>
<ellipse fill="none" stroke="black" cx="1581.75" cy="-366.5" rx="90.9839" ry="18"/>
<text text-anchor="middle" x="1581.75" y="-362.8" font-family="Times,serif" font-size="14.00">16&#39;0000000000000001</text>
</g>
<!-- v0&#45;&gt;c22 -->
<g id="edge40" class="edge"><title>v0:e&#45;&gt;c22:p20:w</title>
<path fill="none" stroke="#666666" stroke-width="3" d="M1672.74,-366.5C1695.73,-366.5 1700.82,-382.748 1718.77,-387.317"/>
<polygon fill="#666666" stroke="#666666" stroke-width="3" points="1718.4,-390.799 1728.74,-388.5 1719.23,-383.847 1718.4,-390.799"/>
</g>
<!-- c22&#45;&gt;c38 -->
<g id="edge30" class="edge"><title>c22:p21:e&#45;&gt;c38:p19:w</title>
<path fill="none" stroke="#d95f02" stroke-width="3" d="M1826.74,-400.5C1837.2,-400.5 1833.29,-416.763 1825.74,-424 1815.4,-433.922 1324.09,-424.493 1309.76,-424.5 1265.32,-424.522 1242.47,-454.594 1209.76,-424.5 1209.15,-423.934 1208.57,-423.252 1208.05,-422.503"/>
<polygon fill="#d95f02" stroke="#d95f02" stroke-width="3" points="1211.54,-422.723 1208.76,-412.5 1204.56,-422.227 1211.54,-422.723"/>
</g>
<!-- c23 -->
<g id="node13" class="node"><title>c23</title>
<polygon fill="none" stroke="black" points="2357.68,-402.5 2357.68,-448.5 2452.68,-448.5 2452.68,-402.5 2357.68,-402.5"/>
<text text-anchor="middle" x="2370.68" y="-433.3" font-family="Times,serif" font-size="14.00">A</text>
<polyline fill="none" stroke="black" points="2357.68,-425.5 2383.68,-425.5 "/>
<text text-anchor="middle" x="2370.68" y="-410.3" font-family="Times,serif" font-size="14.00">B</text>
<polyline fill="none" stroke="black" points="2383.68,-402.5 2383.68,-448.5 "/>
<text text-anchor="middle" x="2405.18" y="-429.3" font-family="Times,serif" font-size="14.00">$12</text>
<text text-anchor="middle" x="2405.18" y="-414.3" font-family="Times,serif" font-size="14.00">$and</text>
<polyline fill="none" stroke="black" points="2426.68,-402.5 2426.68,-448.5 "/>
<text text-anchor="middle" x="2439.68" y="-421.8" font-family="Times,serif" font-size="14.00">Y</text>
</g>
<!-- c23&#45;&gt;n17 -->
<g id="edge23" class="edge"><title>c23:p21:e&#45;&gt;n17:w</title>
<path fill="none" stroke="#1b9e77" d="M2454.18,-425.5C2473.77,-425.5 2481.08,-425.5 2496.65,-425.5"/>
<polygon fill="#1b9e77" stroke="#1b9e77" points="2496.92,-429 2506.92,-425.5 2496.92,-422 2496.92,-429"/>
</g>
<!-- n5 -->
<g id="node29" class="node"><title>n5</title>
<ellipse fill="black" stroke="black" cx="2264.68" cy="-419.5" rx="1.8" ry="1.8"/>
</g>
<!-- c24&#45;&gt;n5 -->
<g id="edge31" class="edge"><title>c24:p21:e&#45;&gt;n5:w</title>
<path fill="none" stroke="#d95f02" d="M2177.68,-419.5C2211.37,-419.5 2222.25,-419.5 2251.49,-419.5"/>
<polygon fill="#d95f02" stroke="#d95f02" points="2251.68,-423 2261.68,-419.5 2251.68,-416 2251.68,-423"/>
</g>
<!-- c25&#45;&gt;n12 -->
<g id="edge8" class="edge"><title>c25:p21:e&#45;&gt;n12:w</title>
<path fill="none" stroke="#7570b3" d="M2454.18,-360.5C2468.73,-360.5 2474.67,-360.5 2485.59,-360.5"/>
<polygon fill="#7570b3" stroke="#7570b3" points="2485.68,-364 2495.68,-360.5 2485.68,-357 2485.68,-364"/>
</g>
<!-- c26&#45;&gt;n13 -->
<g id="edge9" class="edge"><title>c26:p21:e&#45;&gt;n13:w</title>
<path fill="none" stroke="#e7298a" d="M955.777,-180.5C988.919,-180.5 990.037,-215.209 1016.67,-222.259"/>
<polygon fill="#e7298a" stroke="#e7298a" points="1016.42,-225.754 1026.77,-223.5 1017.27,-218.806 1016.42,-225.754"/>
</g>
<!-- c27&#45;&gt;c36 -->
<g id="edge29" class="edge"><title>c27:p21:e&#45;&gt;c36:p31:w</title>
<path fill="none" stroke="#e6ab02" d="M183,-42.5C221.131,-42.5 185.353,-114.152 209.048,-128.146"/>
<polygon fill="#e6ab02" stroke="#e6ab02" points="208.463,-131.604 219,-130.5 210.074,-124.792 208.463,-131.604"/>
</g>
<!-- n6 -->
<g id="node30" class="node"><title>n6</title>
<ellipse fill="black" stroke="black" cx="1962.71" cy="-271.5" rx="1.8" ry="1.8"/>
</g>
<!-- c28&#45;&gt;n6 -->
<g id="edge34" class="edge"><title>c28:p21:e&#45;&gt;n6:w</title>
<path fill="none" stroke="#d95f02" d="M1825.74,-252.5C1882.36,-252.5 1897.81,-269.339 1949.6,-271.312"/>
<polygon fill="#d95f02" stroke="#d95f02" points="1949.65,-274.813 1959.71,-271.5 1949.78,-267.815 1949.65,-274.813"/>
</g>
<!-- c29&#45;&gt;c24 -->
<g id="edge37" class="edge"><title>c29:p21:e&#45;&gt;c24:p19:w</title>
<path fill="none" stroke="#1b9e77" d="M1448.26,-278.5C1629.73,-278.5 1670.65,-323.671 1846.74,-367.5 1947.57,-392.595 1970.85,-429.059 2069.56,-431.383"/>
<polygon fill="#1b9e77" stroke="#1b9e77" points="2069.64,-434.884 2079.68,-431.5 2069.72,-427.885 2069.64,-434.884"/>
</g>
<!-- c33&#45;&gt;n14 -->
<g id="edge13" class="edge"><title>c33:p32:e&#45;&gt;n14:w</title>
<path fill="none" stroke="#e7298a" d="M2459.68,-180.5C2491.46,-180.5 2468.77,-236.325 2488.21,-248.973"/>
<polygon fill="#e7298a" stroke="#e7298a" points="2487.36,-252.37 2497.92,-251.5 2489.13,-245.595 2487.36,-252.37"/>
</g>
<!-- c34&#45;&gt;n10 -->
<g id="edge2" class="edge"><title>c34:p32:e&#45;&gt;n10:w</title>
<path fill="none" stroke="#1b9e77" stroke-width="3" d="M1454.76,-464.5C1483.94,-464.5 1493.67,-462.141 1518.45,-461.607"/>
<polygon fill="#1b9e77" stroke="#1b9e77" stroke-width="3" points="1518.79,-465.104 1528.75,-461.5 1518.72,-458.104 1518.79,-465.104"/>
</g>
<!-- c35&#45;&gt;n16 -->
<g id="edge21" class="edge"><title>c35:p32:e&#45;&gt;n16:w</title>
<path fill="none" stroke="#d95f02" d="M652.389,-168.5C664.389,-168.5 669.639,-168.5 678.264,-168.5"/>
<polygon fill="#d95f02" stroke="#d95f02" points="678.389,-172 688.389,-168.5 678.388,-165 678.389,-172"/>
</g>
<!-- c36&#45;&gt;n15 -->
<g id="edge19" class="edge"><title>c36:p32:e&#45;&gt;n15:w</title>
<path fill="none" stroke="#7570b3" d="M328,-142.5C340.042,-142.5 345.24,-144.188 353.859,-145.031"/>
<polygon fill="#7570b3" stroke="#7570b3" points="353.849,-148.534 364,-145.5 354.172,-141.542 353.849,-148.534"/>
</g>
<!-- v1 -->
<g id="node24" class="node"><title>v1</title>
<ellipse fill="none" stroke="black" cx="1082.77" cy="-389.5" rx="90.9839" ry="18"/>
<text text-anchor="middle" x="1082.77" y="-385.8" font-family="Times,serif" font-size="14.00">16&#39;0000000000000000</text>
</g>
<!-- v1&#45;&gt;c38 -->
<g id="edge41" class="edge"><title>v1:e&#45;&gt;c38:p20:w</title>
<path fill="none" stroke="#a6761d" stroke-width="3" d="M1173.76,-389.5C1185.76,-389.5 1191.01,-389.5 1199.64,-389.5"/>
<polygon fill="#a6761d" stroke="#a6761d" stroke-width="3" points="1199.76,-393 1209.76,-389.5 1199.76,-386 1199.76,-393"/>
</g>
<!-- c38&#45;&gt;c34 -->
<g id="edge1" class="edge"><title>c38:p21:e&#45;&gt;c34:p31:w</title>
<path fill="none" stroke="#66a61e" stroke-width="3" d="M1309.76,-389.5C1337.73,-389.5 1320.01,-436.877 1335.84,-449.461"/>
<polygon fill="#66a61e" stroke="#66a61e" stroke-width="3" points="1335.17,-452.917 1345.76,-452.5 1337.22,-446.224 1335.17,-452.917"/>
</g>
<!-- c39&#45;&gt;c40 -->
<g id="edge38" class="edge"><title>c39:p21:e&#45;&gt;c40:p19:w</title>
<path fill="none" stroke="#1b9e77" d="M2178.68,-304.5C2211.11,-304.5 2185.57,-246.316 2204.87,-233.134"/>
<polygon fill="#1b9e77" stroke="#1b9e77" points="2205.93,-236.474 2214.68,-230.5 2204.11,-229.714 2205.93,-236.474"/>
</g>
<!-- c40&#45;&gt;c33 -->
<g id="edge28" class="edge"><title>c40:p21:e&#45;&gt;c33:p31:w</title>
<path fill="none" stroke="#e6ab02" d="M2314.68,-207.5C2334.03,-207.5 2329.98,-181.256 2340.93,-171.825"/>
<polygon fill="#e6ab02" stroke="#e6ab02" points="2342.34,-175.04 2350.68,-168.5 2340.08,-168.415 2342.34,-175.04"/>
</g>
<!-- c41&#45;&gt;n11 -->
<g id="edge5" class="edge"><title>c41:p21:e&#45;&gt;n11:w</title>
<path fill="none" stroke="#1b9e77" d="M1846.74,-461.5C1912.24,-461.5 1824.42,-326.231 1872.54,-310.908"/>
<polygon fill="#1b9e77" stroke="#1b9e77" points="1873.32,-314.334 1882.74,-309.5 1872.36,-307.4 1873.32,-314.334"/>
</g>
<!-- n5&#45;&gt;c23 -->
<g id="edge32" class="edge"><title>n5:e&#45;&gt;c23:p19:w</title>
<path fill="none" stroke="#d95f02" d="M2267.68,-419.5C2304.21,-419.5 2314.3,-434.411 2346.09,-437.09"/>
<polygon fill="#d95f02" stroke="#d95f02" points="2346.04,-440.591 2356.18,-437.5 2346.33,-433.597 2346.04,-440.591"/>
</g>
<!-- n5&#45;&gt;c25 -->
<g id="edge33" class="edge"><title>n5:e&#45;&gt;c25:p19:w</title>
<path fill="none" stroke="#d95f02" d="M2267.68,-419.5C2308.56,-419.5 2311.43,-379.895 2346.08,-373.397"/>
<polygon fill="#d95f02" stroke="#d95f02" points="2346.53,-376.871 2356.18,-372.5 2345.91,-369.898 2346.53,-376.871"/>
</g>
<!-- n6&#45;&gt;c23 -->
<g id="edge35" class="edge"><title>n6:e&#45;&gt;c23:p20:w</title>
<path fill="none" stroke="#d95f02" d="M1965.71,-271.5C2000.27,-271.5 2014.29,-262.798 2042.68,-282.5 2070.13,-301.551 2052.09,-328.258 2078.68,-348.5 2102,-366.26 2292.84,-406.846 2346.16,-412.773"/>
<polygon fill="#d95f02" stroke="#d95f02" points="2345.95,-416.266 2356.18,-413.5 2346.46,-409.285 2345.95,-416.266"/>
</g>
<!-- n6&#45;&gt;c39 -->
<g id="edge36" class="edge"><title>n6:e&#45;&gt;c39:p20:w</title>
<path fill="none" stroke="#d95f02" d="M1965.71,-271.5C2000.27,-271.5 2010.16,-270.805 2042.68,-282.5 2056.46,-287.458 2059.24,-298.097 2068.73,-302.514"/>
<polygon fill="#d95f02" stroke="#d95f02" points="2068.19,-305.974 2078.68,-304.5 2069.56,-299.11 2068.19,-305.974"/>
</g>
</g>
</svg>
