<?xml version="1.0" encoding="UTF-8" standalone="no"?>
<!DOCTYPE svg PUBLIC "-//W3C//DTD SVG 1.1//EN"
 "http://www.w3.org/Graphics/SVG/1.1/DTD/svg11.dtd">
<!-- Generated by graphviz version 2.38.0 (20140413.2041)
 -->
<!-- Title: font Pages: 1 -->
<svg width="1608pt" height="613pt"
 viewBox="0.00 0.00 1607.81 612.50" xmlns="http://www.w3.org/2000/svg" xmlns:xlink="http://www.w3.org/1999/xlink">
<g id="graph0" class="graph" transform="scale(1 1) rotate(0) translate(4 608.5)">
<title>font</title>
<polygon fill="white" stroke="none" points="-4,4 -4,-608.5 1603.81,-608.5 1603.81,4 -4,4"/>
<text text-anchor="middle" x="799.903" y="-7.8" font-family="Times,serif" font-size="14.00">font</text>
<!-- n1 -->
<g id="node1" class="node"><title>n1</title>
<polygon fill="none" stroke="black" points="92.7916,-427.044 92.7916,-441.956 65.6339,-452.5 27.2271,-452.5 0.0693906,-441.956 0.0693906,-427.044 27.2271,-416.5 65.6339,-416.5 92.7916,-427.044"/>
<text text-anchor="middle" x="46.4305" y="-430.8" font-family="Times,serif" font-size="14.00">character</text>
</g>
<!-- x1 -->
<g id="node21" class="node"><title>x1</title>
<path fill="none" stroke="black" d="M157.856,-319.5C157.856,-319.5 203.856,-319.5 203.856,-319.5 209.856,-319.5 215.856,-325.5 215.856,-331.5 215.856,-331.5 215.856,-353.5 215.856,-353.5 215.856,-359.5 209.856,-365.5 203.856,-365.5 203.856,-365.5 157.856,-365.5 157.856,-365.5 151.856,-365.5 145.856,-359.5 145.856,-353.5 145.856,-353.5 145.856,-331.5 145.856,-331.5 145.856,-325.5 151.856,-319.5 157.856,-319.5"/>
<text text-anchor="middle" x="180.856" y="-350.3" font-family="Times,serif" font-size="14.00">7:0 &#45; 10:3</text>
<polyline fill="none" stroke="black" points="145.856,-342.5 215.856,-342.5 "/>
<text text-anchor="middle" x="180.856" y="-327.3" font-family="Times,serif" font-size="14.00">2:0 &#45; 2:0</text>
</g>
<!-- n1&#45;&gt;x1 -->
<g id="edge4" class="edge"><title>n1:e&#45;&gt;x1:s1:w</title>
<path fill="none" stroke="#1b9e77" stroke-width="3" d="M92.861,-434.5C131.291,-434.5 107.943,-368.797 134.789,-356.478"/>
<polygon fill="#1b9e77" stroke="#1b9e77" stroke-width="3" points="135.719,-359.862 144.856,-354.5 134.369,-352.993 135.719,-359.862"/>
</g>
<!-- x4 -->
<g id="node22" class="node"><title>x4</title>
<path fill="none" stroke="black" d="M157.856,-449.5C157.856,-449.5 203.856,-449.5 203.856,-449.5 209.856,-449.5 215.856,-455.5 215.856,-461.5 215.856,-461.5 215.856,-483.5 215.856,-483.5 215.856,-489.5 209.856,-495.5 203.856,-495.5 203.856,-495.5 157.856,-495.5 157.856,-495.5 151.856,-495.5 145.856,-489.5 145.856,-483.5 145.856,-483.5 145.856,-461.5 145.856,-461.5 145.856,-455.5 151.856,-449.5 157.856,-449.5"/>
<text text-anchor="middle" x="180.856" y="-480.3" font-family="Times,serif" font-size="14.00">7:0 &#45; 10:3</text>
<polyline fill="none" stroke="black" points="145.856,-472.5 215.856,-472.5 "/>
<text text-anchor="middle" x="180.856" y="-457.3" font-family="Times,serif" font-size="14.00">2:0 &#45; 2:0</text>
</g>
<!-- n1&#45;&gt;x4 -->
<g id="edge5" class="edge"><title>n1:e&#45;&gt;x4:s1:w</title>
<path fill="none" stroke="#1b9e77" stroke-width="3" d="M92.861,-434.5C121.039,-434.5 115.085,-473.124 134.996,-482.478"/>
<polygon fill="#1b9e77" stroke="#1b9e77" stroke-width="3" points="134.357,-485.92 144.856,-484.5 135.763,-479.062 134.357,-485.92"/>
</g>
<!-- x10 -->
<g id="node28" class="node"><title>x10</title>
<path fill="none" stroke="black" d="M157.856,-384.5C157.856,-384.5 203.856,-384.5 203.856,-384.5 209.856,-384.5 215.856,-390.5 215.856,-396.5 215.856,-396.5 215.856,-418.5 215.856,-418.5 215.856,-424.5 209.856,-430.5 203.856,-430.5 203.856,-430.5 157.856,-430.5 157.856,-430.5 151.856,-430.5 145.856,-424.5 145.856,-418.5 145.856,-418.5 145.856,-396.5 145.856,-396.5 145.856,-390.5 151.856,-384.5 157.856,-384.5"/>
<text text-anchor="middle" x="180.856" y="-415.3" font-family="Times,serif" font-size="14.00">7:0 &#45; 10:3</text>
<polyline fill="none" stroke="black" points="145.856,-407.5 215.856,-407.5 "/>
<text text-anchor="middle" x="180.856" y="-392.3" font-family="Times,serif" font-size="14.00">2:0 &#45; 2:0</text>
</g>
<!-- n1&#45;&gt;x10 -->
<g id="edge3" class="edge"><title>n1:e&#45;&gt;x10:s1:w</title>
<path fill="none" stroke="#1b9e77" stroke-width="3" d="M92.861,-434.5C112.967,-434.5 118.985,-424.018 134.468,-420.579"/>
<polygon fill="#1b9e77" stroke="#1b9e77" stroke-width="3" points="135.271,-424.014 144.856,-419.5 134.548,-417.052 135.271,-424.014"/>
</g>
<!-- n2 -->
<g id="node2" class="node"><title>n2</title>
<polygon fill="none" stroke="black" points="892.342,-88.5 862.177,-70.5 892.342,-52.5 922.508,-70.5 892.342,-88.5"/>
<text text-anchor="middle" x="892.342" y="-66.8" font-family="Times,serif" font-size="14.00">col</text>
</g>
<!-- c20 -->
<g id="node16" class="node"><title>c20</title>
<polygon fill="none" stroke="black" points="1094.44,-109.5 1094.44,-155.5 1203.44,-155.5 1203.44,-109.5 1094.44,-109.5"/>
<text text-anchor="middle" x="1116.44" y="-140.3" font-family="Times,serif" font-size="14.00">CLK</text>
<polyline fill="none" stroke="black" points="1094.44,-132.5 1138.44,-132.5 "/>
<text text-anchor="middle" x="1116.44" y="-117.3" font-family="Times,serif" font-size="14.00">D</text>
<polyline fill="none" stroke="black" points="1138.44,-109.5 1138.44,-155.5 "/>
<text text-anchor="middle" x="1157.94" y="-136.3" font-family="Times,serif" font-size="14.00">$41</text>
<text text-anchor="middle" x="1157.94" y="-121.3" font-family="Times,serif" font-size="14.00">$dff</text>
<polyline fill="none" stroke="black" points="1177.44,-109.5 1177.44,-155.5 "/>
<text text-anchor="middle" x="1190.44" y="-128.8" font-family="Times,serif" font-size="14.00">Q</text>
</g>
<!-- n2&#45;&gt;c20 -->
<g id="edge16" class="edge"><title>n2:e&#45;&gt;c20:p18:w</title>
<path fill="none" stroke="#d95f02" stroke-width="3" d="M923.342,-70.5C998.396,-70.5 1013.11,-116.109 1082.74,-120.206"/>
<polygon fill="#d95f02" stroke="#d95f02" stroke-width="3" points="1082.84,-123.711 1092.94,-120.5 1083.04,-116.714 1082.84,-123.711"/>
</g>
<!-- n3 -->
<g id="node3" class="node"><title>n3</title>
<polygon fill="none" stroke="black" points="1599.74,-166.044 1599.74,-180.956 1583.71,-191.5 1561.03,-191.5 1545,-180.956 1545,-166.044 1561.03,-155.5 1583.71,-155.5 1599.74,-166.044"/>
<text text-anchor="middle" x="1572.37" y="-169.8" font-family="Times,serif" font-size="14.00">data</text>
</g>
<!-- n4 -->
<g id="node4" class="node"><title>n4</title>
<polygon fill="none" stroke="black" points="502.852,-490.5 404.652,-472.5 502.852,-454.5 601.052,-472.5 502.852,-490.5"/>
<text text-anchor="middle" x="502.852" y="-468.8" font-family="Times,serif" font-size="14.00">i_fontRom_addr</text>
</g>
<!-- n5 -->
<g id="node5" class="node"><title>n5</title>
<polygon fill="none" stroke="black" points="502.852,-116.5 411.859,-98.5 502.852,-80.5 593.845,-98.5 502.852,-116.5"/>
<text text-anchor="middle" x="502.852" y="-94.8" font-family="Times,serif" font-size="14.00">i_fontRom_clk</text>
</g>
<!-- n6 -->
<g id="node6" class="node"><title>n6</title>
<polygon fill="none" stroke="black" points="892.342,-550.5 800.511,-532.5 892.342,-514.5 984.174,-532.5 892.342,-550.5"/>
<text text-anchor="middle" x="892.342" y="-528.8" font-family="Times,serif" font-size="14.00">i_fontRom_din</text>
</g>
<!-- n7 -->
<g id="node7" class="node"><title>n7</title>
<polygon fill="none" stroke="black" points="892.342,-604.5 772.861,-586.5 892.342,-568.5 1011.82,-586.5 892.342,-604.5"/>
<text text-anchor="middle" x="892.342" y="-582.8" font-family="Times,serif" font-size="14.00">i_fontRom_write_en</text>
</g>
<!-- n8 -->
<g id="node8" class="node"><title>n8</title>
<polygon fill="none" stroke="black" points="1148.94,-226.5 1047.73,-208.5 1148.94,-190.5 1250.15,-208.5 1148.94,-226.5"/>
<text text-anchor="middle" x="1148.94" y="-204.8" font-family="Times,serif" font-size="14.00">o_fontRom_dout</text>
</g>
<!-- c22 -->
<g id="node17" class="node"><title>c22</title>
<polygon fill="none" stroke="black" points="1402.93,-150.5 1402.93,-196.5 1508.93,-196.5 1508.93,-150.5 1402.93,-150.5"/>
<text text-anchor="middle" x="1415.93" y="-181.3" font-family="Times,serif" font-size="14.00">A</text>
<polyline fill="none" stroke="black" points="1402.93,-173.5 1428.93,-173.5 "/>
<text text-anchor="middle" x="1415.93" y="-158.3" font-family="Times,serif" font-size="14.00">B</text>
<polyline fill="none" stroke="black" points="1428.93,-150.5 1428.93,-196.5 "/>
<text text-anchor="middle" x="1455.93" y="-177.3" font-family="Times,serif" font-size="14.00">$3</text>
<text text-anchor="middle" x="1455.93" y="-162.3" font-family="Times,serif" font-size="14.00">$shiftx</text>
<polyline fill="none" stroke="black" points="1482.93,-150.5 1482.93,-196.5 "/>
<text text-anchor="middle" x="1495.93" y="-169.8" font-family="Times,serif" font-size="14.00">Y</text>
</g>
<!-- n8&#45;&gt;c22 -->
<g id="edge23" class="edge"><title>n8:e&#45;&gt;c22:p14:w</title>
<path fill="none" stroke="#d95f02" stroke-width="3" d="M1250.05,-208.5C1315.27,-208.5 1332.51,-187.777 1392.86,-185.672"/>
<polygon fill="#d95f02" stroke="#d95f02" stroke-width="3" points="1392.99,-189.17 1402.93,-185.5 1392.87,-182.171 1392.99,-189.17"/>
</g>
<!-- n9 -->
<g id="node9" class="node"><title>n9</title>
<polygon fill="none" stroke="black" points="80.8728,-35.0442 80.8728,-49.9558 60.697,-60.5 32.164,-60.5 11.9882,-49.9558 11.9882,-35.0442 32.164,-24.5 60.697,-24.5 80.8728,-35.0442"/>
<text text-anchor="middle" x="46.4305" y="-38.8" font-family="Times,serif" font-size="14.00">pos_x</text>
</g>
<!-- x0 -->
<g id="node15" class="node"><title>x0</title>
<path fill="none" stroke="black" d="M161.356,-24.5C161.356,-24.5 200.356,-24.5 200.356,-24.5 206.356,-24.5 212.356,-30.5 212.356,-36.5 212.356,-36.5 212.356,-48.5 212.356,-48.5 212.356,-54.5 206.356,-60.5 200.356,-60.5 200.356,-60.5 161.356,-60.5 161.356,-60.5 155.356,-60.5 149.356,-54.5 149.356,-48.5 149.356,-48.5 149.356,-36.5 149.356,-36.5 149.356,-30.5 155.356,-24.5 161.356,-24.5"/>
<text text-anchor="middle" x="180.856" y="-38.8" font-family="Times,serif" font-size="14.00">2:0 &#45; 2:0</text>
</g>
<!-- n9&#45;&gt;x0 -->
<g id="edge24" class="edge"><title>n9:e&#45;&gt;x0:s0:w</title>
<path fill="none" stroke="#d95f02" stroke-width="3" d="M82.4305,-42.5C107.76,-42.5 116.542,-42.5 137.605,-42.5"/>
<polygon fill="#d95f02" stroke="#d95f02" stroke-width="3" points="137.856,-46.0001 147.856,-42.5 137.856,-39.0001 137.856,-46.0001"/>
</g>
<!-- n10 -->
<g id="node10" class="node"><title>n10</title>
<polygon fill="none" stroke="black" points="80.8728,-373.044 80.8728,-387.956 60.697,-398.5 32.164,-398.5 11.9882,-387.956 11.9882,-373.044 32.164,-362.5 60.697,-362.5 80.8728,-373.044"/>
<text text-anchor="middle" x="46.4305" y="-376.8" font-family="Times,serif" font-size="14.00">pos_y</text>
</g>
<!-- n10&#45;&gt;x1 -->
<g id="edge7" class="edge"><title>n10:e&#45;&gt;x1:s0:w</title>
<path fill="none" stroke="#7570b3" stroke-width="3" d="M82.4305,-380.5C114.09,-380.5 110.676,-340.839 134.664,-332.164"/>
<polygon fill="#7570b3" stroke="#7570b3" stroke-width="3" points="135.551,-335.565 144.856,-330.5 134.423,-328.657 135.551,-335.565"/>
</g>
<!-- n10&#45;&gt;x4 -->
<g id="edge8" class="edge"><title>n10:e&#45;&gt;x4:s0:w</title>
<path fill="none" stroke="#7570b3" stroke-width="3" d="M82.4305,-380.5C123.654,-380.5 103.992,-447.341 134.751,-458.829"/>
<polygon fill="#7570b3" stroke="#7570b3" stroke-width="3" points="134.419,-462.322 144.856,-460.5 135.561,-455.415 134.419,-462.322"/>
</g>
<!-- n10&#45;&gt;x10 -->
<g id="edge6" class="edge"><title>n10:e&#45;&gt;x10:s0:w</title>
<path fill="none" stroke="#7570b3" stroke-width="3" d="M82.4305,-380.5C107.287,-380.5 114.556,-391.882 134.878,-394.817"/>
<polygon fill="#7570b3" stroke="#7570b3" stroke-width="3" points="134.641,-398.308 144.856,-395.5 135.119,-391.325 134.641,-398.308"/>
</g>
<!-- n11 -->
<g id="node11" class="node"><title>n11</title>
<polygon fill="none" stroke="black" points="83.5019,-137.044 83.5019,-151.956 61.786,-162.5 31.075,-162.5 9.35907,-151.956 9.35907,-137.044 31.075,-126.5 61.786,-126.5 83.5019,-137.044"/>
<text text-anchor="middle" x="46.4305" y="-140.8" font-family="Times,serif" font-size="14.00">px_clk</text>
</g>
<!-- n11&#45;&gt;c20 -->
<g id="edge9" class="edge"><title>n11:e&#45;&gt;c20:p17:w</title>
<path fill="none" stroke="#e7298a" d="M84.4305,-144.5C529.265,-144.5 642.998,-144.5 1082.82,-144.5"/>
<polygon fill="#e7298a" stroke="#e7298a" points="1082.94,-148 1092.94,-144.5 1082.94,-141 1082.94,-148"/>
</g>
<!-- c28 -->
<g id="node20" class="node"><title>c28</title>
<polygon fill="none" stroke="black" points="268.852,-210.5 268.852,-302.5 736.852,-302.5 736.852,-210.5 268.852,-210.5"/>
<text text-anchor="middle" x="300.852" y="-287.3" font-family="Times,serif" font-size="14.00">addr</text>
<polyline fill="none" stroke="black" points="268.852,-279.5 332.852,-279.5 "/>
<text text-anchor="middle" x="300.852" y="-264.3" font-family="Times,serif" font-size="14.00">clk</text>
<polyline fill="none" stroke="black" points="268.852,-256.5 332.852,-256.5 "/>
<text text-anchor="middle" x="300.852" y="-241.3" font-family="Times,serif" font-size="14.00">din</text>
<polyline fill="none" stroke="black" points="268.852,-233.5 332.852,-233.5 "/>
<text text-anchor="middle" x="300.852" y="-218.3" font-family="Times,serif" font-size="14.00">write_en</text>
<polyline fill="none" stroke="black" points="332.852,-210.5 332.852,-302.5 "/>
<text text-anchor="middle" x="514.352" y="-260.3" font-family="Times,serif" font-size="14.00">fontRom</text>
<text text-anchor="middle" x="514.352" y="-245.3" font-family="Times,serif" font-size="14.00">$paramod$c9f668743bd586cc495edc4da611555fc095ad83\ram</text>
<polyline fill="none" stroke="black" points="695.852,-210.5 695.852,-302.5 "/>
<text text-anchor="middle" x="716.352" y="-252.8" font-family="Times,serif" font-size="14.00">dout</text>
</g>
<!-- n11&#45;&gt;c28 -->
<g id="edge10" class="edge"><title>n11:e&#45;&gt;c28:p24:w</title>
<path fill="none" stroke="#e7298a" d="M84.4305,-144.5C144.229,-144.5 80.0924,-236.895 128.861,-271.5 176.74,-305.474 203.484,-272.679 258.605,-268.855"/>
<polygon fill="#e7298a" stroke="#e7298a" points="258.979,-272.344 268.852,-268.5 258.737,-265.348 258.979,-272.344"/>
</g>
<!-- x5 -->
<g id="node23" class="node"><title>x5</title>
<path fill="none" stroke="black" d="M195.856,-116.5C195.856,-116.5 165.856,-116.5 165.856,-116.5 159.856,-116.5 153.856,-110.5 153.856,-104.5 153.856,-104.5 153.856,-92.5 153.856,-92.5 153.856,-86.5 159.856,-80.5 165.856,-80.5 165.856,-80.5 195.856,-80.5 195.856,-80.5 201.856,-80.5 207.856,-86.5 207.856,-92.5 207.856,-92.5 207.856,-104.5 207.856,-104.5 207.856,-110.5 201.856,-116.5 195.856,-116.5"/>
<text text-anchor="middle" x="180.856" y="-94.8" font-family="Times,serif" font-size="14.00">BUF</text>
</g>
<!-- n11&#45;&gt;x5 -->
<g id="edge11" class="edge"><title>n11:e&#45;&gt;x5:w:w</title>
<path fill="none" stroke="#e7298a" d="M84.4305,-144.5C117.353,-144.5 116.771,-107.369 142.889,-99.8271"/>
<polygon fill="#e7298a" stroke="#e7298a" points="143.406,-103.289 152.856,-98.5 142.482,-96.3504 143.406,-103.289"/>
</g>
<!-- n12 -->
<g id="node12" class="node"><title>n12</title>
<polygon fill="none" stroke="black" points="1326.49,-165.5 1286.1,-147.5 1326.49,-129.5 1366.88,-147.5 1326.49,-165.5"/>
<text text-anchor="middle" x="1326.49" y="-143.8" font-family="Times,serif" font-size="14.00">r_col</text>
</g>
<!-- n12&#45;&gt;c22 -->
<g id="edge13" class="edge"><title>n12:e&#45;&gt;c22:p21:w</title>
<path fill="none" stroke="#e7298a" stroke-width="3" d="M1366.93,-147.5C1380.08,-147.5 1384.13,-155.707 1393.02,-159.553"/>
<polygon fill="#e7298a" stroke="#e7298a" stroke-width="3" points="1392.45,-163.008 1402.93,-161.5 1393.79,-156.139 1392.45,-163.008"/>
</g>
<!-- n13 -->
<g id="node13" class="node"><title>n13</title>
<polygon fill="none" stroke="black" points="502.852,-425.5 467.996,-407.5 502.852,-389.5 537.708,-407.5 502.852,-425.5"/>
<text text-anchor="middle" x="502.852" y="-403.8" font-family="Times,serif" font-size="14.00">row</text>
</g>
<!-- c16 -->
<g id="node14" class="node"><title>c16</title>
<polygon fill="none" stroke="black" points="456.352,-23.5 456.352,-61.5 549.352,-61.5 549.352,-23.5 456.352,-23.5"/>
<text text-anchor="middle" x="469.352" y="-38.8" font-family="Times,serif" font-size="14.00">A</text>
<polyline fill="none" stroke="black" points="482.352,-23.5 482.352,-61.5 "/>
<text text-anchor="middle" x="502.852" y="-46.3" font-family="Times,serif" font-size="14.00">$1</text>
<text text-anchor="middle" x="502.852" y="-31.3" font-family="Times,serif" font-size="14.00">$not</text>
<polyline fill="none" stroke="black" points="523.352,-23.5 523.352,-61.5 "/>
<text text-anchor="middle" x="536.352" y="-38.8" font-family="Times,serif" font-size="14.00">Y</text>
</g>
<!-- c16&#45;&gt;n2 -->
<g id="edge15" class="edge"><title>c16:p15:e&#45;&gt;n2:w</title>
<path fill="none" stroke="#d95f02" stroke-width="3" d="M550.852,-42.5C685.89,-42.5 721.024,-69.0962 850.988,-70.4468"/>
<polygon fill="#d95f02" stroke="#d95f02" stroke-width="3" points="851.324,-73.9484 861.342,-70.5 851.36,-66.9485 851.324,-73.9484"/>
</g>
<!-- x0&#45;&gt;c16 -->
<g id="edge1" class="edge"><title>x0:e&#45;&gt;c16:p14:w</title>
<path fill="none" stroke="#66a61e" stroke-width="3" d="M226.05,-42.5C319.291,-42.5 349.515,-42.5 442.836,-42.5"/>
<polygon fill="none" stroke="#66a61e" stroke-width="3" points="225.856,-42.5001 219.856,-46.5 213.856,-42.5 219.856,-38.5 225.856,-42.5001"/>
<polygon fill="none" stroke="#66a61e" stroke-width="3" points="442.852,-42.5001 448.852,-38.5 454.852,-42.5 448.852,-46.5 442.852,-42.5001"/>
</g>
<!-- c20&#45;&gt;n12 -->
<g id="edge12" class="edge"><title>c20:p19:e&#45;&gt;n12:w</title>
<path fill="none" stroke="#e7298a" stroke-width="3" d="M1204.94,-132.5C1237.88,-132.5 1247.51,-144.608 1275.71,-147.067"/>
<polygon fill="#e7298a" stroke="#e7298a" stroke-width="3" points="1275.91,-150.579 1286.05,-147.5 1276.2,-143.585 1275.91,-150.579"/>
</g>
<!-- c22&#45;&gt;n3 -->
<g id="edge17" class="edge"><title>c22:p15:e&#45;&gt;n3:w</title>
<path fill="none" stroke="#1b9e77" d="M1508.93,-173.5C1520.93,-173.5 1526.18,-173.5 1534.81,-173.5"/>
<polygon fill="#1b9e77" stroke="#1b9e77" points="1534.93,-177 1544.93,-173.5 1534.93,-170 1534.93,-177"/>
</g>
<!-- v2 -->
<g id="node18" class="node"><title>v2</title>
<ellipse fill="none" stroke="black" cx="180.856" cy="-244.5" rx="51.9908" ry="18"/>
<text text-anchor="middle" x="180.856" y="-240.8" font-family="Times,serif" font-size="14.00">8&#39;00000000</text>
</g>
<!-- v2&#45;&gt;c28 -->
<g id="edge25" class="edge"><title>v2:e&#45;&gt;c28:p25:w</title>
<path fill="none" stroke="#1b9e77" stroke-width="3" d="M232.852,-244.5C244.852,-244.5 250.102,-244.5 258.727,-244.5"/>
<polygon fill="#1b9e77" stroke="#1b9e77" stroke-width="3" points="258.852,-248 268.852,-244.5 258.852,-241 258.852,-248"/>
</g>
<!-- v3 -->
<g id="node19" class="node"><title>v3</title>
<ellipse fill="none" stroke="black" cx="180.856" cy="-190.5" rx="27" ry="18"/>
<text text-anchor="middle" x="180.856" y="-186.8" font-family="Times,serif" font-size="14.00">1&#39;0</text>
</g>
<!-- v3&#45;&gt;c28 -->
<g id="edge26" class="edge"><title>v3:e&#45;&gt;c28:p26:w</title>
<path fill="none" stroke="#1b9e77" d="M208.856,-190.5C235.118,-190.5 238.377,-214.234 258.888,-220.168"/>
<polygon fill="#1b9e77" stroke="#1b9e77" points="258.476,-223.644 268.852,-221.5 259.404,-216.706 258.476,-223.644"/>
</g>
<!-- c28&#45;&gt;n8 -->
<g id="edge22" class="edge"><title>c28:p27:e&#45;&gt;n8:w</title>
<path fill="none" stroke="#d95f02" stroke-width="3" d="M736.852,-256.5C873.288,-256.5 906.39,-210.815 1037.78,-208.584"/>
<polygon fill="#d95f02" stroke="#d95f02" stroke-width="3" points="1037.86,-212.084 1047.83,-208.5 1037.8,-205.084 1037.86,-212.084"/>
</g>
<!-- x1&#45;&gt;c28 -->
<g id="edge2" class="edge"><title>x1:e&#45;&gt;c28:p23:w</title>
<path fill="none" stroke="#1b9e77" stroke-width="3" d="M228.584,-339.462C243.229,-330.456 242.395,-303.951 256.838,-294.717"/>
<polygon fill="none" stroke="#1b9e77" stroke-width="3" points="228.473,-339.491 223.668,-344.868 216.856,-342.5 221.662,-337.123 228.473,-339.491"/>
<polygon fill="none" stroke="#1b9e77" stroke-width="3" points="257.26,-294.604 262.021,-289.188 268.852,-291.5 264.091,-296.916 257.26,-294.604"/>
</g>
<!-- x4&#45;&gt;n4 -->
<g id="edge18" class="edge"><title>x4:e&#45;&gt;n4:w</title>
<path fill="none" stroke="#1b9e77" stroke-width="3" d="M216.856,-472.5C296.394,-472.5 318.842,-472.5 393.474,-472.5"/>
<polygon fill="#1b9e77" stroke="#1b9e77" stroke-width="3" points="393.852,-476 403.852,-472.5 393.852,-469 393.852,-476"/>
</g>
<!-- x5&#45;&gt;n5 -->
<g id="edge19" class="edge"><title>x5:e:e&#45;&gt;n5:w</title>
<path fill="none" stroke="#e6ab02" d="M208.856,-98.5C295.125,-98.5 319.22,-98.5 400.631,-98.5"/>
<polygon fill="#e6ab02" stroke="#e6ab02" points="400.852,-102 410.852,-98.5 400.852,-95.0001 400.852,-102"/>
</g>
<!-- v6 -->
<g id="node24" class="node"><title>v6</title>
<ellipse fill="none" stroke="black" cx="180.856" cy="-532.5" rx="51.9908" ry="18"/>
<text text-anchor="middle" x="180.856" y="-528.8" font-family="Times,serif" font-size="14.00">8&#39;00000000</text>
</g>
<!-- x7 -->
<g id="node25" class="node"><title>x7</title>
<path fill="none" stroke="black" d="M517.852,-550.5C517.852,-550.5 487.852,-550.5 487.852,-550.5 481.852,-550.5 475.852,-544.5 475.852,-538.5 475.852,-538.5 475.852,-526.5 475.852,-526.5 475.852,-520.5 481.852,-514.5 487.852,-514.5 487.852,-514.5 517.852,-514.5 517.852,-514.5 523.852,-514.5 529.852,-520.5 529.852,-526.5 529.852,-526.5 529.852,-538.5 529.852,-538.5 529.852,-544.5 523.852,-550.5 517.852,-550.5"/>
<text text-anchor="middle" x="502.852" y="-528.8" font-family="Times,serif" font-size="14.00">BUF</text>
</g>
<!-- v6&#45;&gt;x7 -->
<g id="edge27" class="edge"><title>v6:e&#45;&gt;x7:w:w</title>
<path fill="none" stroke="#7570b3" stroke-width="3" d="M232.852,-532.5C336.941,-532.5 365.479,-532.5 464.699,-532.5"/>
<polygon fill="#7570b3" stroke="#7570b3" stroke-width="3" points="464.852,-536 474.852,-532.5 464.852,-529 464.852,-536"/>
</g>
<!-- x7&#45;&gt;n6 -->
<g id="edge20" class="edge"><title>x7:e:e&#45;&gt;n6:w</title>
<path fill="none" stroke="#e6ab02" stroke-width="3" d="M530.852,-532.5C646.685,-532.5 678.188,-532.5 789.08,-532.5"/>
<polygon fill="#e6ab02" stroke="#e6ab02" stroke-width="3" points="789.342,-536 799.342,-532.5 789.342,-529 789.342,-536"/>
</g>
<!-- v8 -->
<g id="node26" class="node"><title>v8</title>
<ellipse fill="none" stroke="black" cx="180.856" cy="-586.5" rx="27" ry="18"/>
<text text-anchor="middle" x="180.856" y="-582.8" font-family="Times,serif" font-size="14.00">1&#39;0</text>
</g>
<!-- x9 -->
<g id="node27" class="node"><title>x9</title>
<path fill="none" stroke="black" d="M517.852,-604.5C517.852,-604.5 487.852,-604.5 487.852,-604.5 481.852,-604.5 475.852,-598.5 475.852,-592.5 475.852,-592.5 475.852,-580.5 475.852,-580.5 475.852,-574.5 481.852,-568.5 487.852,-568.5 487.852,-568.5 517.852,-568.5 517.852,-568.5 523.852,-568.5 529.852,-574.5 529.852,-580.5 529.852,-580.5 529.852,-592.5 529.852,-592.5 529.852,-598.5 523.852,-604.5 517.852,-604.5"/>
<text text-anchor="middle" x="502.852" y="-582.8" font-family="Times,serif" font-size="14.00">BUF</text>
</g>
<!-- v8&#45;&gt;x9 -->
<g id="edge28" class="edge"><title>v8:e&#45;&gt;x9:w:w</title>
<path fill="none" stroke="#666666" d="M208.856,-586.5C323.613,-586.5 354.824,-586.5 464.685,-586.5"/>
<polygon fill="#666666" stroke="#666666" points="464.852,-590 474.852,-586.5 464.852,-583 464.852,-590"/>
</g>
<!-- x9&#45;&gt;n7 -->
<g id="edge21" class="edge"><title>x9:e:e&#45;&gt;n7:w</title>
<path fill="none" stroke="#d95f02" d="M530.852,-586.5C634.941,-586.5 663.479,-586.5 762.699,-586.5"/>
<polygon fill="#d95f02" stroke="#d95f02" points="762.852,-590 772.852,-586.5 762.852,-583 762.852,-590"/>
</g>
<!-- x10&#45;&gt;n13 -->
<g id="edge14" class="edge"><title>x10:e&#45;&gt;n13:w</title>
<path fill="none" stroke="#7570b3" stroke-width="3" d="M216.856,-407.5C324.493,-407.5 353.925,-407.5 456.674,-407.5"/>
<polygon fill="#7570b3" stroke="#7570b3" stroke-width="3" points="456.852,-411 466.852,-407.5 456.852,-404 456.852,-411"/>
</g>
</g>
</svg>
