<svg xmlns="http://www.w3.org/2000/svg" xmlns:xlink="http://www.w3.org/1999/xlink" xmlns:s="https://github.com/nturley/netlistsvg" width="590" height="338.5">
  <style>svg {
    stroke:#000;
    fill:none;
  }
  text {
    fill:#000;
    stroke:none;
    font-size:10px;
    font-weight: bold;
    font-family: "Courier New", monospace;
  }
  .nodelabel {
    text-anchor: middle;
  }
  .inputPortLabel {
    text-anchor: end;
  }
  .splitjoinBody {
    fill:#000;
  }</style>
  <g s:type="not" transform="translate(169,284)" s:width="30" s:height="20" id="cell_$not$font.v:22$9">
    <s:alias val="$_NOT_"/>
    <s:alias val="$not"/>
    <path d="M0,0 L0,20 L20,10 Z" class="cell_$not$font.v:22$9"/>
    <circle cx="23" cy="10" r="3" class="cell_$not$font.v:22$9"/>
    <g s:x="0" s:y="10" s:pid="A"/>
    <g s:x="25" s:y="10" s:pid="Y"/>
  </g>
  <g s:type="dff" transform="translate(293.3333333333333,144)" s:width="30" s:height="40" id="cell_$procdff$27">
    <s:alias val="$dff"/>
    <s:alias val="$_DFF_"/>
    <rect width="30" height="40" x="0" y="0" class="cell_$procdff$27"/>
    <path d="M0,35 L5,30 L0,25" class="cell_$procdff$27"/>
    <g s:x="30" s:y="10" s:pid="Q"/>
    <g s:x="0" s:y="30" s:pid="CLK"/>
    <g s:x="0" s:y="10" s:pid="D"/>
  </g>
  <g s:type="generic" transform="translate(399,24)" s:width="30" s:height="40" id="cell_$shiftx$font.v:0$11">
    <text x="15" y="-4" class="nodelabel cell_$shiftx$font.v:0$11" s:attribute="ref">$shiftx</text>
    <rect width="30" height="40" s:generic="body" class="cell_$shiftx$font.v:0$11"/>
    <g transform="translate(0,10)" s:x="0" s:y="10" s:pid="in0" id="port_$shiftx$font.v:0$11~A">
      <text x="-3" y="-4" class="inputPortLabel cell_$shiftx$font.v:0$11">A</text>
    </g>
    <g transform="translate(0,30)" s:x="0" s:y="10" s:pid="in0" id="port_$shiftx$font.v:0$11~B">
      <text x="-3" y="-4" class="inputPortLabel cell_$shiftx$font.v:0$11">B</text>
    </g>
    <g transform="translate(30,10)" s:x="30" s:y="10" s:pid="out0" id="port_$shiftx$font.v:0$11~Y">
      <text x="5" y="-4" style="fill:#000; stroke:none" class="cell_$shiftx$font.v:0$11">Y</text>
    </g>
  </g>
  <g s:type="generic" transform="translate(301,24)" s:width="30" s:height="40" id="cell_fontRom">
    <text x="15" y="-4" class="nodelabel cell_fontRom" s:attribute="ref">$paramod$c9f668743bd586cc495edc4da611555fc095ad83\ram</text>
    <rect width="30" height="80" s:generic="body" class="cell_fontRom"/>
    <g transform="translate(0,10)" s:x="0" s:y="10" s:pid="in0" id="port_fontRom~addr">
      <text x="-3" y="-4" class="inputPortLabel cell_fontRom">addr</text>
    </g>
    <g transform="translate(0,30)" s:x="0" s:y="10" s:pid="in0" id="port_fontRom~clk">
      <text x="-3" y="-4" class="inputPortLabel cell_fontRom">clk</text>
    </g>
    <g transform="translate(0,50)" s:x="0" s:y="10" s:pid="in0" id="port_fontRom~din">
      <text x="-3" y="-4" class="inputPortLabel cell_fontRom">din</text>
    </g>
    <g transform="translate(0,70)" s:x="0" s:y="10" s:pid="in0" id="port_fontRom~write_en">
      <text x="-3" y="-4" class="inputPortLabel cell_fontRom">write_en</text>
    </g>
    <g transform="translate(30,10)" s:x="30" s:y="10" s:pid="out0" id="port_fontRom~dout">
      <text x="5" y="-4" style="fill:#000; stroke:none" class="cell_fontRom">dout</text>
    </g>
  </g>
  <g s:type="inputExt" transform="translate(166,164)" s:width="30" s:height="20" id="cell_px_clk">
    <text x="15" y="-4" class="nodelabel cell_px_clk" s:attribute="ref">px_clk</text>
    <s:alias val="$_inputExt_"/>
    <path d="M0,0 L0,20 L15,20 L30,10 L15,0 Z" class="cell_px_clk"/>
    <g s:x="28" s:y="10" s:pid="Y"/>
  </g>
  <g s:type="inputExt" transform="translate(12,306.5)" s:width="30" s:height="20" id="cell_pos_x">
    <text x="15" y="-4" class="nodelabel cell_pos_x" s:attribute="ref">pos_x</text>
    <s:alias val="$_inputExt_"/>
    <path d="M0,0 L0,20 L15,20 L30,10 L15,0 Z" class="cell_pos_x"/>
    <g s:x="28" s:y="10" s:pid="Y"/>
  </g>
  <g s:type="inputExt" transform="translate(12,37)" s:width="30" s:height="20" id="cell_pos_y">
    <text x="15" y="-4" class="nodelabel cell_pos_y" s:attribute="ref">pos_y</text>
    <s:alias val="$_inputExt_"/>
    <path d="M0,0 L0,20 L15,20 L30,10 L15,0 Z" class="cell_pos_y"/>
    <g s:x="28" s:y="10" s:pid="Y"/>
  </g>
  <g s:type="inputExt" transform="translate(77,67)" s:width="30" s:height="20" id="cell_character">
    <text x="15" y="-4" class="nodelabel cell_character" s:attribute="ref">character</text>
    <s:alias val="$_inputExt_"/>
    <path d="M0,0 L0,20 L15,20 L30,10 L15,0 Z" class="cell_character"/>
    <g s:x="28" s:y="10" s:pid="Y"/>
  </g>
  <g s:type="outputExt" transform="translate(548,24.5)" s:width="30" s:height="20" id="cell_data">
    <text x="15" y="-4" class="nodelabel cell_data" s:attribute="ref">data</text>
    <s:alias val="$_outputExt_"/>
    <path d="M30,0 L30,20 L15,20 L0,10 L15,0 Z" class="cell_data"/>
    <g s:x="0" s:y="10" s:pid="A"/>
  </g>
  <g s:type="constant" transform="translate(166,99)" s:width="30" s:height="20" id="cell_00000000">
    <text x="15" y="-4" class="nodelabel cell_00000000" s:attribute="ref">0x0</text>
    <s:alias val="$_constant_"/>
    <rect width="30" height="20" class="cell_00000000"/>
    <g s:x="30" s:y="10" s:pid="Y"/>
  </g>
  <g s:type="constant" transform="translate(166,229)" s:width="30" s:height="20" id="cell_0">
    <text x="15" y="-4" class="nodelabel cell_0" s:attribute="ref">0</text>
    <s:alias val="$_constant_"/>
    <rect width="30" height="20" class="cell_0"/>
    <g s:x="30" s:y="10" s:pid="Y"/>
  </g>
  <g s:type="join" transform="translate(185,14)" s:width="4" s:height="40" id="cell_$join$,13,14,15,23,24,25,26,27,28,29,30,">
    <rect width="5" height="40" class="splitjoinBody" s:generic="body"/>
    <s:alias val="$_join_"/>
    <g s:x="5" s:y="20" s:pid="out"/>
    <g transform="translate(0,10)" s:x="0" s:y="10" s:pid="in0">
      <text x="-3" y="-4" class="inputPortLabel">0:2</text>
    </g>
    <g transform="translate(0,30)" s:x="0" s:y="10" s:pid="in0">
      <text x="-3" y="-4" class="inputPortLabel">3:10</text>
    </g>
  </g>
  <g s:type="split" transform="translate(102,283.5)" s:width="5" s:height="40" id="cell_$split$,3,4,5,6,7,8,9,10,11,12,">
    <rect width="5" height="20" class="splitjoinBody" s:generic="body"/>
    <s:alias val="$_split_"/>
    <g s:x="0" s:y="20" s:pid="in"/>
    <g transform="translate(4,10)" s:x="4" s:y="10" s:pid="out0">
      <text x="5" y="-4">0:2</text>
    </g>
  </g>
  <g s:type="split" transform="translate(102,14)" s:width="5" s:height="40" id="cell_$split$,13,14,15,16,17,18,19,20,21,22,">
    <rect width="5" height="20" class="splitjoinBody" s:generic="body"/>
    <s:alias val="$_split_"/>
    <g s:x="0" s:y="20" s:pid="in"/>
    <g transform="translate(4,10)" s:x="4" s:y="10" s:pid="out0">
      <text x="5" y="-4">0:2</text>
    </g>
  </g>
  <line x1="107" x2="169" y1="294" y2="294" class="net_3,4,5"/>
  <line x1="194" x2="293.3333333333333" y1="174" y2="174" class="net_2"/>
  <line x1="194" x2="222" y1="174" y2="174" class="net_2"/>
  <line x1="222" x2="222" y1="174" y2="54.5" class="net_2"/>
  <circle cx="222" cy="174" r="2" style="fill:#000" class="net_2"/>
  <line x1="222" x2="301" y1="54.5" y2="54.5" class="net_2"/>
  <line x1="194" x2="242" y1="294" y2="294" class="net_32,33,34"/>
  <line x1="242" x2="242" y1="294" y2="154" class="net_32,33,34"/>
  <line x1="242" x2="293.3333333333333" y1="154" y2="154" class="net_32,33,34"/>
  <line x1="332" x2="399" y1="34.5" y2="34.5" class="net_38,39,40,41,42,43,44,45"/>
  <line x1="323.3333333333333" x2="367" y1="154" y2="154" class="net_35,36,37"/>
  <line x1="367" x2="367" y1="154" y2="54.5" class="net_35,36,37"/>
  <line x1="367" x2="399" y1="54.5" y2="54.5" class="net_35,36,37"/>
  <line x1="191" x2="301" y1="34.5" y2="34.5" class="net_13,14,15,23,24,25,26,27,28,29,30"/>
  <line x1="196" x2="212" y1="109" y2="109" class="net_46,47,48,49,50,51,52,53"/>
  <line x1="212" x2="212" y1="109" y2="74.5" class="net_46,47,48,49,50,51,52,53"/>
  <line x1="212" x2="301" y1="74.5" y2="74.5" class="net_46,47,48,49,50,51,52,53"/>
  <line x1="196" x2="232" y1="239" y2="239" class="net_54"/>
  <line x1="232" x2="232" y1="239" y2="94.5" class="net_54"/>
  <line x1="232" x2="301" y1="94.5" y2="94.5" class="net_54"/>
  <line x1="430" x2="548" y1="34.5" y2="34.5" class="net_31"/>
  <line x1="107" x2="185" y1="24.5" y2="24.5" class="net_13,14,15"/>
  <line x1="105" x2="141" y1="77" y2="77" class="net_23,24,25,26,27,28,29,30"/>
  <line x1="141" x2="141" y1="77" y2="44.5" class="net_23,24,25,26,27,28,29,30"/>
  <line x1="141" x2="185" y1="44.5" y2="44.5" class="net_23,24,25,26,27,28,29,30"/>
  <line x1="40" x2="102.5" y1="316.5" y2="316.5" class="net_3,4,5,6,7,8,9,10,11,12"/>
  <line x1="102.5" x2="102.5" y1="316.5" y2="304.5" class="net_3,4,5,6,7,8,9,10,11,12"/>
  <line x1="40" x2="102.5" y1="47" y2="47" class="net_13,14,15,16,17,18,19,20,21,22"/>
  <line x1="102.5" x2="102.5" y1="47" y2="35" class="net_13,14,15,16,17,18,19,20,21,22"/>
</svg>
