<svg xmlns="http://www.w3.org/2000/svg" xmlns:xlink="http://www.w3.org/1999/xlink" xmlns:s="https://github.com/nturley/netlistsvg" width="831" height="1196.5">
  <style>svg {
    stroke:#000;
    fill:none;
  }
  text {
    fill:#000;
    stroke:none;
    font-size:10px;
    font-weight: bold;
    font-family: "Courier New", monospace;
  }
  .nodelabel {
    text-anchor: middle;
  }
  .inputPortLabel {
    text-anchor: end;
  }
  .splitjoinBody {
    fill:#000;
  }</style>
  <g s:type="eq" transform="translate(235.33333333333334,385.5)" s:width="25" s:height="25" id="cell_$procmux$10_CMP0">
    <s:alias val="$eq"/>
    <circle r="12.5" cx="12.5" cy="12.5" class="cell_$procmux$10_CMP0"/>
    <line x1="7.5" x2="17.5" y1="10" y2="10" class="cell_$procmux$10_CMP0"/>
    <line x1="7.5" x2="17.5" y1="15" y2="15" class="cell_$procmux$10_CMP0"/>
    <g s:x="3" s:y="5" s:pid="A"/>
    <g s:x="3" s:y="20" s:pid="B"/>
    <g s:x="25" s:y="12.5" s:pid="Y"/>
  </g>
  <g s:type="eq" transform="translate(235.33333333333334,450.5)" s:width="25" s:height="25" id="cell_$procmux$11_CMP0">
    <s:alias val="$eq"/>
    <circle r="12.5" cx="12.5" cy="12.5" class="cell_$procmux$11_CMP0"/>
    <line x1="7.5" x2="17.5" y1="10" y2="10" class="cell_$procmux$11_CMP0"/>
    <line x1="7.5" x2="17.5" y1="15" y2="15" class="cell_$procmux$11_CMP0"/>
    <g s:x="3" s:y="5" s:pid="A"/>
    <g s:x="3" s:y="20" s:pid="B"/>
    <g s:x="25" s:y="12.5" s:pid="Y"/>
  </g>
  <g s:type="eq" transform="translate(235.33333333333334,620)" s:width="25" s:height="25" id="cell_$procmux$12_CMP0">
    <s:alias val="$eq"/>
    <circle r="12.5" cx="12.5" cy="12.5" class="cell_$procmux$12_CMP0"/>
    <line x1="7.5" x2="17.5" y1="10" y2="10" class="cell_$procmux$12_CMP0"/>
    <line x1="7.5" x2="17.5" y1="15" y2="15" class="cell_$procmux$12_CMP0"/>
    <g s:x="3" s:y="5" s:pid="A"/>
    <g s:x="3" s:y="20" s:pid="B"/>
    <g s:x="25" s:y="12.5" s:pid="Y"/>
  </g>
  <g s:type="eq" transform="translate(235.33333333333334,685)" s:width="25" s:height="25" id="cell_$procmux$13_CMP0">
    <s:alias val="$eq"/>
    <circle r="12.5" cx="12.5" cy="12.5" class="cell_$procmux$13_CMP0"/>
    <line x1="7.5" x2="17.5" y1="10" y2="10" class="cell_$procmux$13_CMP0"/>
    <line x1="7.5" x2="17.5" y1="15" y2="15" class="cell_$procmux$13_CMP0"/>
    <g s:x="3" s:y="5" s:pid="A"/>
    <g s:x="3" s:y="20" s:pid="B"/>
    <g s:x="25" s:y="12.5" s:pid="Y"/>
  </g>
  <g s:type="eq" transform="translate(235.33333333333334,750)" s:width="25" s:height="25" id="cell_$procmux$14_CMP0">
    <s:alias val="$eq"/>
    <circle r="12.5" cx="12.5" cy="12.5" class="cell_$procmux$14_CMP0"/>
    <line x1="7.5" x2="17.5" y1="10" y2="10" class="cell_$procmux$14_CMP0"/>
    <line x1="7.5" x2="17.5" y1="15" y2="15" class="cell_$procmux$14_CMP0"/>
    <g s:x="3" s:y="5" s:pid="A"/>
    <g s:x="3" s:y="20" s:pid="B"/>
    <g s:x="25" s:y="12.5" s:pid="Y"/>
  </g>
  <g s:type="eq" transform="translate(235.33333333333334,815)" s:width="25" s:height="25" id="cell_$procmux$15_CMP0">
    <s:alias val="$eq"/>
    <circle r="12.5" cx="12.5" cy="12.5" class="cell_$procmux$15_CMP0"/>
    <line x1="7.5" x2="17.5" y1="10" y2="10" class="cell_$procmux$15_CMP0"/>
    <line x1="7.5" x2="17.5" y1="15" y2="15" class="cell_$procmux$15_CMP0"/>
    <g s:x="3" s:y="5" s:pid="A"/>
    <g s:x="3" s:y="20" s:pid="B"/>
    <g s:x="25" s:y="12.5" s:pid="Y"/>
  </g>
  <g s:type="eq" transform="translate(235.33333333333334,880)" s:width="25" s:height="25" id="cell_$procmux$16_CMP0">
    <s:alias val="$eq"/>
    <circle r="12.5" cx="12.5" cy="12.5" class="cell_$procmux$16_CMP0"/>
    <line x1="7.5" x2="17.5" y1="10" y2="10" class="cell_$procmux$16_CMP0"/>
    <line x1="7.5" x2="17.5" y1="15" y2="15" class="cell_$procmux$16_CMP0"/>
    <g s:x="3" s:y="5" s:pid="A"/>
    <g s:x="3" s:y="20" s:pid="B"/>
    <g s:x="25" s:y="12.5" s:pid="Y"/>
  </g>
  <g s:type="eq" transform="translate(235.33333333333334,945)" s:width="25" s:height="25" id="cell_$procmux$17_CMP0">
    <s:alias val="$eq"/>
    <circle r="12.5" cx="12.5" cy="12.5" class="cell_$procmux$17_CMP0"/>
    <line x1="7.5" x2="17.5" y1="10" y2="10" class="cell_$procmux$17_CMP0"/>
    <line x1="7.5" x2="17.5" y1="15" y2="15" class="cell_$procmux$17_CMP0"/>
    <g s:x="3" s:y="5" s:pid="A"/>
    <g s:x="3" s:y="20" s:pid="B"/>
    <g s:x="25" s:y="12.5" s:pid="Y"/>
  </g>
  <g s:type="eq" transform="translate(235.33333333333334,1010)" s:width="25" s:height="25" id="cell_$procmux$18_CMP0">
    <s:alias val="$eq"/>
    <circle r="12.5" cx="12.5" cy="12.5" class="cell_$procmux$18_CMP0"/>
    <line x1="7.5" x2="17.5" y1="10" y2="10" class="cell_$procmux$18_CMP0"/>
    <line x1="7.5" x2="17.5" y1="15" y2="15" class="cell_$procmux$18_CMP0"/>
    <g s:x="3" s:y="5" s:pid="A"/>
    <g s:x="3" s:y="20" s:pid="B"/>
    <g s:x="25" s:y="12.5" s:pid="Y"/>
  </g>
  <g s:type="eq" transform="translate(235.33333333333334,1154.5)" s:width="25" s:height="25" id="cell_$procmux$19_CMP0">
    <s:alias val="$eq"/>
    <circle r="12.5" cx="12.5" cy="12.5" class="cell_$procmux$19_CMP0"/>
    <line x1="7.5" x2="17.5" y1="10" y2="10" class="cell_$procmux$19_CMP0"/>
    <line x1="7.5" x2="17.5" y1="15" y2="15" class="cell_$procmux$19_CMP0"/>
    <g s:x="3" s:y="5" s:pid="A"/>
    <g s:x="3" s:y="20" s:pid="B"/>
    <g s:x="25" s:y="12.5" s:pid="Y"/>
  </g>
  <g s:type="generic" transform="translate(214,1080)" s:width="30" s:height="40" id="cell_$procmux$20_CMP0">
    <text x="15" y="-4" class="nodelabel cell_$procmux$20_CMP0" s:attribute="ref">$logic_not</text>
    <rect width="30" height="20" s:generic="body" class="cell_$procmux$20_CMP0"/>
    <g transform="translate(0,10)" s:x="0" s:y="10" s:pid="in0" id="port_$procmux$20_CMP0~A">
      <text x="-3" y="-4" class="inputPortLabel cell_$procmux$20_CMP0">A</text>
    </g>
    <g transform="translate(30,10)" s:x="30" s:y="10" s:pid="out0" id="port_$procmux$20_CMP0~Y">
      <text x="5" y="-4" style="fill:#000; stroke:none" class="cell_$procmux$20_CMP0">Y</text>
    </g>
  </g>
  <g s:type="mux" transform="translate(734,13)" s:width="20" s:height="40" id="cell_$procmux$24">
    <s:alias val="$pmux"/>
    <s:alias val="$mux"/>
    <s:alias val="$_MUX_"/>
    <path d="M0,0 L20,10 L20,30 L0,40 Z" class="cell_$procmux$24"/>
    <g s:x="0" s:y="10" s:pid="A"/>
    <g s:x="0" s:y="30" s:pid="B"/>
    <g s:x="10" s:y="35" s:pid="S"/>
    <g s:x="20" s:y="20" s:pid="Y"/>
  </g>
  <g s:type="mux" transform="translate(674,23)" s:width="20" s:height="40" id="cell_$procmux$4">
    <s:alias val="$pmux"/>
    <s:alias val="$mux"/>
    <s:alias val="$_MUX_"/>
    <path d="M0,0 L20,10 L20,30 L0,40 Z" class="cell_$procmux$4"/>
    <g s:x="0" s:y="10" s:pid="A"/>
    <g s:x="0" s:y="30" s:pid="B"/>
    <g s:x="10" s:y="35" s:pid="S"/>
    <g s:x="20" s:y="20" s:pid="Y"/>
  </g>
  <g s:type="eq" transform="translate(235.33333333333334,125.5)" s:width="25" s:height="25" id="cell_$procmux$5_CMP0">
    <s:alias val="$eq"/>
    <circle r="12.5" cx="12.5" cy="12.5" class="cell_$procmux$5_CMP0"/>
    <line x1="7.5" x2="17.5" y1="10" y2="10" class="cell_$procmux$5_CMP0"/>
    <line x1="7.5" x2="17.5" y1="15" y2="15" class="cell_$procmux$5_CMP0"/>
    <g s:x="3" s:y="5" s:pid="A"/>
    <g s:x="3" s:y="20" s:pid="B"/>
    <g s:x="25" s:y="12.5" s:pid="Y"/>
  </g>
  <g s:type="eq" transform="translate(235.33333333333334,60.5)" s:width="25" s:height="25" id="cell_$procmux$6_CMP0">
    <s:alias val="$eq"/>
    <circle r="12.5" cx="12.5" cy="12.5" class="cell_$procmux$6_CMP0"/>
    <line x1="7.5" x2="17.5" y1="10" y2="10" class="cell_$procmux$6_CMP0"/>
    <line x1="7.5" x2="17.5" y1="15" y2="15" class="cell_$procmux$6_CMP0"/>
    <g s:x="3" s:y="5" s:pid="A"/>
    <g s:x="3" s:y="20" s:pid="B"/>
    <g s:x="25" s:y="12.5" s:pid="Y"/>
  </g>
  <g s:type="eq" transform="translate(235.33333333333334,190.5)" s:width="25" s:height="25" id="cell_$procmux$7_CMP0">
    <s:alias val="$eq"/>
    <circle r="12.5" cx="12.5" cy="12.5" class="cell_$procmux$7_CMP0"/>
    <line x1="7.5" x2="17.5" y1="10" y2="10" class="cell_$procmux$7_CMP0"/>
    <line x1="7.5" x2="17.5" y1="15" y2="15" class="cell_$procmux$7_CMP0"/>
    <g s:x="3" s:y="5" s:pid="A"/>
    <g s:x="3" s:y="20" s:pid="B"/>
    <g s:x="25" s:y="12.5" s:pid="Y"/>
  </g>
  <g s:type="eq" transform="translate(235.33333333333334,255.5)" s:width="25" s:height="25" id="cell_$procmux$8_CMP0">
    <s:alias val="$eq"/>
    <circle r="12.5" cx="12.5" cy="12.5" class="cell_$procmux$8_CMP0"/>
    <line x1="7.5" x2="17.5" y1="10" y2="10" class="cell_$procmux$8_CMP0"/>
    <line x1="7.5" x2="17.5" y1="15" y2="15" class="cell_$procmux$8_CMP0"/>
    <g s:x="3" s:y="5" s:pid="A"/>
    <g s:x="3" s:y="20" s:pid="B"/>
    <g s:x="25" s:y="12.5" s:pid="Y"/>
  </g>
  <g s:type="eq" transform="translate(235.33333333333334,320.5)" s:width="25" s:height="25" id="cell_$procmux$9_CMP0">
    <s:alias val="$eq"/>
    <circle r="12.5" cx="12.5" cy="12.5" class="cell_$procmux$9_CMP0"/>
    <line x1="7.5" x2="17.5" y1="10" y2="10" class="cell_$procmux$9_CMP0"/>
    <line x1="7.5" x2="17.5" y1="15" y2="15" class="cell_$procmux$9_CMP0"/>
    <g s:x="3" s:y="5" s:pid="A"/>
    <g s:x="3" s:y="20" s:pid="B"/>
    <g s:x="25" s:y="12.5" s:pid="Y"/>
  </g>
  <g s:type="mux" transform="translate(145.33333333333334,515.5)" s:width="20" s:height="40" id="cell_$ternary$hex2asc.v:20$2">
    <s:alias val="$pmux"/>
    <s:alias val="$mux"/>
    <s:alias val="$_MUX_"/>
    <path d="M0,0 L20,10 L20,30 L0,40 Z" class="cell_$ternary$hex2asc.v:20$2"/>
    <g s:x="0" s:y="10" s:pid="A"/>
    <g s:x="0" s:y="30" s:pid="B"/>
    <g s:x="10" s:y="35" s:pid="S"/>
    <g s:x="20" s:y="20" s:pid="Y"/>
  </g>
  <g s:type="inputExt" transform="translate(12,525.5)" s:width="30" s:height="20" id="cell_din">
    <text x="15" y="-4" class="nodelabel cell_din" s:attribute="ref">din</text>
    <s:alias val="$_inputExt_"/>
    <path d="M0,0 L0,20 L15,20 L30,10 L15,0 Z" class="cell_din"/>
    <g s:x="28" s:y="10" s:pid="Y"/>
  </g>
  <g s:type="inputExt" transform="translate(669,792.5)" s:width="30" s:height="20" id="cell_h2a">
    <text x="15" y="-4" class="nodelabel cell_h2a" s:attribute="ref">h2a</text>
    <s:alias val="$_inputExt_"/>
    <path d="M0,0 L0,20 L15,20 L30,10 L15,0 Z" class="cell_h2a"/>
    <g s:x="28" s:y="10" s:pid="Y"/>
  </g>
  <g s:type="inputExt" transform="translate(77,600)" s:width="30" s:height="20" id="cell_nb">
    <text x="15" y="-4" class="nodelabel cell_nb" s:attribute="ref">nb</text>
    <s:alias val="$_inputExt_"/>
    <path d="M0,0 L0,20 L15,20 L30,10 L15,0 Z" class="cell_nb"/>
    <g s:x="28" s:y="10" s:pid="Y"/>
  </g>
  <g s:type="outputExt" transform="translate(789,23)" s:width="30" s:height="20" id="cell_dout">
    <text x="15" y="-4" class="nodelabel cell_dout" s:attribute="ref">dout</text>
    <s:alias val="$_outputExt_"/>
    <path d="M30,0 L30,20 L15,20 L0,10 L15,0 Z" class="cell_dout"/>
    <g s:x="0" s:y="10" s:pid="A"/>
  </g>
  <g s:type="constant" transform="translate(142,395.5)" s:width="30" s:height="20" id="cell_1010">
    <text x="15" y="-4" class="nodelabel cell_1010" s:attribute="ref">0xa</text>
    <s:alias val="$_constant_"/>
    <rect width="30" height="20" class="cell_1010"/>
    <g s:x="30" s:y="10" s:pid="Y"/>
  </g>
  <g s:type="constant" transform="translate(142,460.5)" s:width="30" s:height="20" id="cell_1001">
    <text x="15" y="-4" class="nodelabel cell_1001" s:attribute="ref">0x9</text>
    <s:alias val="$_constant_"/>
    <rect width="30" height="20" class="cell_1001"/>
    <g s:x="30" s:y="10" s:pid="Y"/>
  </g>
  <g s:type="constant" transform="translate(142,630)" s:width="30" s:height="20" id="cell_1000">
    <text x="15" y="-4" class="nodelabel cell_1000" s:attribute="ref">0x8</text>
    <s:alias val="$_constant_"/>
    <rect width="30" height="20" class="cell_1000"/>
    <g s:x="30" s:y="10" s:pid="Y"/>
  </g>
  <g s:type="constant" transform="translate(142,695)" s:width="30" s:height="20" id="cell_111">
    <text x="15" y="-4" class="nodelabel cell_111" s:attribute="ref">111</text>
    <s:alias val="$_constant_"/>
    <rect width="30" height="20" class="cell_111"/>
    <g s:x="30" s:y="10" s:pid="Y"/>
  </g>
  <g s:type="constant" transform="translate(142,760)" s:width="30" s:height="20" id="cell_110">
    <text x="15" y="-4" class="nodelabel cell_110" s:attribute="ref">110</text>
    <s:alias val="$_constant_"/>
    <rect width="30" height="20" class="cell_110"/>
    <g s:x="30" s:y="10" s:pid="Y"/>
  </g>
  <g s:type="constant" transform="translate(142,825)" s:width="30" s:height="20" id="cell_101">
    <text x="15" y="-4" class="nodelabel cell_101" s:attribute="ref">101</text>
    <s:alias val="$_constant_"/>
    <rect width="30" height="20" class="cell_101"/>
    <g s:x="30" s:y="10" s:pid="Y"/>
  </g>
  <g s:type="constant" transform="translate(142,890)" s:width="30" s:height="20" id="cell_100">
    <text x="15" y="-4" class="nodelabel cell_100" s:attribute="ref">100</text>
    <s:alias val="$_constant_"/>
    <rect width="30" height="20" class="cell_100"/>
    <g s:x="30" s:y="10" s:pid="Y"/>
  </g>
  <g s:type="constant" transform="translate(142,955)" s:width="30" s:height="20" id="cell_11">
    <text x="15" y="-4" class="nodelabel cell_11" s:attribute="ref">11</text>
    <s:alias val="$_constant_"/>
    <rect width="30" height="20" class="cell_11"/>
    <g s:x="30" s:y="10" s:pid="Y"/>
  </g>
  <g s:type="constant" transform="translate(142,1020)" s:width="30" s:height="20" id="cell_10">
    <text x="15" y="-4" class="nodelabel cell_10" s:attribute="ref">10</text>
    <s:alias val="$_constant_"/>
    <rect width="30" height="20" class="cell_10"/>
    <g s:x="30" s:y="10" s:pid="Y"/>
  </g>
  <g s:type="constant" transform="translate(142,1164.5)" s:width="30" s:height="20" id="cell_1">
    <text x="15" y="-4" class="nodelabel cell_1" s:attribute="ref">1</text>
    <s:alias val="$_constant_"/>
    <rect width="30" height="20" class="cell_1"/>
    <g s:x="30" s:y="10" s:pid="Y"/>
  </g>
  <g s:type="constant" transform="translate(430,43)" s:width="30" s:height="20" id="cell_00110000001100010011001000110011001101000011010100110110001101110011100000111001010000010100001001000011010001000100010101000110">
    <text x="15" y="-4" class="nodelabel cell_00110000001100010011001000110011001101000011010100110110001101110011100000111001010000010100001001000011010001000100010101000110" s:attribute="ref">0x30313233343536000000000000000000</text>
    <s:alias val="$_constant_"/>
    <rect width="30" height="20" class="cell_00110000001100010011001000110011001101000011010100110110001101110011100000111001010000010100001001000011010001000100010101000110"/>
    <g s:x="30" s:y="10" s:pid="Y"/>
  </g>
  <g s:type="constant" transform="translate(142,135.5)" s:width="30" s:height="20" id="cell_1111">
    <text x="15" y="-4" class="nodelabel cell_1111" s:attribute="ref">0xf</text>
    <s:alias val="$_constant_"/>
    <rect width="30" height="20" class="cell_1111"/>
    <g s:x="30" s:y="10" s:pid="Y"/>
  </g>
  <g s:type="constant" transform="translate(142,70.5)" s:width="30" s:height="20" id="cell_1110">
    <text x="15" y="-4" class="nodelabel cell_1110" s:attribute="ref">0xe</text>
    <s:alias val="$_constant_"/>
    <rect width="30" height="20" class="cell_1110"/>
    <g s:x="30" s:y="10" s:pid="Y"/>
  </g>
  <g s:type="constant" transform="translate(142,200.5)" s:width="30" s:height="20" id="cell_1101">
    <text x="15" y="-4" class="nodelabel cell_1101" s:attribute="ref">0xd</text>
    <s:alias val="$_constant_"/>
    <rect width="30" height="20" class="cell_1101"/>
    <g s:x="30" s:y="10" s:pid="Y"/>
  </g>
  <g s:type="constant" transform="translate(142,265.5)" s:width="30" s:height="20" id="cell_1100">
    <text x="15" y="-4" class="nodelabel cell_1100" s:attribute="ref">0xc</text>
    <s:alias val="$_constant_"/>
    <rect width="30" height="20" class="cell_1100"/>
    <g s:x="30" s:y="10" s:pid="Y"/>
  </g>
  <g s:type="constant" transform="translate(142,330.5)" s:width="30" s:height="20" id="cell_1011">
    <text x="15" y="-4" class="nodelabel cell_1011" s:attribute="ref">0xb</text>
    <s:alias val="$_constant_"/>
    <rect width="30" height="20" class="cell_1011"/>
    <g s:x="30" s:y="10" s:pid="Y"/>
  </g>
  <g s:type="join" transform="translate(451.3076923076923,752)" s:width="4" s:height="40" id="cell_$join$,43,44,45,46,47,24,25,26,27,28,29,30,31,32,33,34,">
    <rect width="5" height="320" class="splitjoinBody" s:generic="body"/>
    <s:alias val="$_join_"/>
    <g s:x="5" s:y="20" s:pid="out"/>
    <g transform="translate(0,10)" s:x="0" s:y="10" s:pid="in0">
      <text x="-3" y="-4" class="inputPortLabel">0</text>
    </g>
    <g transform="translate(0,30)" s:x="0" s:y="10" s:pid="in0">
      <text x="-3" y="-4" class="inputPortLabel">1</text>
    </g>
    <g transform="translate(0,50)" s:x="0" s:y="10" s:pid="in0">
      <text x="-3" y="-4" class="inputPortLabel">2</text>
    </g>
    <g transform="translate(0,70)" s:x="0" s:y="10" s:pid="in0">
      <text x="-3" y="-4" class="inputPortLabel">3</text>
    </g>
    <g transform="translate(0,90)" s:x="0" s:y="10" s:pid="in0">
      <text x="-3" y="-4" class="inputPortLabel">4</text>
    </g>
    <g transform="translate(0,110)" s:x="0" s:y="10" s:pid="in0">
      <text x="-3" y="-4" class="inputPortLabel">5</text>
    </g>
    <g transform="translate(0,130)" s:x="0" s:y="10" s:pid="in0">
      <text x="-3" y="-4" class="inputPortLabel">6</text>
    </g>
    <g transform="translate(0,150)" s:x="0" s:y="10" s:pid="in0">
      <text x="-3" y="-4" class="inputPortLabel">7</text>
    </g>
    <g transform="translate(0,170)" s:x="0" s:y="10" s:pid="in0">
      <text x="-3" y="-4" class="inputPortLabel">8</text>
    </g>
    <g transform="translate(0,190)" s:x="0" s:y="10" s:pid="in0">
      <text x="-3" y="-4" class="inputPortLabel">9</text>
    </g>
    <g transform="translate(0,210)" s:x="0" s:y="10" s:pid="in0">
      <text x="-3" y="-4" class="inputPortLabel">10</text>
    </g>
    <g transform="translate(0,230)" s:x="0" s:y="10" s:pid="in0">
      <text x="-3" y="-4" class="inputPortLabel">11</text>
    </g>
    <g transform="translate(0,250)" s:x="0" s:y="10" s:pid="in0">
      <text x="-3" y="-4" class="inputPortLabel">12</text>
    </g>
    <g transform="translate(0,270)" s:x="0" s:y="10" s:pid="in0">
      <text x="-3" y="-4" class="inputPortLabel">13</text>
    </g>
    <g transform="translate(0,290)" s:x="0" s:y="10" s:pid="in0">
      <text x="-3" y="-4" class="inputPortLabel">14</text>
    </g>
    <g transform="translate(0,310)" s:x="0" s:y="10" s:pid="in0">
      <text x="-3" y="-4" class="inputPortLabel">15</text>
    </g>
  </g>
  <g s:type="split" transform="translate(83,515)" s:width="5" s:height="40" id="cell_$split$,2,3,4,5,6,7,8,9,">
    <rect width="5" height="40" class="splitjoinBody" s:generic="body"/>
    <s:alias val="$_split_"/>
    <g s:x="0" s:y="20" s:pid="in"/>
    <g transform="translate(4,10)" s:x="4" s:y="10" s:pid="out0">
      <text x="5" y="-4">4:7</text>
    </g>
    <g transform="translate(4,30)" s:x="4" s:y="10" s:pid="out0">
      <text x="5" y="-4">0:3</text>
    </g>
  </g>
  <line x1="165.33333333333334" x2="182" y1="535.5" y2="535.5" class="net_20,21,22,23"/>
  <line x1="182" x2="182" y1="535.5" y2="390.5" class="net_20,21,22,23"/>
  <circle cx="182" cy="535.5" r="2" style="fill:#000" class="net_20,21,22,23"/>
  <circle cx="182" cy="390.5" r="2" style="fill:#000" class="net_20,21,22,23"/>
  <line x1="182" x2="238.33333333333334" y1="390.5" y2="390.5" class="net_20,21,22,23"/>
  <line x1="165.33333333333334" x2="182" y1="535.5" y2="535.5" class="net_20,21,22,23"/>
  <line x1="182" x2="182" y1="535.5" y2="455.5" class="net_20,21,22,23"/>
  <circle cx="182" cy="455.5" r="2" style="fill:#000" class="net_20,21,22,23"/>
  <line x1="182" x2="238.33333333333334" y1="455.5" y2="455.5" class="net_20,21,22,23"/>
  <line x1="165.33333333333334" x2="182" y1="535.5" y2="535.5" class="net_20,21,22,23"/>
  <line x1="182" x2="182" y1="535.5" y2="625" class="net_20,21,22,23"/>
  <circle cx="182" cy="625" r="2" style="fill:#000" class="net_20,21,22,23"/>
  <line x1="182" x2="238.33333333333334" y1="625" y2="625" class="net_20,21,22,23"/>
  <line x1="165.33333333333334" x2="182" y1="535.5" y2="535.5" class="net_20,21,22,23"/>
  <line x1="182" x2="182" y1="535.5" y2="690" class="net_20,21,22,23"/>
  <circle cx="182" cy="690" r="2" style="fill:#000" class="net_20,21,22,23"/>
  <line x1="182" x2="238.33333333333334" y1="690" y2="690" class="net_20,21,22,23"/>
  <line x1="165.33333333333334" x2="182" y1="535.5" y2="535.5" class="net_20,21,22,23"/>
  <line x1="182" x2="182" y1="535.5" y2="755" class="net_20,21,22,23"/>
  <circle cx="182" cy="755" r="2" style="fill:#000" class="net_20,21,22,23"/>
  <line x1="182" x2="238.33333333333334" y1="755" y2="755" class="net_20,21,22,23"/>
  <line x1="165.33333333333334" x2="182" y1="535.5" y2="535.5" class="net_20,21,22,23"/>
  <line x1="182" x2="182" y1="535.5" y2="820" class="net_20,21,22,23"/>
  <circle cx="182" cy="820" r="2" style="fill:#000" class="net_20,21,22,23"/>
  <line x1="182" x2="238.33333333333334" y1="820" y2="820" class="net_20,21,22,23"/>
  <line x1="165.33333333333334" x2="182" y1="535.5" y2="535.5" class="net_20,21,22,23"/>
  <line x1="182" x2="182" y1="535.5" y2="885" class="net_20,21,22,23"/>
  <circle cx="182" cy="885" r="2" style="fill:#000" class="net_20,21,22,23"/>
  <line x1="182" x2="238.33333333333334" y1="885" y2="885" class="net_20,21,22,23"/>
  <line x1="165.33333333333334" x2="182" y1="535.5" y2="535.5" class="net_20,21,22,23"/>
  <line x1="182" x2="182" y1="535.5" y2="950" class="net_20,21,22,23"/>
  <circle cx="182" cy="950" r="2" style="fill:#000" class="net_20,21,22,23"/>
  <line x1="182" x2="238.33333333333334" y1="950" y2="950" class="net_20,21,22,23"/>
  <line x1="165.33333333333334" x2="182" y1="535.5" y2="535.5" class="net_20,21,22,23"/>
  <line x1="182" x2="182" y1="535.5" y2="1015" class="net_20,21,22,23"/>
  <circle cx="182" cy="1015" r="2" style="fill:#000" class="net_20,21,22,23"/>
  <line x1="182" x2="238.33333333333334" y1="1015" y2="1015" class="net_20,21,22,23"/>
  <line x1="165.33333333333334" x2="182" y1="535.5" y2="535.5" class="net_20,21,22,23"/>
  <line x1="182" x2="182" y1="535.5" y2="1159.5" class="net_20,21,22,23"/>
  <line x1="182" x2="238.33333333333334" y1="1159.5" y2="1159.5" class="net_20,21,22,23"/>
  <line x1="165.33333333333334" x2="182" y1="535.5" y2="535.5" class="net_20,21,22,23"/>
  <line x1="182" x2="182" y1="535.5" y2="1090.5" class="net_20,21,22,23"/>
  <circle cx="182" cy="1090.5" r="2" style="fill:#000" class="net_20,21,22,23"/>
  <line x1="182" x2="214" y1="1090.5" y2="1090.5" class="net_20,21,22,23"/>
  <line x1="165.33333333333334" x2="182" y1="535.5" y2="535.5" class="net_20,21,22,23"/>
  <line x1="182" x2="182" y1="535.5" y2="130.5" class="net_20,21,22,23"/>
  <circle cx="182" cy="130.5" r="2" style="fill:#000" class="net_20,21,22,23"/>
  <line x1="182" x2="238.33333333333334" y1="130.5" y2="130.5" class="net_20,21,22,23"/>
  <line x1="165.33333333333334" x2="182" y1="535.5" y2="535.5" class="net_20,21,22,23"/>
  <line x1="182" x2="182" y1="535.5" y2="65.5" class="net_20,21,22,23"/>
  <line x1="182" x2="238.33333333333334" y1="65.5" y2="65.5" class="net_20,21,22,23"/>
  <line x1="165.33333333333334" x2="182" y1="535.5" y2="535.5" class="net_20,21,22,23"/>
  <line x1="182" x2="182" y1="535.5" y2="195.5" class="net_20,21,22,23"/>
  <circle cx="182" cy="195.5" r="2" style="fill:#000" class="net_20,21,22,23"/>
  <line x1="182" x2="238.33333333333334" y1="195.5" y2="195.5" class="net_20,21,22,23"/>
  <line x1="165.33333333333334" x2="182" y1="535.5" y2="535.5" class="net_20,21,22,23"/>
  <line x1="182" x2="182" y1="535.5" y2="260.5" class="net_20,21,22,23"/>
  <circle cx="182" cy="260.5" r="2" style="fill:#000" class="net_20,21,22,23"/>
  <line x1="182" x2="238.33333333333334" y1="260.5" y2="260.5" class="net_20,21,22,23"/>
  <line x1="165.33333333333334" x2="182" y1="535.5" y2="535.5" class="net_20,21,22,23"/>
  <line x1="182" x2="182" y1="535.5" y2="325.5" class="net_20,21,22,23"/>
  <circle cx="182" cy="325.5" r="2" style="fill:#000" class="net_20,21,22,23"/>
  <line x1="182" x2="238.33333333333334" y1="325.5" y2="325.5" class="net_20,21,22,23"/>
  <line x1="172" x2="238.33333333333334" y1="405.5" y2="405.5" class="net_48,49,50,51"/>
  <line x1="172" x2="238.33333333333334" y1="470.5" y2="470.5" class="net_52,53,54,55"/>
  <line x1="172" x2="238.33333333333334" y1="640" y2="640" class="net_56,57,58,59"/>
  <line x1="172" x2="238.33333333333334" y1="705" y2="705" class="net_60,61,62"/>
  <line x1="172" x2="238.33333333333334" y1="770" y2="770" class="net_63,64,65"/>
  <line x1="172" x2="238.33333333333334" y1="835" y2="835" class="net_66,67,68"/>
  <line x1="172" x2="238.33333333333334" y1="900" y2="900" class="net_69,70,71"/>
  <line x1="172" x2="238.33333333333334" y1="965" y2="965" class="net_72,73"/>
  <line x1="172" x2="238.33333333333334" y1="1030" y2="1030" class="net_74,75"/>
  <line x1="172" x2="238.33333333333334" y1="1174.5" y2="1174.5" class="net_76"/>
  <line x1="40" x2="52" y1="535.5" y2="535.5" class="net_2,3,4,5,6,7,8,9"/>
  <line x1="52" x2="52" y1="535.5" y2="12" class="net_2,3,4,5,6,7,8,9"/>
  <line x1="52" x2="709" y1="12" y2="12" class="net_2,3,4,5,6,7,8,9"/>
  <line x1="709" x2="709" y1="12" y2="23" class="net_2,3,4,5,6,7,8,9"/>
  <circle cx="52" cy="535.5" r="2" style="fill:#000" class="net_2,3,4,5,6,7,8,9"/>
  <line x1="709" x2="734" y1="23" y2="23" class="net_2,3,4,5,6,7,8,9"/>
  <line x1="40" x2="83" y1="535.5" y2="535.5" class="net_2,3,4,5,6,7,8,9"/>
  <line x1="694" x2="734" y1="43" y2="43" class="net_35,36,37,38,39,40,41,42"/>
  <line x1="697" x2="744" y1="802.5" y2="802.5" class="net_10"/>
  <line x1="744" x2="744" y1="802.5" y2="48" class="net_10"/>
  <line x1="460" x2="674" y1="53" y2="53" class="net_77,78,79,80,81,82,83,84,85,86,87,88,89,90,91,92,93,94,95,96,97,98,99,100,101,102,103,104,105,106,107,108,109,110,111,112,113,114,115,116,117,118,119,120,121,122,123,124,125,126,127,128,129,130,131,132,133,134,135,136,137,138,139,140,141,142,143,144,145,146,147,148,149,150,151,152,153,154,155,156,157,158,159,160,161,162,163,164,165,166,167,168,169,170,171,172,173,174,175,176,177,178,179,180,181,182,183,184,185,186,187,188,189,190,191,192,193,194,195,196,197,198,199,200,201,202,203,204"/>
  <line x1="457.3076923076923" x2="684" y1="772.5" y2="772.5" class="net_43,44,45,46,47,24,25,26,27,28,29,30,31,32,33,34"/>
  <line x1="684" x2="684" y1="772.5" y2="58" class="net_43,44,45,46,47,24,25,26,27,28,29,30,31,32,33,34"/>
  <line x1="172" x2="238.33333333333334" y1="145.5" y2="145.5" class="net_205,206,207,208"/>
  <line x1="172" x2="238.33333333333334" y1="80.5" y2="80.5" class="net_209,210,211,212"/>
  <line x1="172" x2="238.33333333333334" y1="210.5" y2="210.5" class="net_213,214,215,216"/>
  <line x1="172" x2="238.33333333333334" y1="275.5" y2="275.5" class="net_217,218,219,220"/>
  <line x1="172" x2="238.33333333333334" y1="340.5" y2="340.5" class="net_221,222,223,224"/>
  <line x1="88" x2="145.33333333333334" y1="525.5" y2="525.5" class="net_6,7,8,9"/>
  <line x1="88" x2="145.33333333333334" y1="545.5" y2="545.5" class="net_2,3,4,5"/>
  <line x1="105" x2="155.33333333333334" y1="610" y2="610" class="net_11"/>
  <line x1="155.33333333333334" x2="155.33333333333334" y1="610" y2="550.5" class="net_11"/>
  <line x1="754" x2="789" y1="33" y2="33" class="net_12,13,14,15,16,17,18,19"/>
  <line x1="260.33333333333337" x2="451.8076923076923" y1="138" y2="138" class="net_43"/>
  <line x1="451.8076923076923" x2="451.8076923076923" y1="138" y2="762" class="net_43"/>
  <line x1="260.33333333333337" x2="451.8076923076923" y1="73" y2="73" class="net_44"/>
  <line x1="451.8076923076923" x2="451.8076923076923" y1="73" y2="782" class="net_44"/>
  <line x1="260.33333333333337" x2="420" y1="203" y2="203" class="net_45"/>
  <line x1="420" x2="420" y1="203" y2="802.5" class="net_45"/>
  <line x1="420" x2="451.3076923076923" y1="802.5" y2="802.5" class="net_45"/>
  <line x1="260.33333333333337" x2="410" y1="268" y2="268" class="net_46"/>
  <line x1="410" x2="410" y1="268" y2="822.5" class="net_46"/>
  <line x1="410" x2="451.3076923076923" y1="822.5" y2="822.5" class="net_46"/>
  <line x1="260.33333333333337" x2="400" y1="333" y2="333" class="net_47"/>
  <line x1="400" x2="400" y1="333" y2="842.5" class="net_47"/>
  <line x1="400" x2="451.3076923076923" y1="842.5" y2="842.5" class="net_47"/>
  <line x1="260.33333333333337" x2="390" y1="398" y2="398" class="net_24"/>
  <line x1="390" x2="390" y1="398" y2="862.5" class="net_24"/>
  <line x1="390" x2="451.3076923076923" y1="862.5" y2="862.5" class="net_24"/>
  <line x1="260.33333333333337" x2="380" y1="463" y2="463" class="net_25"/>
  <line x1="380" x2="380" y1="463" y2="882.5" class="net_25"/>
  <line x1="380" x2="451.3076923076923" y1="882.5" y2="882.5" class="net_25"/>
  <line x1="260.33333333333337" x2="370" y1="632.5" y2="632.5" class="net_26"/>
  <line x1="370" x2="370" y1="632.5" y2="902.5" class="net_26"/>
  <line x1="370" x2="451.3076923076923" y1="902.5" y2="902.5" class="net_26"/>
  <line x1="260.33333333333337" x2="360" y1="697.5" y2="697.5" class="net_27"/>
  <line x1="360" x2="360" y1="697.5" y2="922.5" class="net_27"/>
  <line x1="360" x2="451.3076923076923" y1="922.5" y2="922.5" class="net_27"/>
  <line x1="260.33333333333337" x2="350" y1="762.5" y2="762.5" class="net_28"/>
  <line x1="350" x2="350" y1="762.5" y2="942.5" class="net_28"/>
  <line x1="350" x2="451.3076923076923" y1="942.5" y2="942.5" class="net_28"/>
  <line x1="260.33333333333337" x2="340" y1="827.5" y2="827.5" class="net_29"/>
  <line x1="340" x2="340" y1="827.5" y2="962.5" class="net_29"/>
  <line x1="340" x2="451.3076923076923" y1="962.5" y2="962.5" class="net_29"/>
  <line x1="260.33333333333337" x2="330" y1="892.5" y2="892.5" class="net_30"/>
  <line x1="330" x2="330" y1="892.5" y2="982.5" class="net_30"/>
  <line x1="330" x2="451.3076923076923" y1="982.5" y2="982.5" class="net_30"/>
  <line x1="260.33333333333337" x2="320" y1="957.5" y2="957.5" class="net_31"/>
  <line x1="320" x2="320" y1="957.5" y2="1002.5" class="net_31"/>
  <line x1="320" x2="451.3076923076923" y1="1002.5" y2="1002.5" class="net_31"/>
  <line x1="260.33333333333337" x2="451.3076923076923" y1="1022.5" y2="1022.5" class="net_32"/>
  <line x1="260.33333333333337" x2="451.8076923076923" y1="1167" y2="1167" class="net_33"/>
  <line x1="451.8076923076923" x2="451.8076923076923" y1="1167" y2="1043" class="net_33"/>
  <line x1="245" x2="451.8076923076923" y1="1090.5" y2="1090.5" class="net_34"/>
  <line x1="451.8076923076923" x2="451.8076923076923" y1="1090.5" y2="1063" class="net_34"/>
</svg>
