<svg xmlns="http://www.w3.org/2000/svg" xmlns:xlink="http://www.w3.org/1999/xlink" xmlns:s="https://github.com/nturley/netlistsvg" width="513" height="432">
  <style>svg {
    stroke:#000;
    fill:none;
  }
  text {
    fill:#000;
    stroke:none;
    font-size:10px;
    font-weight: bold;
    font-family: "Courier New", monospace;
  }
  .nodelabel {
    text-anchor: middle;
  }
  .inputPortLabel {
    text-anchor: end;
  }
  .splitjoinBody {
    fill:#000;
  }</style>
  <g s:type="dff" transform="translate(406,28)" s:width="30" s:height="40" id="cell_$procdff$15">
    <s:alias val="$dff"/>
    <s:alias val="$_DFF_"/>
    <rect width="30" height="40" x="0" y="0" class="cell_$procdff$15"/>
    <path d="M0,35 L5,30 L0,25" class="cell_$procdff$15"/>
    <g s:x="30" s:y="10" s:pid="Q"/>
    <g s:x="0" s:y="30" s:pid="CLK"/>
    <g s:x="0" s:y="10" s:pid="D"/>
  </g>
  <g s:type="mux" transform="translate(187.33333333333334,138)" s:width="20" s:height="40" id="cell_$procmux$11">
    <s:alias val="$pmux"/>
    <s:alias val="$mux"/>
    <s:alias val="$_MUX_"/>
    <path d="M0,0 L20,10 L20,30 L0,40 Z" class="cell_$procmux$11"/>
    <g s:x="0" s:y="10" s:pid="A"/>
    <g s:x="0" s:y="30" s:pid="B"/>
    <g s:x="10" s:y="35" s:pid="S"/>
    <g s:x="20" s:y="20" s:pid="Y"/>
  </g>
  <g s:type="mux" transform="translate(187.33333333333334,78)" s:width="20" s:height="40" id="cell_$procmux$13">
    <s:alias val="$pmux"/>
    <s:alias val="$mux"/>
    <s:alias val="$_MUX_"/>
    <path d="M0,0 L20,10 L20,30 L0,40 Z" class="cell_$procmux$13"/>
    <g s:x="0" s:y="10" s:pid="A"/>
    <g s:x="0" s:y="30" s:pid="B"/>
    <g s:x="10" s:y="35" s:pid="S"/>
    <g s:x="20" s:y="20" s:pid="Y"/>
  </g>
  <g s:type="mux" transform="translate(122.33333333333333,218)" s:width="20" s:height="40" id="cell_$procmux$9">
    <s:alias val="$pmux"/>
    <s:alias val="$mux"/>
    <s:alias val="$_MUX_"/>
    <path d="M0,0 L20,10 L20,30 L0,40 Z" class="cell_$procmux$9"/>
    <g s:x="0" s:y="10" s:pid="A"/>
    <g s:x="0" s:y="30" s:pid="B"/>
    <g s:x="10" s:y="35" s:pid="S"/>
    <g s:x="20" s:y="20" s:pid="Y"/>
  </g>
  <g s:type="generic" transform="translate(297,27.5)" s:width="30" s:height="40" id="cell_mem">
    <text x="15" y="-4" class="nodelabel cell_mem" s:attribute="ref">$mem</text>
    <rect width="30" height="140" s:generic="body" class="cell_mem"/>
    <g transform="translate(0,10)" s:x="0" s:y="10" s:pid="in0" id="port_mem~RD_ADDR">
      <text x="-3" y="-4" class="inputPortLabel cell_mem">RD_ADDR</text>
    </g>
    <g transform="translate(0,30)" s:x="0" s:y="10" s:pid="in0" id="port_mem~RD_CLK">
      <text x="-3" y="-4" class="inputPortLabel cell_mem">RD_CLK</text>
    </g>
    <g transform="translate(0,50)" s:x="0" s:y="10" s:pid="in0" id="port_mem~RD_EN">
      <text x="-3" y="-4" class="inputPortLabel cell_mem">RD_EN</text>
    </g>
    <g transform="translate(0,70)" s:x="0" s:y="10" s:pid="in0" id="port_mem~WR_ADDR">
      <text x="-3" y="-4" class="inputPortLabel cell_mem">WR_ADDR</text>
    </g>
    <g transform="translate(0,90)" s:x="0" s:y="10" s:pid="in0" id="port_mem~WR_CLK">
      <text x="-3" y="-4" class="inputPortLabel cell_mem">WR_CLK</text>
    </g>
    <g transform="translate(0,110)" s:x="0" s:y="10" s:pid="in0" id="port_mem~WR_DATA">
      <text x="-3" y="-4" class="inputPortLabel cell_mem">WR_DATA</text>
    </g>
    <g transform="translate(0,130)" s:x="0" s:y="10" s:pid="in0" id="port_mem~WR_EN">
      <text x="-3" y="-4" class="inputPortLabel cell_mem">WR_EN</text>
    </g>
    <g transform="translate(30,10)" s:x="30" s:y="10" s:pid="out0" id="port_mem~RD_DATA">
      <text x="5" y="-4" style="fill:#000; stroke:none" class="cell_mem">RD_DATA</text>
    </g>
  </g>
  <g s:type="inputExt" transform="translate(184,208)" s:width="30" s:height="20" id="cell_clk">
    <text x="15" y="-4" class="nodelabel cell_clk" s:attribute="ref">clk</text>
    <s:alias val="$_inputExt_"/>
    <path d="M0,0 L0,20 L15,20 L30,10 L15,0 Z" class="cell_clk"/>
    <g s:x="28" s:y="10" s:pid="Y"/>
  </g>
  <g s:type="inputExt" transform="translate(119,22)" s:width="30" s:height="20" id="cell_addr">
    <text x="15" y="-4" class="nodelabel cell_addr" s:attribute="ref">addr</text>
    <s:alias val="$_inputExt_"/>
    <path d="M0,0 L0,20 L15,20 L30,10 L15,0 Z" class="cell_addr"/>
    <g s:x="28" s:y="10" s:pid="Y"/>
  </g>
  <g s:type="inputExt" transform="translate(36,118)" s:width="30" s:height="20" id="cell_write_en">
    <text x="15" y="-4" class="nodelabel cell_write_en" s:attribute="ref">write_en</text>
    <s:alias val="$_inputExt_"/>
    <path d="M0,0 L0,20 L15,20 L30,10 L15,0 Z" class="cell_write_en"/>
    <g s:x="28" s:y="10" s:pid="Y"/>
  </g>
  <g s:type="inputExt" transform="translate(119,158)" s:width="30" s:height="20" id="cell_din">
    <text x="15" y="-4" class="nodelabel cell_din" s:attribute="ref">din</text>
    <s:alias val="$_inputExt_"/>
    <path d="M0,0 L0,20 L15,20 L30,10 L15,0 Z" class="cell_din"/>
    <g s:x="28" s:y="10" s:pid="Y"/>
  </g>
  <g s:type="outputExt" transform="translate(471,28)" s:width="30" s:height="20" id="cell_dout">
    <text x="15" y="-4" class="nodelabel cell_dout" s:attribute="ref">dout</text>
    <s:alias val="$_outputExt_"/>
    <path d="M30,0 L30,20 L15,20 L0,10 L15,0 Z" class="cell_dout"/>
    <g s:x="0" s:y="10" s:pid="A"/>
  </g>
  <g s:type="constant" transform="translate(36,218)" s:width="30" s:height="20" id="cell_0">
    <text x="15" y="-4" class="nodelabel cell_0" s:attribute="ref">0</text>
    <s:alias val="$_constant_"/>
    <rect width="30" height="20" class="cell_0"/>
    <g s:x="30" s:y="10" s:pid="Y"/>
  </g>
  <g s:type="constant" transform="translate(36,283)" s:width="30" s:height="20" id="cell_1">
    <text x="15" y="-4" class="nodelabel cell_1" s:attribute="ref">1</text>
    <s:alias val="$_constant_"/>
    <rect width="30" height="20" class="cell_1"/>
    <g s:x="30" s:y="10" s:pid="Y"/>
  </g>
  <g s:type="join" transform="translate(187.71428571428572,250)" s:width="4" s:height="40" id="cell_$join$,52,52,52,52,52,52,52,52,">
    <rect width="5" height="160" class="splitjoinBody" s:generic="body"/>
    <s:alias val="$_join_"/>
    <g s:x="5" s:y="20" s:pid="out"/>
    <g transform="translate(0,10)" s:x="0" s:y="10" s:pid="in0">
      <text x="-3" y="-4" class="inputPortLabel">0</text>
    </g>
    <g transform="translate(0,30)" s:x="0" s:y="10" s:pid="in0">
      <text x="-3" y="-4" class="inputPortLabel">1</text>
    </g>
    <g transform="translate(0,50)" s:x="0" s:y="10" s:pid="in0">
      <text x="-3" y="-4" class="inputPortLabel">2</text>
    </g>
    <g transform="translate(0,70)" s:x="0" s:y="10" s:pid="in0">
      <text x="-3" y="-4" class="inputPortLabel">3</text>
    </g>
    <g transform="translate(0,90)" s:x="0" s:y="10" s:pid="in0">
      <text x="-3" y="-4" class="inputPortLabel">4</text>
    </g>
    <g transform="translate(0,110)" s:x="0" s:y="10" s:pid="in0">
      <text x="-3" y="-4" class="inputPortLabel">5</text>
    </g>
    <g transform="translate(0,130)" s:x="0" s:y="10" s:pid="in0">
      <text x="-3" y="-4" class="inputPortLabel">6</text>
    </g>
    <g transform="translate(0,150)" s:x="0" s:y="10" s:pid="in0">
      <text x="-3" y="-4" class="inputPortLabel">7</text>
    </g>
  </g>
  <g s:type="split" transform="translate(12,12)" s:width="5" s:height="40" id="cell_$split$,x,x,x,x,x,x,x,x,">
    <rect width="5" height="20" class="splitjoinBody" s:generic="body"/>
    <s:alias val="$_split_"/>
    <g s:x="0" s:y="20" s:pid="in"/>
    <g transform="translate(4,10)" s:x="4" s:y="10" s:pid="out0">
      <text x="5" y="-4">0</text>
    </g>
  </g>
  <line x1="212" x2="381" y1="218" y2="218" class="net_2"/>
  <line x1="381" x2="381" y1="218" y2="58" class="net_2"/>
  <line x1="381" x2="406" y1="58" y2="58" class="net_2"/>
  <line x1="212" x2="234" y1="218" y2="218" class="net_2"/>
  <line x1="234" x2="234" y1="218" y2="118" class="net_2"/>
  <circle cx="234" cy="218" r="2" style="fill:#000" class="net_2"/>
  <line x1="234" x2="297" y1="118" y2="118" class="net_2"/>
  <line x1="328" x2="406" y1="38" y2="38" class="net_28,29,30,31,32,33,34,35"/>
  <line x1="159" x2="159" y1="88" y2="148" class="net_x,x,x,x,x,x,x,x"/>
  <line x1="159" x2="187.33333333333334" y1="148" y2="148" class="net_x,x,x,x,x,x,x,x"/>
  <line x1="159" x2="187.33333333333334" y1="88" y2="88" class="net_x,x,x,x,x,x,x,x"/>
  <line x1="147" x2="187.33333333333334" y1="168" y2="168" class="net_12,13,14,15,16,17,18,19"/>
  <line x1="64" x2="104" y1="128" y2="128" class="net_11"/>
  <line x1="104" x2="104" y1="128" y2="188" class="net_11"/>
  <line x1="104" x2="197.33333333333334" y1="188" y2="188" class="net_11"/>
  <circle cx="104" cy="128" r="2" style="fill:#000" class="net_11"/>
  <circle cx="104" cy="188" r="2" style="fill:#000" class="net_11"/>
  <line x1="197.33333333333334" x2="197.33333333333334" y1="188" y2="173" class="net_11"/>
  <line x1="64" x2="197.33333333333334" y1="128" y2="128" class="net_11"/>
  <line x1="197.33333333333334" x2="197.33333333333334" y1="128" y2="113" class="net_11"/>
  <line x1="64" x2="104" y1="128" y2="128" class="net_11"/>
  <line x1="104" x2="104" y1="128" y2="268" class="net_11"/>
  <line x1="104" x2="132.33333333333331" y1="268" y2="268" class="net_11"/>
  <line x1="132.33333333333331" x2="132.33333333333331" y1="268" y2="253" class="net_11"/>
  <line x1="147" x2="169" y1="32" y2="32" class="net_3,4,5,6,7,8,9,10"/>
  <line x1="169" x2="169" y1="32" y2="108" class="net_3,4,5,6,7,8,9,10"/>
  <circle cx="169" cy="32" r="2" style="fill:#000" class="net_3,4,5,6,7,8,9,10"/>
  <line x1="169" x2="187.33333333333334" y1="108" y2="108" class="net_3,4,5,6,7,8,9,10"/>
  <line x1="147" x2="224" y1="32" y2="32" class="net_3,4,5,6,7,8,9,10"/>
  <line x1="224" x2="224" y1="32" y2="38" class="net_3,4,5,6,7,8,9,10"/>
  <line x1="224" x2="297" y1="38" y2="38" class="net_3,4,5,6,7,8,9,10"/>
  <line x1="66" x2="122.33333333333333" y1="228" y2="228" class="net_53"/>
  <line x1="66" x2="94" y1="293" y2="293" class="net_54"/>
  <line x1="94" x2="94" y1="293" y2="248" class="net_54"/>
  <line x1="94" x2="122.33333333333333" y1="248" y2="248" class="net_54"/>
  <line x1="224" x2="224" y1="43" y2="58" class="net_x"/>
  <circle cx="224" cy="58" r="2" style="fill:#000" class="net_x"/>
  <line x1="224" x2="297" y1="58" y2="58" class="net_x"/>
  <line x1="224" x2="224" y1="43" y2="78" class="net_x"/>
  <line x1="224" x2="297" y1="78" y2="78" class="net_x"/>
  <line x1="207.33333333333334" x2="297" y1="98" y2="98" class="net_44,45,46,47,48,49,50,51"/>
  <line x1="207.33333333333334" x2="224" y1="158" y2="158" class="net_36,37,38,39,40,41,42,43"/>
  <line x1="224" x2="224" y1="158" y2="138" class="net_36,37,38,39,40,41,42,43"/>
  <line x1="224" x2="297" y1="138" y2="138" class="net_36,37,38,39,40,41,42,43"/>
  <line x1="193.71428571428572" x2="244" y1="270.5" y2="270.5" class="net_52,52,52,52,52,52,52,52"/>
  <line x1="244" x2="244" y1="270.5" y2="158" class="net_52,52,52,52,52,52,52,52"/>
  <line x1="244" x2="297" y1="158" y2="158" class="net_52,52,52,52,52,52,52,52"/>
  <line x1="436" x2="471" y1="38" y2="38" class="net_20,21,22,23,24,25,26,27"/>
  <line x1="142.33333333333331" x2="188.21428571428572" y1="238" y2="238" class="net_52"/>
  <line x1="188.21428571428572" x2="188.21428571428572" y1="238" y2="260" class="net_52"/>
  <line x1="142.33333333333331" x2="159" y1="238" y2="238" class="net_52"/>
  <line x1="159" x2="159" y1="238" y2="280.5" class="net_52"/>
  <circle cx="159" cy="238" r="2" style="fill:#000" class="net_52"/>
  <circle cx="159" cy="280.5" r="2" style="fill:#000" class="net_52"/>
  <line x1="159" x2="187.71428571428572" y1="280.5" y2="280.5" class="net_52"/>
  <line x1="142.33333333333331" x2="159" y1="238" y2="238" class="net_52"/>
  <line x1="159" x2="159" y1="238" y2="300.5" class="net_52"/>
  <circle cx="159" cy="300.5" r="2" style="fill:#000" class="net_52"/>
  <line x1="159" x2="187.71428571428572" y1="300.5" y2="300.5" class="net_52"/>
  <line x1="142.33333333333331" x2="159" y1="238" y2="238" class="net_52"/>
  <line x1="159" x2="159" y1="238" y2="320.5" class="net_52"/>
  <circle cx="159" cy="320.5" r="2" style="fill:#000" class="net_52"/>
  <line x1="159" x2="187.71428571428572" y1="320.5" y2="320.5" class="net_52"/>
  <line x1="142.33333333333331" x2="159" y1="238" y2="238" class="net_52"/>
  <line x1="159" x2="159" y1="238" y2="340.5" class="net_52"/>
  <circle cx="159" cy="340.5" r="2" style="fill:#000" class="net_52"/>
  <line x1="159" x2="187.71428571428572" y1="340.5" y2="340.5" class="net_52"/>
  <line x1="142.33333333333331" x2="159" y1="238" y2="238" class="net_52"/>
  <line x1="159" x2="159" y1="238" y2="360.5" class="net_52"/>
  <circle cx="159" cy="360.5" r="2" style="fill:#000" class="net_52"/>
  <line x1="159" x2="187.71428571428572" y1="360.5" y2="360.5" class="net_52"/>
  <line x1="142.33333333333331" x2="159" y1="238" y2="238" class="net_52"/>
  <line x1="159" x2="159" y1="238" y2="380.5" class="net_52"/>
  <circle cx="159" cy="380.5" r="2" style="fill:#000" class="net_52"/>
  <line x1="159" x2="187.71428571428572" y1="380.5" y2="380.5" class="net_52"/>
  <line x1="142.33333333333331" x2="159" y1="238" y2="238" class="net_52"/>
  <line x1="159" x2="159" y1="238" y2="420" class="net_52"/>
  <line x1="159" x2="188.21428571428572" y1="420" y2="420" class="net_52"/>
  <line x1="188.21428571428572" x2="188.21428571428572" y1="420" y2="401" class="net_52"/>
</svg>
