<svg xmlns="http://www.w3.org/2000/svg" xmlns:xlink="http://www.w3.org/1999/xlink" xmlns:s="https://github.com/nturley/netlistsvg" width="1092" height="1211.5">
  <style>svg {
    stroke:#000;
    fill:none;
  }
  text {
    fill:#000;
    stroke:none;
    font-size:10px;
    font-weight: bold;
    font-family: "Courier New", monospace;
  }
  .nodelabel {
    text-anchor: middle;
  }
  .inputPortLabel {
    text-anchor: end;
  }
  .splitjoinBody {
    fill:#000;
  }</style>
  <g s:type="add" transform="translate(358,758.5)" s:width="25" s:height="25" id="cell_$add$rxuartlite.v:105$4">
    <s:alias val="$add"/>
    <circle r="12.5" cx="12.5" cy="12.5" class="cell_$add$rxuartlite.v:105$4"/>
    <line x1="7.5" x2="17.5" y1="12.5" y2="12.5" class="cell_$add$rxuartlite.v:105$4"/>
    <line x1="12.5" x2="12.5" y1="7.5" y2="17.5" class="cell_$add$rxuartlite.v:105$4"/>
    <g s:x="3" s:y="5" s:pid="A"/>
    <g s:x="3" s:y="20" s:pid="B"/>
    <g s:x="25" s:y="12.5" s:pid="Y"/>
  </g>
  <g s:type="add" transform="translate(559,143.5)" s:width="25" s:height="25" id="cell_$add$rxuartlite.v:134$14">
    <s:alias val="$add"/>
    <circle r="12.5" cx="12.5" cy="12.5" class="cell_$add$rxuartlite.v:134$14"/>
    <line x1="7.5" x2="17.5" y1="12.5" y2="12.5" class="cell_$add$rxuartlite.v:134$14"/>
    <line x1="12.5" x2="12.5" y1="7.5" y2="17.5" class="cell_$add$rxuartlite.v:134$14"/>
    <g s:x="3" s:y="5" s:pid="A"/>
    <g s:x="3" s:y="20" s:pid="B"/>
    <g s:x="25" s:y="12.5" s:pid="Y"/>
  </g>
  <g s:type="eq" transform="translate(184.33333333333334,349.5)" s:width="25" s:height="25" id="cell_$eq$rxuartlite.v:120$10">
    <s:alias val="$eq"/>
    <circle r="12.5" cx="12.5" cy="12.5" class="cell_$eq$rxuartlite.v:120$10"/>
    <line x1="7.5" x2="17.5" y1="10" y2="10" class="cell_$eq$rxuartlite.v:120$10"/>
    <line x1="7.5" x2="17.5" y1="15" y2="15" class="cell_$eq$rxuartlite.v:120$10"/>
    <g s:x="3" s:y="5" s:pid="A"/>
    <g s:x="3" s:y="20" s:pid="B"/>
    <g s:x="25" s:y="12.5" s:pid="Y"/>
  </g>
  <g s:type="eq" transform="translate(559,188.5)" s:width="25" s:height="25" id="cell_$eq$rxuartlite.v:159$17">
    <s:alias val="$eq"/>
    <circle r="12.5" cx="12.5" cy="12.5" class="cell_$eq$rxuartlite.v:159$17"/>
    <line x1="7.5" x2="17.5" y1="10" y2="10" class="cell_$eq$rxuartlite.v:159$17"/>
    <line x1="7.5" x2="17.5" y1="15" y2="15" class="cell_$eq$rxuartlite.v:159$17"/>
    <g s:x="3" s:y="5" s:pid="A"/>
    <g s:x="3" s:y="20" s:pid="B"/>
    <g s:x="25" s:y="12.5" s:pid="Y"/>
  </g>
  <g s:type="eq" transform="translate(184.33333333333334,188.5)" s:width="25" s:height="25" id="cell_$eq$rxuartlite.v:189$26">
    <s:alias val="$eq"/>
    <circle r="12.5" cx="12.5" cy="12.5" class="cell_$eq$rxuartlite.v:189$26"/>
    <line x1="7.5" x2="17.5" y1="10" y2="10" class="cell_$eq$rxuartlite.v:189$26"/>
    <line x1="7.5" x2="17.5" y1="15" y2="15" class="cell_$eq$rxuartlite.v:189$26"/>
    <g s:x="3" s:y="5" s:pid="A"/>
    <g s:x="3" s:y="20" s:pid="B"/>
    <g s:x="25" s:y="12.5" s:pid="Y"/>
  </g>
  <g s:type="generic" transform="translate(787,889.5)" s:width="30" s:height="40" id="cell_$ge$rxuartlite.v:114$7">
    <text x="15" y="-4" class="nodelabel cell_$ge$rxuartlite.v:114$7" s:attribute="ref">$ge</text>
    <rect width="30" height="40" s:generic="body" class="cell_$ge$rxuartlite.v:114$7"/>
    <g transform="translate(0,10)" s:x="0" s:y="10" s:pid="in0" id="port_$ge$rxuartlite.v:114$7~A">
      <text x="-3" y="-4" class="inputPortLabel cell_$ge$rxuartlite.v:114$7">A</text>
    </g>
    <g transform="translate(0,30)" s:x="0" s:y="10" s:pid="in0" id="port_$ge$rxuartlite.v:114$7~B">
      <text x="-3" y="-4" class="inputPortLabel cell_$ge$rxuartlite.v:114$7">B</text>
    </g>
    <g transform="translate(30,10)" s:x="30" s:y="10" s:pid="out0" id="port_$ge$rxuartlite.v:114$7~Y">
      <text x="5" y="-4" style="fill:#000; stroke:none" class="cell_$ge$rxuartlite.v:114$7">Y</text>
    </g>
  </g>
  <g s:type="and" transform="translate(959,1048.5)" s:width="30" s:height="25" id="cell_$logic_and$rxuartlite.v:114$8">
    <s:alias val="$and"/>
    <s:alias val="$logic_and"/>
    <s:alias val="$_AND_"/>
    <path d="M0,0 L0,25 L15,25 A15 12.5 0 0 0 15,0 Z" class="cell_$logic_and$rxuartlite.v:114$8"/>
    <g s:x="0" s:y="5" s:pid="A"/>
    <g s:x="0" s:y="20" s:pid="B"/>
    <g s:x="30" s:y="12.5" s:pid="Y"/>
  </g>
  <g s:type="and" transform="translate(700,559.5)" s:width="30" s:height="25" id="cell_$logic_and$rxuartlite.v:124$12">
    <s:alias val="$and"/>
    <s:alias val="$logic_and"/>
    <s:alias val="$_AND_"/>
    <path d="M0,0 L0,25 L15,25 A15 12.5 0 0 0 15,0 Z" class="cell_$logic_and$rxuartlite.v:124$12"/>
    <g s:x="0" s:y="5" s:pid="A"/>
    <g s:x="0" s:y="20" s:pid="B"/>
    <g s:x="30" s:y="12.5" s:pid="Y"/>
  </g>
  <g s:type="and" transform="translate(700,349.5)" s:width="30" s:height="25" id="cell_$logic_and$rxuartlite.v:159$18">
    <s:alias val="$and"/>
    <s:alias val="$logic_and"/>
    <s:alias val="$_AND_"/>
    <path d="M0,0 L0,25 L15,25 A15 12.5 0 0 0 15,0 Z" class="cell_$logic_and$rxuartlite.v:159$18"/>
    <g s:x="0" s:y="5" s:pid="A"/>
    <g s:x="0" s:y="20" s:pid="B"/>
    <g s:x="30" s:y="12.5" s:pid="Y"/>
  </g>
  <g s:type="or" transform="translate(818.6666666666666,489.5)" s:width="30" s:height="25" id="cell_$logic_or$rxuartlite.v:173$22">
    <s:alias val="$or"/>
    <s:alias val="$logic_or"/>
    <s:alias val="$_OR_"/>
    <path d="M0,25 L0,25 L15,25 A15 12.5 0 0 0 15,0 L0,0" class="cell_$logic_or$rxuartlite.v:173$22"/>
    <path d="M0,0 A30 25 0 0 1 0,25" class="cell_$logic_or$rxuartlite.v:173$22"/>
    <g s:x="3" s:y="5" s:pid="A"/>
    <g s:x="3" s:y="20" s:pid="B"/>
    <g s:x="30" s:y="12.5" s:pid="Y"/>
  </g>
  <g s:type="generic" transform="translate(522,541.5)" s:width="30" s:height="40" id="cell_$lt$rxuartlite.v:130$13">
    <text x="15" y="-4" class="nodelabel cell_$lt$rxuartlite.v:130$13" s:attribute="ref">$lt</text>
    <rect width="30" height="40" s:generic="body" class="cell_$lt$rxuartlite.v:130$13"/>
    <g transform="translate(0,10)" s:x="0" s:y="10" s:pid="in0" id="port_$lt$rxuartlite.v:130$13~A">
      <text x="-3" y="-4" class="inputPortLabel cell_$lt$rxuartlite.v:130$13">A</text>
    </g>
    <g transform="translate(0,30)" s:x="0" s:y="10" s:pid="in0" id="port_$lt$rxuartlite.v:130$13~B">
      <text x="-3" y="-4" class="inputPortLabel cell_$lt$rxuartlite.v:130$13">B</text>
    </g>
    <g transform="translate(30,10)" s:x="30" s:y="10" s:pid="out0" id="port_$lt$rxuartlite.v:130$13~Y">
      <text x="5" y="-4" style="fill:#000; stroke:none" class="cell_$lt$rxuartlite.v:130$13">Y</text>
    </g>
  </g>
  <g s:type="generic" transform="translate(323,680.5)" s:width="30" s:height="40" id="cell_$ne$rxuartlite.v:102$3">
    <text x="15" y="-4" class="nodelabel cell_$ne$rxuartlite.v:102$3" s:attribute="ref">$ne</text>
    <rect width="30" height="40" s:generic="body" class="cell_$ne$rxuartlite.v:102$3"/>
    <g transform="translate(0,10)" s:x="0" s:y="10" s:pid="in0" id="port_$ne$rxuartlite.v:102$3~A">
      <text x="-3" y="-4" class="inputPortLabel cell_$ne$rxuartlite.v:102$3">A</text>
    </g>
    <g transform="translate(0,30)" s:x="0" s:y="10" s:pid="in0" id="port_$ne$rxuartlite.v:102$3~B">
      <text x="-3" y="-4" class="inputPortLabel cell_$ne$rxuartlite.v:102$3">B</text>
    </g>
    <g transform="translate(30,10)" s:x="30" s:y="10" s:pid="out0" id="port_$ne$rxuartlite.v:102$3~Y">
      <text x="5" y="-4" style="fill:#000; stroke:none" class="cell_$ne$rxuartlite.v:102$3">Y</text>
    </g>
  </g>
  <g s:type="not" transform="translate(572.5,852)" s:width="30" s:height="20" id="cell_$not$rxuartlite.v:114$6">
    <s:alias val="$_NOT_"/>
    <s:alias val="$not"/>
    <path d="M0,0 L0,20 L20,10 Z" class="cell_$not$rxuartlite.v:114$6"/>
    <circle cx="23" cy="10" r="3" class="cell_$not$rxuartlite.v:114$6"/>
    <g s:x="0" s:y="10" s:pid="A"/>
    <g s:x="25" s:y="10" s:pid="Y"/>
  </g>
  <g s:type="dff" transform="translate(358.6666666666667,544.5)" s:width="30" s:height="40" id="cell_$procdff$62">
    <s:alias val="$dff"/>
    <s:alias val="$_DFF_"/>
    <rect width="30" height="40" x="0" y="0" class="cell_$procdff$62"/>
    <path d="M0,35 L5,30 L0,25" class="cell_$procdff$62"/>
    <g s:x="30" s:y="10" s:pid="Q"/>
    <g s:x="0" s:y="30" s:pid="CLK"/>
    <g s:x="0" s:y="10" s:pid="D"/>
  </g>
  <g s:type="dff" transform="translate(1024,564.5)" s:width="30" s:height="40" id="cell_$procdff$63">
    <s:alias val="$dff"/>
    <s:alias val="$_DFF_"/>
    <rect width="30" height="40" x="0" y="0" class="cell_$procdff$63"/>
    <path d="M0,35 L5,30 L0,25" class="cell_$procdff$63"/>
    <g s:x="30" s:y="10" s:pid="Q"/>
    <g s:x="0" s:y="30" s:pid="CLK"/>
    <g s:x="0" s:y="10" s:pid="D"/>
  </g>
  <g s:type="dff" transform="translate(959,75)" s:width="30" s:height="40" id="cell_$procdff$64">
    <s:alias val="$dff"/>
    <s:alias val="$_DFF_"/>
    <rect width="30" height="40" x="0" y="0" class="cell_$procdff$64"/>
    <path d="M0,35 L5,30 L0,25" class="cell_$procdff$64"/>
    <g s:x="30" s:y="10" s:pid="Q"/>
    <g s:x="0" s:y="30" s:pid="CLK"/>
    <g s:x="0" s:y="10" s:pid="D"/>
  </g>
  <g s:type="dff" transform="translate(959,1138.5)" s:width="30" s:height="40" id="cell_$procdff$65">
    <s:alias val="$dff"/>
    <s:alias val="$_DFF_"/>
    <rect width="30" height="40" x="0" y="0" class="cell_$procdff$65"/>
    <path d="M0,35 L5,30 L0,25" class="cell_$procdff$65"/>
    <g s:x="30" s:y="10" s:pid="Q"/>
    <g s:x="0" s:y="30" s:pid="CLK"/>
    <g s:x="0" s:y="10" s:pid="D"/>
  </g>
  <g s:type="dff" transform="translate(700,987.5)" s:width="30" s:height="40" id="cell_$procdff$66">
    <s:alias val="$dff"/>
    <s:alias val="$_DFF_"/>
    <rect width="30" height="40" x="0" y="0" class="cell_$procdff$66"/>
    <path d="M0,35 L5,30 L0,25" class="cell_$procdff$66"/>
    <g s:x="30" s:y="10" s:pid="Q"/>
    <g s:x="0" s:y="30" s:pid="CLK"/>
    <g s:x="0" s:y="10" s:pid="D"/>
  </g>
  <g s:type="dff" transform="translate(1024,274.5)" s:width="30" s:height="40" id="cell_$procdff$67">
    <s:alias val="$dff"/>
    <s:alias val="$_DFF_"/>
    <rect width="30" height="40" x="0" y="0" class="cell_$procdff$67"/>
    <path d="M0,35 L5,30 L0,25" class="cell_$procdff$67"/>
    <g s:x="30" s:y="10" s:pid="Q"/>
    <g s:x="0" s:y="30" s:pid="CLK"/>
    <g s:x="0" s:y="10" s:pid="D"/>
  </g>
  <g s:type="dff" transform="translate(1024,1053.5)" s:width="30" s:height="40" id="cell_$procdff$68">
    <s:alias val="$dff"/>
    <s:alias val="$_DFF_"/>
    <rect width="30" height="40" x="0" y="0" class="cell_$procdff$68"/>
    <path d="M0,35 L5,30 L0,25" class="cell_$procdff$68"/>
    <g s:x="30" s:y="10" s:pid="Q"/>
    <g s:x="0" s:y="30" s:pid="CLK"/>
    <g s:x="0" s:y="10" s:pid="D"/>
  </g>
  <g s:type="dff" transform="translate(700,791)" s:width="30" s:height="40" id="cell_$procdff$69">
    <s:alias val="$dff"/>
    <s:alias val="$_DFF_"/>
    <rect width="30" height="40" x="0" y="0" class="cell_$procdff$69"/>
    <path d="M0,35 L5,30 L0,25" class="cell_$procdff$69"/>
    <g s:x="30" s:y="10" s:pid="Q"/>
    <g s:x="0" s:y="30" s:pid="CLK"/>
    <g s:x="0" s:y="10" s:pid="D"/>
  </g>
  <g s:type="dff" transform="translate(101,852)" s:width="30" s:height="40" id="cell_$procdff$70">
    <s:alias val="$dff"/>
    <s:alias val="$_DFF_"/>
    <rect width="30" height="40" x="0" y="0" class="cell_$procdff$70"/>
    <path d="M0,35 L5,30 L0,25" class="cell_$procdff$70"/>
    <g s:x="30" s:y="10" s:pid="Q"/>
    <g s:x="0" s:y="30" s:pid="CLK"/>
    <g s:x="0" s:y="10" s:pid="D"/>
  </g>
  <g s:type="dff" transform="translate(181,852)" s:width="30" s:height="40" id="cell_$procdff$71">
    <s:alias val="$dff"/>
    <s:alias val="$_DFF_"/>
    <rect width="30" height="40" x="0" y="0" class="cell_$procdff$71"/>
    <path d="M0,35 L5,30 L0,25" class="cell_$procdff$71"/>
    <g s:x="30" s:y="10" s:pid="Q"/>
    <g s:x="0" s:y="30" s:pid="CLK"/>
    <g s:x="0" s:y="10" s:pid="D"/>
  </g>
  <g s:type="dff" transform="translate(251,852)" s:width="30" s:height="40" id="cell_$procdff$72">
    <s:alias val="$dff"/>
    <s:alias val="$_DFF_"/>
    <rect width="30" height="40" x="0" y="0" class="cell_$procdff$72"/>
    <path d="M0,35 L5,30 L0,25" class="cell_$procdff$72"/>
    <g s:x="30" s:y="10" s:pid="Q"/>
    <g s:x="0" s:y="30" s:pid="CLK"/>
    <g s:x="0" s:y="10" s:pid="D"/>
  </g>
  <g s:type="mux" transform="translate(254.33333333333334,534.5)" s:width="20" s:height="40" id="cell_$procmux$36">
    <s:alias val="$pmux"/>
    <s:alias val="$mux"/>
    <s:alias val="$_MUX_"/>
    <path d="M0,0 L20,10 L20,30 L0,40 Z" class="cell_$procmux$36"/>
    <g s:x="0" s:y="10" s:pid="A"/>
    <g s:x="0" s:y="30" s:pid="B"/>
    <g s:x="10" s:y="35" s:pid="S"/>
    <g s:x="20" s:y="20" s:pid="Y"/>
  </g>
  <g s:type="mux" transform="translate(962.3333333333334,414.5)" s:width="20" s:height="40" id="cell_$procmux$39">
    <s:alias val="$pmux"/>
    <s:alias val="$mux"/>
    <s:alias val="$_MUX_"/>
    <path d="M0,0 L20,10 L20,30 L0,40 Z" class="cell_$procmux$39"/>
    <g s:x="0" s:y="10" s:pid="A"/>
    <g s:x="0" s:y="30" s:pid="B"/>
    <g s:x="10" s:y="35" s:pid="S"/>
    <g s:x="20" s:y="20" s:pid="Y"/>
  </g>
  <g s:type="mux" transform="translate(822,45)" s:width="20" s:height="40" id="cell_$procmux$42">
    <s:alias val="$pmux"/>
    <s:alias val="$mux"/>
    <s:alias val="$_MUX_"/>
    <path d="M0,0 L20,10 L20,30 L0,40 Z" class="cell_$procmux$42"/>
    <g s:x="0" s:y="10" s:pid="A"/>
    <g s:x="0" s:y="30" s:pid="B"/>
    <g s:x="10" s:y="35" s:pid="S"/>
    <g s:x="20" s:y="20" s:pid="Y"/>
  </g>
  <g s:type="mux" transform="translate(825.3333333333334,967.5)" s:width="20" s:height="40" id="cell_$procmux$45">
    <s:alias val="$pmux"/>
    <s:alias val="$mux"/>
    <s:alias val="$_MUX_"/>
    <path d="M0,0 L20,10 L20,30 L0,40 Z" class="cell_$procmux$45"/>
    <g s:x="0" s:y="10" s:pid="A"/>
    <g s:x="0" s:y="30" s:pid="B"/>
    <g s:x="10" s:y="35" s:pid="S"/>
    <g s:x="20" s:y="20" s:pid="Y"/>
  </g>
  <g s:type="mux" transform="translate(562.3333333333334,917.5)" s:width="20" s:height="40" id="cell_$procmux$47">
    <s:alias val="$pmux"/>
    <s:alias val="$mux"/>
    <s:alias val="$_MUX_"/>
    <path d="M0,0 L20,10 L20,30 L0,40 Z" class="cell_$procmux$47"/>
    <g s:x="0" s:y="10" s:pid="A"/>
    <g s:x="0" s:y="30" s:pid="B"/>
    <g s:x="10" s:y="35" s:pid="S"/>
    <g s:x="20" s:y="20" s:pid="Y"/>
  </g>
  <g s:type="mux" transform="translate(703.3333333333334,126)" s:width="20" s:height="40" id="cell_$procmux$50">
    <s:alias val="$pmux"/>
    <s:alias val="$mux"/>
    <s:alias val="$_MUX_"/>
    <path d="M0,0 L20,10 L20,30 L0,40 Z" class="cell_$procmux$50"/>
    <g s:x="0" s:y="10" s:pid="A"/>
    <g s:x="0" s:y="30" s:pid="B"/>
    <g s:x="10" s:y="35" s:pid="S"/>
    <g s:x="20" s:y="20" s:pid="Y"/>
  </g>
  <g s:type="mux" transform="translate(825.3333333333334,116)" s:width="20" s:height="40" id="cell_$procmux$52">
    <s:alias val="$pmux"/>
    <s:alias val="$mux"/>
    <s:alias val="$_MUX_"/>
    <path d="M0,0 L20,10 L20,30 L0,40 Z" class="cell_$procmux$52"/>
    <g s:x="0" s:y="10" s:pid="A"/>
    <g s:x="0" s:y="30" s:pid="B"/>
    <g s:x="10" s:y="35" s:pid="S"/>
    <g s:x="20" s:y="20" s:pid="Y"/>
  </g>
  <g s:type="mux" transform="translate(822,274.5)" s:width="20" s:height="40" id="cell_$procmux$55">
    <s:alias val="$pmux"/>
    <s:alias val="$mux"/>
    <s:alias val="$_MUX_"/>
    <path d="M0,0 L20,10 L20,30 L0,40 Z" class="cell_$procmux$55"/>
    <g s:x="0" s:y="10" s:pid="A"/>
    <g s:x="0" s:y="30" s:pid="B"/>
    <g s:x="10" s:y="35" s:pid="S"/>
    <g s:x="20" s:y="20" s:pid="Y"/>
  </g>
  <g s:type="mux" transform="translate(962.3333333333334,264.5)" s:width="20" s:height="40" id="cell_$procmux$57">
    <s:alias val="$pmux"/>
    <s:alias val="$mux"/>
    <s:alias val="$_MUX_"/>
    <path d="M0,0 L20,10 L20,30 L0,40 Z" class="cell_$procmux$57"/>
    <g s:x="0" s:y="10" s:pid="A"/>
    <g s:x="0" s:y="30" s:pid="B"/>
    <g s:x="10" s:y="35" s:pid="S"/>
    <g s:x="20" s:y="20" s:pid="Y"/>
  </g>
  <g s:type="mux" transform="translate(559,761)" s:width="20" s:height="40" id="cell_$procmux$60">
    <s:alias val="$pmux"/>
    <s:alias val="$mux"/>
    <s:alias val="$_MUX_"/>
    <path d="M0,0 L20,10 L20,30 L0,40 Z" class="cell_$procmux$60"/>
    <g s:x="0" s:y="10" s:pid="A"/>
    <g s:x="0" s:y="30" s:pid="B"/>
    <g s:x="10" s:y="35" s:pid="S"/>
    <g s:x="20" s:y="20" s:pid="Y"/>
  </g>
  <g s:type="sub" transform="translate(822,364.5)" s:width="25" s:height="25" id="cell_$sub$rxuartlite.v:176$23">
    <s:alias val="$sub"/>
    <circle r="12.5" cx="12.5" cy="12.5" class="cell_$sub$rxuartlite.v:176$23"/>
    <line x1="7.5" x2="17.5" y1="12.5" y2="12.5" class="cell_$sub$rxuartlite.v:176$23"/>
    <g s:x="3" s:y="5" s:pid="A"/>
    <g s:x="3" s:y="20" s:pid="B"/>
    <g s:x="25" s:y="12.5" s:pid="Y"/>
  </g>
  <g s:type="inputExt" transform="translate(12,1158.5)" s:width="30" s:height="20" id="cell_i_clk">
    <text x="15" y="-4" class="nodelabel cell_i_clk" s:attribute="ref">i_clk</text>
    <s:alias val="$_inputExt_"/>
    <path d="M0,0 L0,20 L15,20 L30,10 L15,0 Z" class="cell_i_clk"/>
    <g s:x="28" s:y="10" s:pid="Y"/>
  </g>
  <g s:type="inputExt" transform="translate(12,852)" s:width="30" s:height="20" id="cell_i_uart_rx">
    <text x="15" y="-4" class="nodelabel cell_i_uart_rx" s:attribute="ref">i_uart_rx</text>
    <s:alias val="$_inputExt_"/>
    <path d="M0,0 L0,20 L15,20 L30,10 L15,0 Z" class="cell_i_uart_rx"/>
    <g s:x="28" s:y="10" s:pid="Y"/>
  </g>
  <g s:type="outputExt" transform="translate(1024,75)" s:width="30" s:height="20" id="cell_o_wr">
    <text x="15" y="-4" class="nodelabel cell_o_wr" s:attribute="ref">o_wr</text>
    <s:alias val="$_outputExt_"/>
    <path d="M30,0 L30,20 L15,20 L0,10 L15,0 Z" class="cell_o_wr"/>
    <g s:x="0" s:y="10" s:pid="A"/>
  </g>
  <g s:type="outputExt" transform="translate(1024,1138.5)" s:width="30" s:height="20" id="cell_o_data">
    <text x="15" y="-4" class="nodelabel cell_o_data" s:attribute="ref">o_data</text>
    <s:alias val="$_outputExt_"/>
    <path d="M30,0 L30,20 L15,20 L0,10 L15,0 Z" class="cell_o_data"/>
    <g s:x="0" s:y="10" s:pid="A"/>
  </g>
  <g s:type="constant" transform="translate(101,198.5)" s:width="30" s:height="20" id="cell_1">
    <text x="15" y="-4" class="nodelabel cell_1" s:attribute="ref">1</text>
    <s:alias val="$_constant_"/>
    <rect width="30" height="20" class="cell_1"/>
    <g s:x="30" s:y="10" s:pid="Y"/>
  </g>
  <g s:type="constant" transform="translate(101,133.5)" s:width="30" s:height="20" id="cell_1111">
    <text x="15" y="-4" class="nodelabel cell_1111" s:attribute="ref">0xf</text>
    <s:alias val="$_constant_"/>
    <rect width="30" height="20" class="cell_1111"/>
    <g s:x="30" s:y="10" s:pid="Y"/>
  </g>
  <g s:type="constant" transform="translate(323,354.5)" s:width="30" s:height="20" id="cell_1000">
    <text x="15" y="-4" class="nodelabel cell_1000" s:attribute="ref">0x8</text>
    <s:alias val="$_constant_"/>
    <rect width="30" height="20" class="cell_1000"/>
    <g s:x="30" s:y="10" s:pid="Y"/>
  </g>
  <g s:type="constant" transform="translate(700,910)" s:width="30" s:height="20" id="cell_110110001">
    <text x="15" y="-4" class="nodelabel cell_110110001" s:attribute="ref">0x1b1</text>
    <s:alias val="$_constant_"/>
    <rect width="30" height="20" class="cell_110110001"/>
    <g s:x="30" s:y="10" s:pid="Y"/>
  </g>
  <g s:type="constant" transform="translate(181,243.5)" s:width="30" s:height="20" id="cell_0">
    <text x="15" y="-4" class="nodelabel cell_0" s:attribute="ref">0</text>
    <s:alias val="$_constant_"/>
    <rect width="30" height="20" class="cell_0"/>
    <g s:x="30" s:y="10" s:pid="Y"/>
  </g>
  <g s:type="constant" transform="translate(787,434.5)" s:width="30" s:height="20" id="cell_000000000000001101100011">
    <text x="15" y="-4" class="nodelabel cell_000000000000001101100011" s:attribute="ref">0x363</text>
    <s:alias val="$_constant_"/>
    <rect width="30" height="20" class="cell_000000000000001101100011"/>
    <g s:x="30" s:y="10" s:pid="Y"/>
  </g>
  <g s:type="constant" transform="translate(700,294.5)" s:width="30" s:height="20" id="cell_0000">
    <text x="15" y="-4" class="nodelabel cell_0000" s:attribute="ref">0x0</text>
    <s:alias val="$_constant_"/>
    <rect width="30" height="20" class="cell_0000"/>
    <g s:x="30" s:y="10" s:pid="Y"/>
  </g>
  <g s:type="constant" transform="translate(323,615.5)" s:width="30" s:height="20" id="cell_000000000000000000000000">
    <text x="15" y="-4" class="nodelabel cell_000000000000000000000000" s:attribute="ref">0x0</text>
    <s:alias val="$_constant_"/>
    <rect width="30" height="20" class="cell_000000000000000000000000"/>
    <g s:x="30" s:y="10" s:pid="Y"/>
  </g>
  <g s:type="join" transform="translate(367.3333333333333,927)" s:width="4" s:height="40" id="cell_$join$,151,152,153,154,155,156,157,106,">
    <rect width="5" height="40" class="splitjoinBody" s:generic="body"/>
    <s:alias val="$_join_"/>
    <g s:x="5" s:y="20" s:pid="out"/>
    <g transform="translate(0,10)" s:x="0" s:y="10" s:pid="in0">
      <text x="-3" y="-4" class="inputPortLabel">0:6</text>
    </g>
    <g transform="translate(0,30)" s:x="0" s:y="10" s:pid="in0">
      <text x="-3" y="-4" class="inputPortLabel">7</text>
    </g>
  </g>
  <g s:type="split" transform="translate(257,927)" s:width="5" s:height="40" id="cell_$split$,150,151,152,153,154,155,156,157,">
    <rect width="5" height="20" class="splitjoinBody" s:generic="body"/>
    <s:alias val="$_split_"/>
    <g s:x="0" s:y="20" s:pid="in"/>
    <g transform="translate(4,10)" s:x="4" s:y="10" s:pid="out0">
      <text x="5" y="-4">1:7</text>
    </g>
  </g>
  <line x1="730" x2="740" y1="801" y2="801" class="net_13,14,15,16,17,18,19,20,21,22,23,24,25,26,27,28,29,30,31,32,33,34,35,36"/>
  <line x1="740" x2="740" y1="801" y2="841" class="net_13,14,15,16,17,18,19,20,21,22,23,24,25,26,27,28,29,30,31,32,33,34,35,36"/>
  <line x1="740" x2="301" y1="841" y2="841" class="net_13,14,15,16,17,18,19,20,21,22,23,24,25,26,27,28,29,30,31,32,33,34,35,36"/>
  <line x1="301" x2="301" y1="841" y2="763.5" class="net_13,14,15,16,17,18,19,20,21,22,23,24,25,26,27,28,29,30,31,32,33,34,35,36"/>
  <circle cx="740" cy="841" r="2" style="fill:#000" class="net_13,14,15,16,17,18,19,20,21,22,23,24,25,26,27,28,29,30,31,32,33,34,35,36"/>
  <line x1="301" x2="361" y1="763.5" y2="763.5" class="net_13,14,15,16,17,18,19,20,21,22,23,24,25,26,27,28,29,30,31,32,33,34,35,36"/>
  <line x1="730" x2="740" y1="801" y2="801" class="net_13,14,15,16,17,18,19,20,21,22,23,24,25,26,27,28,29,30,31,32,33,34,35,36"/>
  <line x1="740" x2="740" y1="801" y2="900" class="net_13,14,15,16,17,18,19,20,21,22,23,24,25,26,27,28,29,30,31,32,33,34,35,36"/>
  <line x1="740" x2="787" y1="900" y2="900" class="net_13,14,15,16,17,18,19,20,21,22,23,24,25,26,27,28,29,30,31,32,33,34,35,36"/>
  <line x1="131" x2="161" y1="208.5" y2="208.5" class="net_223"/>
  <line x1="161" x2="161" y1="208.5" y2="778.5" class="net_223"/>
  <circle cx="161" cy="208.5" r="2" style="fill:#000" class="net_223"/>
  <line x1="161" x2="361" y1="778.5" y2="778.5" class="net_223"/>
  <line x1="131" x2="161" y1="208.5" y2="208.5" class="net_223"/>
  <line x1="161" x2="161" y1="208.5" y2="163.5" class="net_223"/>
  <circle cx="161" cy="163.5" r="2" style="fill:#000" class="net_223"/>
  <line x1="161" x2="562" y1="163.5" y2="163.5" class="net_223"/>
  <line x1="131" x2="187.33333333333334" y1="208.5" y2="208.5" class="net_223"/>
  <line x1="131" x2="161" y1="208.5" y2="208.5" class="net_223"/>
  <line x1="161" x2="161" y1="208.5" y2="75" class="net_223"/>
  <line x1="161" x2="822" y1="75" y2="75" class="net_223"/>
  <line x1="131" x2="161" y1="208.5" y2="208.5" class="net_223"/>
  <line x1="161" x2="161" y1="208.5" y2="384.5" class="net_223"/>
  <circle cx="161" cy="384.5" r="2" style="fill:#000" class="net_223"/>
  <line x1="161" x2="825" y1="384.5" y2="384.5" class="net_223"/>
  <line x1="1054" x2="1080" y1="284.5" y2="284.5" class="net_61,62,63,64"/>
  <line x1="1080" x2="1080" y1="284.5" y2="223.5" class="net_61,62,63,64"/>
  <line x1="1080" x2="740" y1="223.5" y2="223.5" class="net_61,62,63,64"/>
  <line x1="740" x2="740" y1="223.5" y2="178.5" class="net_61,62,63,64"/>
  <line x1="740" x2="505" y1="178.5" y2="178.5" class="net_61,62,63,64"/>
  <line x1="505" x2="505" y1="178.5" y2="148.5" class="net_61,62,63,64"/>
  <circle cx="740" cy="223.5" r="2" style="fill:#000" class="net_61,62,63,64"/>
  <circle cx="1080" cy="223.5" r="2" style="fill:#000" class="net_61,62,63,64"/>
  <line x1="505" x2="562" y1="148.5" y2="148.5" class="net_61,62,63,64"/>
  <line x1="1054" x2="1080" y1="284.5" y2="284.5" class="net_61,62,63,64"/>
  <line x1="1080" x2="1080" y1="284.5" y2="223.5" class="net_61,62,63,64"/>
  <line x1="1080" x2="171" y1="223.5" y2="223.5" class="net_61,62,63,64"/>
  <line x1="171" x2="171" y1="223.5" y2="354.5" class="net_61,62,63,64"/>
  <line x1="171" x2="187.33333333333334" y1="354.5" y2="354.5" class="net_61,62,63,64"/>
  <line x1="1054" x2="1080" y1="284.5" y2="284.5" class="net_61,62,63,64"/>
  <line x1="1080" x2="1080" y1="284.5" y2="34" class="net_61,62,63,64"/>
  <line x1="1080" x2="465" y1="34" y2="34" class="net_61,62,63,64"/>
  <line x1="465" x2="465" y1="34" y2="193.5" class="net_61,62,63,64"/>
  <circle cx="1080" cy="34" r="2" style="fill:#000" class="net_61,62,63,64"/>
  <line x1="465" x2="562" y1="193.5" y2="193.5" class="net_61,62,63,64"/>
  <line x1="1054" x2="1080" y1="284.5" y2="284.5" class="net_61,62,63,64"/>
  <line x1="1080" x2="1080" y1="284.5" y2="1198.5" class="net_61,62,63,64"/>
  <line x1="1080" x2="495" y1="1198.5" y2="1198.5" class="net_61,62,63,64"/>
  <line x1="495" x2="495" y1="1198.5" y2="552" class="net_61,62,63,64"/>
  <line x1="495" x2="522" y1="552" y2="552" class="net_61,62,63,64"/>
  <line x1="1054" x2="1080" y1="284.5" y2="284.5" class="net_61,62,63,64"/>
  <line x1="1080" x2="1080" y1="284.5" y2="12" class="net_61,62,63,64"/>
  <line x1="1080" x2="770" y1="12" y2="12" class="net_61,62,63,64"/>
  <line x1="770" x2="770" y1="12" y2="126" class="net_61,62,63,64"/>
  <circle cx="1080" cy="284.5" r="2" style="fill:#000" class="net_61,62,63,64"/>
  <line x1="770" x2="825.3333333333334" y1="126" y2="126" class="net_61,62,63,64"/>
  <line x1="131" x2="141" y1="143.5" y2="143.5" class="net_225,226,227,228"/>
  <line x1="141" x2="141" y1="143.5" y2="369.5" class="net_225,226,227,228"/>
  <circle cx="141" cy="143.5" r="2" style="fill:#000" class="net_225,226,227,228"/>
  <line x1="141" x2="187.33333333333334" y1="369.5" y2="369.5" class="net_225,226,227,228"/>
  <line x1="131" x2="141" y1="143.5" y2="143.5" class="net_225,226,227,228"/>
  <line x1="141" x2="141" y1="143.5" y2="132.5" class="net_225,226,227,228"/>
  <line x1="141" x2="670" y1="132.5" y2="132.5" class="net_225,226,227,228"/>
  <line x1="670" x2="670" y1="132.5" y2="136" class="net_225,226,227,228"/>
  <line x1="670" x2="703.3333333333334" y1="136" y2="136" class="net_225,226,227,228"/>
  <line x1="131" x2="141" y1="143.5" y2="143.5" class="net_225,226,227,228"/>
  <line x1="141" x2="141" y1="143.5" y2="273.5" class="net_225,226,227,228"/>
  <line x1="141" x2="770" y1="273.5" y2="273.5" class="net_225,226,227,228"/>
  <line x1="770" x2="770" y1="273.5" y2="284.5" class="net_225,226,227,228"/>
  <circle cx="141" cy="273.5" r="2" style="fill:#000" class="net_225,226,227,228"/>
  <line x1="770" x2="822" y1="284.5" y2="284.5" class="net_225,226,227,228"/>
  <line x1="353" x2="465" y1="364.5" y2="364.5" class="net_229,230,231,232"/>
  <line x1="465" x2="465" y1="364.5" y2="208.5" class="net_229,230,231,232"/>
  <circle cx="465" cy="364.5" r="2" style="fill:#000" class="net_229,230,231,232"/>
  <line x1="465" x2="562" y1="208.5" y2="208.5" class="net_229,230,231,232"/>
  <line x1="353" x2="465" y1="364.5" y2="364.5" class="net_229,230,231,232"/>
  <line x1="465" x2="465" y1="364.5" y2="572" class="net_229,230,231,232"/>
  <line x1="465" x2="522" y1="572" y2="572" class="net_229,230,231,232"/>
  <line x1="1054" x2="1070" y1="574.5" y2="574.5" class="net_71,72,73,74,75,76,77,78,79,80,81,82,83,84,85,86,87,88,89,90,91,92,93,94"/>
  <line x1="1070" x2="1070" y1="574.5" y2="23" class="net_71,72,73,74,75,76,77,78,79,80,81,82,83,84,85,86,87,88,89,90,91,92,93,94"/>
  <line x1="1070" x2="151" y1="23" y2="23" class="net_71,72,73,74,75,76,77,78,79,80,81,82,83,84,85,86,87,88,89,90,91,92,93,94"/>
  <line x1="151" x2="151" y1="23" y2="193.5" class="net_71,72,73,74,75,76,77,78,79,80,81,82,83,84,85,86,87,88,89,90,91,92,93,94"/>
  <line x1="151" x2="187.33333333333334" y1="193.5" y2="193.5" class="net_71,72,73,74,75,76,77,78,79,80,81,82,83,84,85,86,87,88,89,90,91,92,93,94"/>
  <line x1="1054" x2="1070" y1="574.5" y2="574.5" class="net_71,72,73,74,75,76,77,78,79,80,81,82,83,84,85,86,87,88,89,90,91,92,93,94"/>
  <line x1="1070" x2="1070" y1="574.5" y2="241.5" class="net_71,72,73,74,75,76,77,78,79,80,81,82,83,84,85,86,87,88,89,90,91,92,93,94"/>
  <line x1="1070" x2="760" y1="241.5" y2="241.5" class="net_71,72,73,74,75,76,77,78,79,80,81,82,83,84,85,86,87,88,89,90,91,92,93,94"/>
  <line x1="760" x2="760" y1="241.5" y2="369.5" class="net_71,72,73,74,75,76,77,78,79,80,81,82,83,84,85,86,87,88,89,90,91,92,93,94"/>
  <circle cx="1070" cy="241.5" r="2" style="fill:#000" class="net_71,72,73,74,75,76,77,78,79,80,81,82,83,84,85,86,87,88,89,90,91,92,93,94"/>
  <line x1="760" x2="825" y1="369.5" y2="369.5" class="net_71,72,73,74,75,76,77,78,79,80,81,82,83,84,85,86,87,88,89,90,91,92,93,94"/>
  <line x1="730" x2="787" y1="920" y2="920" class="net_234,235,236,237,238,239,240,241,242"/>
  <line x1="597.5" x2="670" y1="862" y2="862" class="net_97"/>
  <line x1="670" x2="670" y1="862" y2="1053.5" class="net_97"/>
  <circle cx="670" cy="862" r="2" style="fill:#000" class="net_97"/>
  <line x1="670" x2="959" y1="1053.5" y2="1053.5" class="net_97"/>
  <line x1="597.5" x2="670" y1="862" y2="862" class="net_97"/>
  <line x1="670" x2="670" y1="862" y2="564.5" class="net_97"/>
  <line x1="670" x2="700" y1="564.5" y2="564.5" class="net_97"/>
  <line x1="818" x2="939" y1="900" y2="900" class="net_96"/>
  <line x1="939" x2="939" y1="900" y2="1068.5" class="net_96"/>
  <line x1="939" x2="959" y1="1068.5" y2="1068.5" class="net_96"/>
  <line x1="1054" x2="1070" y1="1063.5" y2="1063.5" class="net_99"/>
  <line x1="1070" x2="1070" y1="1063.5" y2="1037.5" class="net_99"/>
  <line x1="1070" x2="680" y1="1037.5" y2="1037.5" class="net_99"/>
  <line x1="680" x2="680" y1="1037.5" y2="579.5" class="net_99"/>
  <line x1="680" x2="700" y1="579.5" y2="579.5" class="net_99"/>
  <line x1="388.6666666666667" x2="475" y1="554.5" y2="554.5" class="net_101"/>
  <line x1="475" x2="475" y1="554.5" y2="354.5" class="net_101"/>
  <circle cx="475" cy="554.5" r="2" style="fill:#000" class="net_101"/>
  <circle cx="475" cy="354.5" r="2" style="fill:#000" class="net_101"/>
  <line x1="475" x2="700" y1="354.5" y2="354.5" class="net_101"/>
  <line x1="388.6666666666667" x2="475" y1="554.5" y2="554.5" class="net_101"/>
  <line x1="475" x2="475" y1="554.5" y2="494.5" class="net_101"/>
  <circle cx="475" cy="494.5" r="2" style="fill:#000" class="net_101"/>
  <line x1="475" x2="821.6666666666666" y1="494.5" y2="494.5" class="net_101"/>
  <line x1="388.6666666666667" x2="475" y1="554.5" y2="554.5" class="net_101"/>
  <line x1="475" x2="475" y1="554.5" y2="967.5" class="net_101"/>
  <line x1="475" x2="572.3333333333334" y1="967.5" y2="967.5" class="net_101"/>
  <line x1="572.3333333333334" x2="572.3333333333334" y1="967.5" y2="952.5" class="net_101"/>
  <line x1="388.6666666666667" x2="475" y1="554.5" y2="554.5" class="net_101"/>
  <line x1="475" x2="475" y1="554.5" y2="262.5" class="net_101"/>
  <line x1="475" x2="835.3333333333334" y1="262.5" y2="262.5" class="net_101"/>
  <line x1="835.3333333333334" x2="835.3333333333334" y1="262.5" y2="151" class="net_101"/>
  <line x1="584" x2="680" y1="201" y2="201" class="net_70"/>
  <line x1="680" x2="680" y1="201" y2="369.5" class="net_70"/>
  <line x1="680" x2="700" y1="369.5" y2="369.5" class="net_70"/>
  <line x1="209.33333333333334" x2="231" y1="362" y2="362" class="net_69"/>
  <line x1="231" x2="231" y1="362" y2="509.5" class="net_69"/>
  <circle cx="231" cy="362" r="2" style="fill:#000" class="net_69"/>
  <circle cx="231" cy="509.5" r="2" style="fill:#000" class="net_69"/>
  <line x1="231" x2="821.6666666666666" y1="509.5" y2="509.5" class="net_69"/>
  <line x1="209.33333333333334" x2="231" y1="362" y2="362" class="net_69"/>
  <line x1="231" x2="231" y1="362" y2="584.5" class="net_69"/>
  <line x1="231" x2="264.33333333333337" y1="584.5" y2="584.5" class="net_69"/>
  <line x1="264.33333333333337" x2="264.33333333333337" y1="584.5" y2="569.5" class="net_69"/>
  <line x1="209.33333333333334" x2="231" y1="362" y2="362" class="net_69"/>
  <line x1="231" x2="231" y1="362" y2="251.5" class="net_69"/>
  <line x1="231" x2="939" y1="251.5" y2="251.5" class="net_69"/>
  <line x1="939" x2="939" y1="251.5" y2="404.5" class="net_69"/>
  <line x1="939" x2="972.3333333333334" y1="404.5" y2="404.5" class="net_69"/>
  <line x1="972.3333333333334" x2="972.3333333333334" y1="404.5" y2="299.5" class="net_69"/>
  <line x1="211" x2="221" y1="862" y2="862" class="net_105"/>
  <line x1="221" x2="221" y1="862" y2="691" class="net_105"/>
  <circle cx="221" cy="862" r="2" style="fill:#000" class="net_105"/>
  <line x1="221" x2="323" y1="691" y2="691" class="net_105"/>
  <line x1="211" x2="251" y1="862" y2="862" class="net_105"/>
  <line x1="281" x2="291" y1="862" y2="862" class="net_106"/>
  <line x1="291" x2="291" y1="862" y2="711" class="net_106"/>
  <circle cx="291" cy="862" r="2" style="fill:#000" class="net_106"/>
  <line x1="291" x2="323" y1="711" y2="711" class="net_106"/>
  <line x1="281" x2="572.5" y1="862" y2="862" class="net_106"/>
  <line x1="281" x2="291" y1="862" y2="862" class="net_106"/>
  <line x1="291" x2="291" y1="862" y2="957.5" class="net_106"/>
  <line x1="291" x2="367.3333333333333" y1="957.5" y2="957.5" class="net_106"/>
  <line x1="40" x2="76" y1="1168.5" y2="1168.5" class="net_2"/>
  <line x1="76" x2="76" y1="1168.5" y2="594.5" class="net_2"/>
  <line x1="76" x2="291" y1="594.5" y2="594.5" class="net_2"/>
  <line x1="291" x2="291" y1="594.5" y2="574.5" class="net_2"/>
  <circle cx="76" cy="1168.5" r="2" style="fill:#000" class="net_2"/>
  <circle cx="76" cy="594.5" r="2" style="fill:#000" class="net_2"/>
  <circle cx="291" cy="594.5" r="2" style="fill:#000" class="net_2"/>
  <line x1="291" x2="358.6666666666667" y1="574.5" y2="574.5" class="net_2"/>
  <line x1="40" x2="76" y1="1168.5" y2="1168.5" class="net_2"/>
  <line x1="76" x2="76" y1="1168.5" y2="594.5" class="net_2"/>
  <line x1="76" x2="1024" y1="594.5" y2="594.5" class="net_2"/>
  <line x1="40" x2="76" y1="1168.5" y2="1168.5" class="net_2"/>
  <line x1="76" x2="76" y1="1168.5" y2="105" class="net_2"/>
  <line x1="76" x2="959" y1="105" y2="105" class="net_2"/>
  <line x1="40" x2="959" y1="1168.5" y2="1168.5" class="net_2"/>
  <line x1="40" x2="690" y1="1168.5" y2="1168.5" class="net_2"/>
  <line x1="690" x2="690" y1="1168.5" y2="1017.5" class="net_2"/>
  <circle cx="690" cy="1168.5" r="2" style="fill:#000" class="net_2"/>
  <line x1="690" x2="700" y1="1017.5" y2="1017.5" class="net_2"/>
  <line x1="40" x2="76" y1="1168.5" y2="1168.5" class="net_2"/>
  <line x1="76" x2="76" y1="1168.5" y2="594.5" class="net_2"/>
  <line x1="76" x2="485" y1="594.5" y2="594.5" class="net_2"/>
  <line x1="485" x2="485" y1="594.5" y2="520.5" class="net_2"/>
  <line x1="485" x2="740" y1="520.5" y2="520.5" class="net_2"/>
  <line x1="740" x2="740" y1="520.5" y2="594.5" class="net_2"/>
  <line x1="740" x2="999" y1="594.5" y2="594.5" class="net_2"/>
  <line x1="999" x2="999" y1="594.5" y2="304.5" class="net_2"/>
  <circle cx="485" cy="594.5" r="2" style="fill:#000" class="net_2"/>
  <circle cx="740" cy="594.5" r="2" style="fill:#000" class="net_2"/>
  <circle cx="999" cy="594.5" r="2" style="fill:#000" class="net_2"/>
  <line x1="999" x2="1024" y1="304.5" y2="304.5" class="net_2"/>
  <line x1="40" x2="939" y1="1168.5" y2="1168.5" class="net_2"/>
  <line x1="939" x2="939" y1="1168.5" y2="1083.5" class="net_2"/>
  <circle cx="939" cy="1168.5" r="2" style="fill:#000" class="net_2"/>
  <line x1="939" x2="1024" y1="1083.5" y2="1083.5" class="net_2"/>
  <line x1="40" x2="231" y1="1168.5" y2="1168.5" class="net_2"/>
  <line x1="231" x2="231" y1="1168.5" y2="821" class="net_2"/>
  <circle cx="231" cy="1168.5" r="2" style="fill:#000" class="net_2"/>
  <line x1="231" x2="700" y1="821" y2="821" class="net_2"/>
  <line x1="40" x2="76" y1="1168.5" y2="1168.5" class="net_2"/>
  <line x1="76" x2="76" y1="1168.5" y2="882" class="net_2"/>
  <circle cx="76" cy="882" r="2" style="fill:#000" class="net_2"/>
  <line x1="76" x2="101" y1="882" y2="882" class="net_2"/>
  <line x1="40" x2="141" y1="1168.5" y2="1168.5" class="net_2"/>
  <line x1="141" x2="141" y1="1168.5" y2="882" class="net_2"/>
  <circle cx="141" cy="1168.5" r="2" style="fill:#000" class="net_2"/>
  <line x1="141" x2="181" y1="882" y2="882" class="net_2"/>
  <line x1="40" x2="231" y1="1168.5" y2="1168.5" class="net_2"/>
  <line x1="231" x2="231" y1="1168.5" y2="882" class="net_2"/>
  <circle cx="231" cy="882" r="2" style="fill:#000" class="net_2"/>
  <line x1="231" x2="251" y1="882" y2="882" class="net_2"/>
  <line x1="274.33333333333337" x2="358.6666666666667" y1="554.5" y2="554.5" class="net_108"/>
  <line x1="982.3333333333334" x2="1009" y1="434.5" y2="434.5" class="net_109,110,111,112,113,114,115,116,117,118,119,120,121,122,123,124,125,126,127,128,129,130,131,132"/>
  <line x1="1009" x2="1009" y1="434.5" y2="574.5" class="net_109,110,111,112,113,114,115,116,117,118,119,120,121,122,123,124,125,126,127,128,129,130,131,132"/>
  <line x1="1009" x2="1024" y1="574.5" y2="574.5" class="net_109,110,111,112,113,114,115,116,117,118,119,120,121,122,123,124,125,126,127,128,129,130,131,132"/>
  <line x1="842" x2="929" y1="65" y2="65" class="net_133"/>
  <line x1="929" x2="929" y1="65" y2="85" class="net_133"/>
  <line x1="929" x2="959" y1="85" y2="85" class="net_133"/>
  <line x1="845.3333333333334" x2="929" y1="987.5" y2="987.5" class="net_134,135,136,137,138,139,140,141"/>
  <line x1="929" x2="929" y1="987.5" y2="1148.5" class="net_134,135,136,137,138,139,140,141"/>
  <line x1="929" x2="959" y1="1148.5" y2="1148.5" class="net_134,135,136,137,138,139,140,141"/>
  <line x1="582.3333333333334" x2="690" y1="937.5" y2="937.5" class="net_142,143,144,145,146,147,148,149"/>
  <line x1="690" x2="690" y1="937.5" y2="997.5" class="net_142,143,144,145,146,147,148,149"/>
  <line x1="690" x2="700" y1="997.5" y2="997.5" class="net_142,143,144,145,146,147,148,149"/>
  <line x1="982.3333333333334" x2="1024" y1="284.5" y2="284.5" class="net_158,159,160,161"/>
  <line x1="989" x2="999" y1="1061" y2="1061" class="net_98"/>
  <line x1="999" x2="999" y1="1061" y2="1063.5" class="net_98"/>
  <line x1="999" x2="1024" y1="1063.5" y2="1063.5" class="net_98"/>
  <line x1="579" x2="690" y1="781" y2="781" class="net_162,163,164,165,166,167,168,169,170,171,172,173,174,175,176,177,178,179,180,181,182,183,184,185"/>
  <line x1="690" x2="690" y1="781" y2="801" class="net_162,163,164,165,166,167,168,169,170,171,172,173,174,175,176,177,178,179,180,181,182,183,184,185"/>
  <line x1="690" x2="700" y1="801" y2="801" class="net_162,163,164,165,166,167,168,169,170,171,172,173,174,175,176,177,178,179,180,181,182,183,184,185"/>
  <line x1="40" x2="101" y1="862" y2="862" class="net_3"/>
  <line x1="131" x2="181" y1="862" y2="862" class="net_186"/>
  <line x1="209.33333333333334" x2="241" y1="201" y2="201" class="net_95"/>
  <line x1="241" x2="241" y1="201" y2="544.5" class="net_95"/>
  <line x1="241" x2="254.33333333333334" y1="544.5" y2="544.5" class="net_95"/>
  <line x1="211" x2="221" y1="253.5" y2="253.5" class="net_247"/>
  <line x1="221" x2="221" y1="253.5" y2="564.5" class="net_247"/>
  <circle cx="221" cy="253.5" r="2" style="fill:#000" class="net_247"/>
  <line x1="221" x2="254.33333333333334" y1="564.5" y2="564.5" class="net_247"/>
  <line x1="211" x2="221" y1="253.5" y2="253.5" class="net_247"/>
  <line x1="221" x2="221" y1="253.5" y2="55" class="net_247"/>
  <line x1="221" x2="822" y1="55" y2="55" class="net_247"/>
  <line x1="847" x2="929" y1="377" y2="377" class="net_187,188,189,190,191,192,193,194,195,196,197,198,199,200,201,202,203,204,205,206,207,208,209,210"/>
  <line x1="929" x2="929" y1="377" y2="424.5" class="net_187,188,189,190,191,192,193,194,195,196,197,198,199,200,201,202,203,204,205,206,207,208,209,210"/>
  <line x1="929" x2="962.3333333333334" y1="424.5" y2="424.5" class="net_187,188,189,190,191,192,193,194,195,196,197,198,199,200,201,202,203,204,205,206,207,208,209,210"/>
  <line x1="817" x2="962.3333333333334" y1="444.5" y2="444.5" class="net_248,249,250,251,252,253,254,255,256,257,258,259,260,261,262,263,264,265,266,267,268,269,270,271"/>
  <line x1="848.6666666666666" x2="972.3333333333334" y1="502" y2="502" class="net_103"/>
  <line x1="972.3333333333334" x2="972.3333333333334" y1="502" y2="449.5" class="net_103"/>
  <line x1="730" x2="750" y1="362" y2="362" class="net_102"/>
  <line x1="750" x2="750" y1="362" y2="95" class="net_102"/>
  <line x1="750" x2="832" y1="95" y2="95" class="net_102"/>
  <circle cx="750" cy="362" r="2" style="fill:#000" class="net_102"/>
  <line x1="832" x2="832" y1="95" y2="80" class="net_102"/>
  <line x1="730" x2="750" y1="362" y2="362" class="net_102"/>
  <line x1="750" x2="750" y1="362" y2="1027.5" class="net_102"/>
  <line x1="750" x2="835.3333333333334" y1="1027.5" y2="1027.5" class="net_102"/>
  <line x1="835.3333333333334" x2="835.3333333333334" y1="1027.5" y2="1002.5" class="net_102"/>
  <line x1="989" x2="999" y1="1148.5" y2="1148.5" class="net_5,6,7,8,9,10,11,12"/>
  <line x1="999" x2="999" y1="1148.5" y2="1188.5" class="net_5,6,7,8,9,10,11,12"/>
  <line x1="999" x2="770" y1="1188.5" y2="1188.5" class="net_5,6,7,8,9,10,11,12"/>
  <line x1="770" x2="770" y1="1188.5" y2="977.5" class="net_5,6,7,8,9,10,11,12"/>
  <circle cx="999" cy="1148.5" r="2" style="fill:#000" class="net_5,6,7,8,9,10,11,12"/>
  <line x1="770" x2="825.3333333333334" y1="977.5" y2="977.5" class="net_5,6,7,8,9,10,11,12"/>
  <line x1="989" x2="1024" y1="1148.5" y2="1148.5" class="net_5,6,7,8,9,10,11,12"/>
  <line x1="730" x2="825.3333333333334" y1="997.5" y2="997.5" class="net_150,151,152,153,154,155,156,157"/>
  <line x1="730" x2="740" y1="997.5" y2="997.5" class="net_150,151,152,153,154,155,156,157"/>
  <line x1="740" x2="740" y1="997.5" y2="977.5" class="net_150,151,152,153,154,155,156,157"/>
  <line x1="740" x2="505" y1="977.5" y2="977.5" class="net_150,151,152,153,154,155,156,157"/>
  <line x1="505" x2="505" y1="977.5" y2="927.5" class="net_150,151,152,153,154,155,156,157"/>
  <circle cx="505" cy="977.5" r="2" style="fill:#000" class="net_150,151,152,153,154,155,156,157"/>
  <circle cx="740" cy="997.5" r="2" style="fill:#000" class="net_150,151,152,153,154,155,156,157"/>
  <line x1="505" x2="562.3333333333334" y1="927.5" y2="927.5" class="net_150,151,152,153,154,155,156,157"/>
  <line x1="730" x2="740" y1="997.5" y2="997.5" class="net_150,151,152,153,154,155,156,157"/>
  <line x1="740" x2="740" y1="997.5" y2="977.5" class="net_150,151,152,153,154,155,156,157"/>
  <line x1="740" x2="257.5" y1="977.5" y2="977.5" class="net_150,151,152,153,154,155,156,157"/>
  <line x1="257.5" x2="257.5" y1="977.5" y2="948" class="net_150,151,152,153,154,155,156,157"/>
  <line x1="373.3333333333333" x2="562.3333333333334" y1="947.5" y2="947.5" class="net_151,152,153,154,155,156,157,106"/>
  <line x1="584" x2="703.3333333333334" y1="156" y2="156" class="net_65,66,67,68"/>
  <line x1="553" x2="670" y1="552" y2="552" class="net_104"/>
  <line x1="670" x2="670" y1="552" y2="213.5" class="net_104"/>
  <line x1="670" x2="713.3333333333334" y1="213.5" y2="213.5" class="net_104"/>
  <line x1="713.3333333333334" x2="713.3333333333334" y1="213.5" y2="161" class="net_104"/>
  <line x1="723.3333333333334" x2="825.3333333333334" y1="146" y2="146" class="net_211,212,213,214"/>
  <line x1="730" x2="822" y1="304.5" y2="304.5" class="net_282,283,284,285"/>
  <line x1="730" x2="770" y1="572" y2="572" class="net_100"/>
  <line x1="770" x2="770" y1="572" y2="354.5" class="net_100"/>
  <line x1="770" x2="832" y1="354.5" y2="354.5" class="net_100"/>
  <line x1="832" x2="832" y1="354.5" y2="309.5" class="net_100"/>
  <line x1="845.3333333333334" x2="949" y1="136" y2="136" class="net_215,216,217,218"/>
  <line x1="949" x2="949" y1="136" y2="274.5" class="net_215,216,217,218"/>
  <line x1="949" x2="962.3333333333334" y1="274.5" y2="274.5" class="net_215,216,217,218"/>
  <line x1="842" x2="962.3333333333334" y1="294.5" y2="294.5" class="net_219,220,221,222"/>
  <line x1="383" x2="559" y1="771" y2="771" class="net_37,38,39,40,41,42,43,44,45,46,47,48,49,50,51,52,53,54,55,56,57,58,59,60"/>
  <line x1="353" x2="505" y1="625.5" y2="625.5" class="net_286,287,288,289,290,291,292,293,294,295,296,297,298,299,300,301,302,303,304,305,306,307,308,309"/>
  <line x1="505" x2="505" y1="625.5" y2="791" class="net_286,287,288,289,290,291,292,293,294,295,296,297,298,299,300,301,302,303,304,305,306,307,308,309"/>
  <line x1="505" x2="559" y1="791" y2="791" class="net_286,287,288,289,290,291,292,293,294,295,296,297,298,299,300,301,302,303,304,305,306,307,308,309"/>
  <line x1="354" x2="465" y1="691" y2="691" class="net_107"/>
  <line x1="465" x2="465" y1="691" y2="811" class="net_107"/>
  <line x1="465" x2="569" y1="811" y2="811" class="net_107"/>
  <line x1="569" x2="569" y1="811" y2="796" class="net_107"/>
  <line x1="989" x2="1024" y1="85" y2="85" class="net_4"/>
  <line x1="262" x2="367.3333333333333" y1="937.5" y2="937.5" class="net_151,152,153,154,155,156,157"/>
</svg>
