<svg xmlns="http://www.w3.org/2000/svg" xmlns:xlink="http://www.w3.org/1999/xlink" xmlns:s="https://github.com/nturley/netlistsvg" width="878" height="163">
  <style>svg {
    stroke:#000;
    fill:none;
  }
  text {
    fill:#000;
    stroke:none;
    font-size:10px;
    font-weight: bold;
    font-family: "Courier New", monospace;
  }
  .nodelabel {
    text-anchor: middle;
  }
  .inputPortLabel {
    text-anchor: end;
  }
  .splitjoinBody {
    fill:#000;
  }</style>
  <g s:type="inputExt" transform="translate(253,76)" s:width="30" s:height="20">
    <text x="15" y="-4" class="nodelabel" s:attribute="ref">clk</text>
    <s:alias val="$_inputExt_"/>
    <path d="M0,0 L0,20 L15,20 L30,10 L15,0 Z"/>
    <g s:x="28" s:y="10" s:pid="Y"/>
  </g>
  <g s:type="inputExt" transform="translate(12,32)" s:width="30" s:height="20">
    <text x="15" y="-4" class="nodelabel" s:attribute="ref">RGBStr_i</text>
    <s:alias val="$_inputExt_"/>
    <path d="M0,0 L0,20 L15,20 L30,10 L15,0 Z"/>
    <g s:x="28" s:y="10" s:pid="Y"/>
  </g>
  <g s:type="outputExt" transform="translate(809,56)" s:width="30" s:height="20">
    <text x="15" y="-4" class="nodelabel" s:attribute="ref">char_code</text>
    <s:alias val="$_outputExt_"/>
    <path d="M30,0 L30,20 L15,20 L0,10 L15,0 Z"/>
    <g s:x="0" s:y="10" s:pid="A"/>
  </g>
  <g s:type="add" transform="translate(257.66666666666663,12)" s:width="25" s:height="25">
    <s:alias val="$add"/>
    <circle r="12.5" cx="12.5" cy="12.5"/>
    <line x1="7.5" x2="17.5" y1="12.5" y2="12.5"/>
    <line x1="12.5" x2="12.5" y1="7.5" y2="17.5"/>
    <g s:x="3" s:y="5" s:pid="A"/>
    <g s:x="3" s:y="20" s:pid="B"/>
    <g s:x="25" s:y="12.5" s:pid="Y"/>
  </g>
  <g s:type="generic" transform="translate(179,76)" s:width="30" s:height="40">
    <text x="15" y="-4" class="nodelabel" s:attribute="ref">$mul</text>
    <rect width="30" height="40" s:generic="body"/>
    <g transform="translate(0,10)" s:x="0" s:y="10" s:pid="in0">
      <text x="-3" y="-4" class="inputPortLabel">A</text>
    </g>
    <g transform="translate(0,30)" s:x="0" s:y="10" s:pid="in0">
      <text x="-3" y="-4" class="inputPortLabel">B</text>
    </g>
    <g transform="translate(30,10)" s:x="30" s:y="10" s:pid="out0">
      <text x="5" y="-4" style="fill:#000; stroke:none">Y</text>
    </g>
  </g>
  <g s:type="dff" transform="translate(744,56)" s:width="30" s:height="40">
    <s:alias val="$dff"/>
    <s:alias val="$_DFF_"/>
    <rect width="30" height="40" x="0" y="0"/>
    <path d="M0,35 L5,30 L0,25"/>
    <g s:x="30" s:y="10" s:pid="Q"/>
    <g s:x="0" s:y="30" s:pid="CLK"/>
    <g s:x="0" s:y="10" s:pid="D"/>
  </g>
  <g s:type="generic" transform="translate(376,55.5)" s:width="30" s:height="40">
    <text x="15" y="-4" class="nodelabel" s:attribute="ref">$paramod$c8fd6cf1dce96206fc67cbe03bf5954fadb3faee\ram</text>
    <rect width="30" height="80" s:generic="body"/>
    <g transform="translate(0,10)" s:x="0" s:y="10" s:pid="in0">
      <text x="-3" y="-4" class="inputPortLabel">raddr</text>
    </g>
    <g transform="translate(0,30)" s:x="0" s:y="10" s:pid="in0">
      <text x="-3" y="-4" class="inputPortLabel">rclk</text>
    </g>
    <g transform="translate(0,50)" s:x="0" s:y="10" s:pid="in0">
      <text x="-3" y="-4" class="inputPortLabel">wclk</text>
    </g>
    <g transform="translate(0,70)" s:x="0" s:y="10" s:pid="in0">
      <text x="-3" y="-4" class="inputPortLabel">write_en</text>
    </g>
    <g transform="translate(30,10)" s:x="30" s:y="10" s:pid="out0">
      <text x="5" y="-4" style="fill:#000; stroke:none">dout</text>
    </g>
  </g>
  <g s:type="constant" transform="translate(101,96.5)" s:width="30" s:height="20">
    <text x="15" y="-4" class="nodelabel" s:attribute="ref">0x50</text>
    <s:alias val="$_constant_"/>
    <rect width="30" height="20"/>
    <g s:x="30" s:y="10" s:pid="Y"/>
  </g>
  <g s:type="constant" transform="translate(253,131)" s:width="30" s:height="20">
    <text x="15" y="-4" class="nodelabel" s:attribute="ref">0</text>
    <s:alias val="$_constant_"/>
    <rect width="30" height="20"/>
    <g s:x="30" s:y="10" s:pid="Y"/>
  </g>
  <g s:type="split" transform="translate(101,21.5)" s:width="5" s:height="40">
    <rect width="5" height="40" class="splitjoinBody" s:generic="body"/>
    <s:alias val="$_split_"/>
    <g s:x="0" s:y="20" s:pid="in"/>
    <g transform="translate(4,10)" s:x="4" s:y="10" s:pid="out0">
      <text x="5" y="-4">16:22</text>
    </g>
    <g transform="translate(4,30)" s:x="4" s:y="10" s:pid="out0">
      <text x="5" y="-4">6:11</text>
    </g>
  </g>
  <line x1="774" y1="66" x2="809" y2="66"/>
  <line x1="210" y1="86.5" x2="228" y2="86.5"/>
  <line x1="228" y1="86.5" x2="228" y2="17"/>
  <line x1="228" y1="17" x2="260.66666666666663" y2="17"/>
  <line x1="106" y1="32" x2="260.66666666666663" y2="32"/>
  <line x1="106" y1="52" x2="147" y2="52"/>
  <line x1="147" y1="52" x2="147" y2="86.5"/>
  <line x1="147" y1="86.5" x2="179" y2="86.5"/>
  <line x1="131" y1="106.5" x2="179" y2="106.5"/>
  <line x1="281" y1="86" x2="312" y2="86"/>
  <line x1="312" y1="86" x2="312" y2="148.5"/>
  <line x1="312" y1="148.5" x2="719" y2="148.5"/>
  <line x1="719" y1="148.5" x2="719" y2="86"/>
  <circle cx="312" cy="86" r="2" style="fill:#000"/>
  <line x1="719" y1="86" x2="744" y2="86"/>
  <line x1="281" y1="86" x2="376" y2="86"/>
  <line x1="281" y1="86" x2="312" y2="86"/>
  <line x1="312" y1="86" x2="312" y2="106"/>
  <circle cx="312" cy="106" r="2" style="fill:#000"/>
  <line x1="312" y1="106" x2="376" y2="106"/>
  <line x1="407" y1="66" x2="744" y2="66"/>
  <line x1="282.66666666666663" y1="24.5" x2="302" y2="24.5"/>
  <line x1="302" y1="24.5" x2="302" y2="66"/>
  <line x1="302" y1="66" x2="376" y2="66"/>
  <line x1="283" y1="141" x2="302" y2="141"/>
  <line x1="302" y1="141" x2="302" y2="126"/>
  <line x1="302" y1="126" x2="376" y2="126"/>
  <line x1="40" y1="42" x2="101" y2="42"/>
</svg>
