<svg xmlns="http://www.w3.org/2000/svg" xmlns:xlink="http://www.w3.org/1999/xlink" xmlns:s="https://github.com/nturley/netlistsvg" width="935" height="1308">
  <style>svg {
    stroke:#000;
    fill:none;
  }
  text {
    fill:#000;
    stroke:none;
    font-size:10px;
    font-weight: bold;
    font-family: "Courier New", monospace;
  }
  .nodelabel {
    text-anchor: middle;
  }
  .inputPortLabel {
    text-anchor: end;
  }
  .splitjoinBody {
    fill:#000;
  }</style>
  <g s:type="add" transform="translate(349,126.5)" s:width="25" s:height="25" id="cell_$add$txuartlite.v:102$7">
    <s:alias val="$add"/>
    <circle r="12.5" cx="12.5" cy="12.5" class="cell_$add$txuartlite.v:102$7"/>
    <line x1="7.5" x2="17.5" y1="12.5" y2="12.5" class="cell_$add$txuartlite.v:102$7"/>
    <line x1="12.5" x2="12.5" y1="7.5" y2="17.5" class="cell_$add$txuartlite.v:102$7"/>
    <g s:x="3" s:y="5" s:pid="A"/>
    <g s:x="3" s:y="20" s:pid="B"/>
    <g s:x="25" s:y="12.5" s:pid="Y"/>
  </g>
  <g s:type="eq" transform="translate(177,801)" s:width="25" s:height="25" id="cell_$eq$txuartlite.v:191$15">
    <s:alias val="$eq"/>
    <circle r="12.5" cx="12.5" cy="12.5" class="cell_$eq$txuartlite.v:191$15"/>
    <line x1="7.5" x2="17.5" y1="10" y2="10" class="cell_$eq$txuartlite.v:191$15"/>
    <line x1="7.5" x2="17.5" y1="15" y2="15" class="cell_$eq$txuartlite.v:191$15"/>
    <g s:x="3" s:y="5" s:pid="A"/>
    <g s:x="3" s:y="20" s:pid="B"/>
    <g s:x="25" s:y="12.5" s:pid="Y"/>
  </g>
  <g s:type="eq" transform="translate(177,660)" s:width="25" s:height="25" id="cell_$eq$txuartlite.v:192$16">
    <s:alias val="$eq"/>
    <circle r="12.5" cx="12.5" cy="12.5" class="cell_$eq$txuartlite.v:192$16"/>
    <line x1="7.5" x2="17.5" y1="10" y2="10" class="cell_$eq$txuartlite.v:192$16"/>
    <line x1="7.5" x2="17.5" y1="15" y2="15" class="cell_$eq$txuartlite.v:192$16"/>
    <g s:x="3" s:y="5" s:pid="A"/>
    <g s:x="3" s:y="20" s:pid="B"/>
    <g s:x="25" s:y="12.5" s:pid="Y"/>
  </g>
  <g s:type="generic" transform="translate(314,62.5)" s:width="30" s:height="40" id="cell_$le$txuartlite.v:101$6">
    <text x="15" y="-4" class="nodelabel cell_$le$txuartlite.v:101$6" s:attribute="ref">$le</text>
    <rect width="30" height="40" s:generic="body" class="cell_$le$txuartlite.v:101$6"/>
    <g transform="translate(0,10)" s:x="0" s:y="10" s:pid="in0" id="port_$le$txuartlite.v:101$6~A">
      <text x="-3" y="-4" class="inputPortLabel cell_$le$txuartlite.v:101$6">A</text>
    </g>
    <g transform="translate(0,30)" s:x="0" s:y="10" s:pid="in0" id="port_$le$txuartlite.v:101$6~B">
      <text x="-3" y="-4" class="inputPortLabel cell_$le$txuartlite.v:101$6">B</text>
    </g>
    <g transform="translate(30,10)" s:x="30" s:y="10" s:pid="out0" id="port_$le$txuartlite.v:101$6~Y">
      <text x="5" y="-4" style="fill:#000; stroke:none" class="cell_$le$txuartlite.v:101$6">Y</text>
    </g>
  </g>
  <g s:type="and" transform="translate(77,1260)" s:width="30" s:height="25" id="cell_$logic_and$txuartlite.v:128$10">
    <s:alias val="$and"/>
    <s:alias val="$logic_and"/>
    <s:alias val="$_AND_"/>
    <path d="M0,0 L0,25 L15,25 A15 12.5 0 0 0 15,0 Z" class="cell_$logic_and$txuartlite.v:128$10"/>
    <g s:x="0" s:y="5" s:pid="A"/>
    <g s:x="0" s:y="20" s:pid="B"/>
    <g s:x="30" s:y="12.5" s:pid="Y"/>
  </g>
  <g s:type="generic" transform="translate(709,1034.5)" s:width="30" s:height="40" id="cell_$logic_not$txuartlite.v:128$9">
    <text x="15" y="-4" class="nodelabel cell_$logic_not$txuartlite.v:128$9" s:attribute="ref">$logic_not</text>
    <rect width="30" height="20" s:generic="body" class="cell_$logic_not$txuartlite.v:128$9"/>
    <g transform="translate(0,10)" s:x="0" s:y="10" s:pid="in0" id="port_$logic_not$txuartlite.v:128$9~A">
      <text x="-3" y="-4" class="inputPortLabel cell_$logic_not$txuartlite.v:128$9">A</text>
    </g>
    <g transform="translate(30,10)" s:x="30" s:y="10" s:pid="out0" id="port_$logic_not$txuartlite.v:128$9~Y">
      <text x="5" y="-4" style="fill:#000; stroke:none" class="cell_$logic_not$txuartlite.v:128$9">Y</text>
    </g>
  </g>
  <g s:type="dff" transform="translate(709,949.5)" s:width="30" s:height="40" id="cell_$procdff$69">
    <s:alias val="$dff"/>
    <s:alias val="$_DFF_"/>
    <rect width="30" height="40" x="0" y="0" class="cell_$procdff$69"/>
    <path d="M0,35 L5,30 L0,25" class="cell_$procdff$69"/>
    <g s:x="30" s:y="10" s:pid="Q"/>
    <g s:x="0" s:y="30" s:pid="CLK"/>
    <g s:x="0" s:y="10" s:pid="D"/>
  </g>
  <g s:type="dff" transform="translate(345.6666666666667,583)" s:width="30" s:height="40" id="cell_$procdff$70">
    <s:alias val="$dff"/>
    <s:alias val="$_DFF_"/>
    <rect width="30" height="40" x="0" y="0" class="cell_$procdff$70"/>
    <path d="M0,35 L5,30 L0,25" class="cell_$procdff$70"/>
    <g s:x="30" s:y="10" s:pid="Q"/>
    <g s:x="0" s:y="30" s:pid="CLK"/>
    <g s:x="0" s:y="10" s:pid="D"/>
  </g>
  <g s:type="dff" transform="translate(632,532)" s:width="30" s:height="40" id="cell_$procdff$71">
    <s:alias val="$dff"/>
    <s:alias val="$_DFF_"/>
    <rect width="30" height="40" x="0" y="0" class="cell_$procdff$71"/>
    <path d="M0,35 L5,30 L0,25" class="cell_$procdff$71"/>
    <g s:x="30" s:y="10" s:pid="Q"/>
    <g s:x="0" s:y="30" s:pid="CLK"/>
    <g s:x="0" s:y="10" s:pid="D"/>
  </g>
  <g s:type="dff" transform="translate(709,867)" s:width="30" s:height="40" id="cell_$procdff$72">
    <s:alias val="$dff"/>
    <s:alias val="$_DFF_"/>
    <rect width="30" height="40" x="0" y="0" class="cell_$procdff$72"/>
    <path d="M0,35 L5,30 L0,25" class="cell_$procdff$72"/>
    <g s:x="30" s:y="10" s:pid="Q"/>
    <g s:x="0" s:y="30" s:pid="CLK"/>
    <g s:x="0" s:y="10" s:pid="D"/>
  </g>
  <g s:type="dff" transform="translate(709,243.5)" s:width="30" s:height="40" id="cell_$procdff$73">
    <s:alias val="$dff"/>
    <s:alias val="$_DFF_"/>
    <rect width="30" height="40" x="0" y="0" class="cell_$procdff$73"/>
    <path d="M0,35 L5,30 L0,25" class="cell_$procdff$73"/>
    <g s:x="30" s:y="10" s:pid="Q"/>
    <g s:x="0" s:y="30" s:pid="CLK"/>
    <g s:x="0" s:y="10" s:pid="D"/>
  </g>
  <g s:type="dff" transform="translate(632,1035)" s:width="30" s:height="40" id="cell_$procdff$74">
    <s:alias val="$dff"/>
    <s:alias val="$_DFF_"/>
    <rect width="30" height="40" x="0" y="0" class="cell_$procdff$74"/>
    <path d="M0,35 L5,30 L0,25" class="cell_$procdff$74"/>
    <g s:x="30" s:y="10" s:pid="Q"/>
    <g s:x="0" s:y="30" s:pid="CLK"/>
    <g s:x="0" s:y="10" s:pid="D"/>
  </g>
  <g s:type="mux" transform="translate(572.6666666666666,919)" s:width="20" s:height="40" id="cell_$procmux$28">
    <s:alias val="$pmux"/>
    <s:alias val="$mux"/>
    <s:alias val="$_MUX_"/>
    <path d="M0,0 L20,10 L20,30 L0,40 Z" class="cell_$procmux$28"/>
    <g s:x="0" s:y="10" s:pid="A"/>
    <g s:x="0" s:y="30" s:pid="B"/>
    <g s:x="10" s:y="35" s:pid="S"/>
    <g s:x="20" s:y="20" s:pid="Y"/>
  </g>
  <g s:type="mux" transform="translate(505.6666666666667,994)" s:width="20" s:height="40" id="cell_$procmux$31">
    <s:alias val="$pmux"/>
    <s:alias val="$mux"/>
    <s:alias val="$_MUX_"/>
    <path d="M0,0 L20,10 L20,30 L0,40 Z" class="cell_$procmux$31"/>
    <g s:x="0" s:y="10" s:pid="A"/>
    <g s:x="0" s:y="30" s:pid="B"/>
    <g s:x="10" s:y="35" s:pid="S"/>
    <g s:x="20" s:y="20" s:pid="Y"/>
  </g>
  <g s:type="mux" transform="translate(635.3333333333334,1110)" s:width="20" s:height="40" id="cell_$procmux$33">
    <s:alias val="$pmux"/>
    <s:alias val="$mux"/>
    <s:alias val="$_MUX_"/>
    <path d="M0,0 L20,10 L20,30 L0,40 Z" class="cell_$procmux$33"/>
    <g s:x="0" s:y="10" s:pid="A"/>
    <g s:x="0" s:y="30" s:pid="B"/>
    <g s:x="10" s:y="35" s:pid="S"/>
    <g s:x="20" s:y="20" s:pid="Y"/>
  </g>
  <g s:type="mux" transform="translate(178.66666666666666,502)" s:width="20" s:height="40" id="cell_$procmux$36">
    <s:alias val="$pmux"/>
    <s:alias val="$mux"/>
    <s:alias val="$_MUX_"/>
    <path d="M0,0 L20,10 L20,30 L0,40 Z" class="cell_$procmux$36"/>
    <g s:x="0" s:y="10" s:pid="A"/>
    <g s:x="0" s:y="30" s:pid="B"/>
    <g s:x="10" s:y="35" s:pid="S"/>
    <g s:x="20" s:y="20" s:pid="Y"/>
  </g>
  <g s:type="mux" transform="translate(240.33333333333334,492)" s:width="20" s:height="40" id="cell_$procmux$38">
    <s:alias val="$pmux"/>
    <s:alias val="$mux"/>
    <s:alias val="$_MUX_"/>
    <path d="M0,0 L20,10 L20,30 L0,40 Z" class="cell_$procmux$38"/>
    <g s:x="0" s:y="10" s:pid="A"/>
    <g s:x="0" s:y="30" s:pid="B"/>
    <g s:x="10" s:y="35" s:pid="S"/>
    <g s:x="20" s:y="20" s:pid="Y"/>
  </g>
  <g s:type="mux" transform="translate(502,441)" s:width="20" s:height="40" id="cell_$procmux$40">
    <s:alias val="$pmux"/>
    <s:alias val="$mux"/>
    <s:alias val="$_MUX_"/>
    <path d="M0,0 L20,10 L20,30 L0,40 Z" class="cell_$procmux$40"/>
    <g s:x="0" s:y="10" s:pid="A"/>
    <g s:x="0" s:y="30" s:pid="B"/>
    <g s:x="10" s:y="35" s:pid="S"/>
    <g s:x="20" s:y="20" s:pid="Y"/>
  </g>
  <g s:type="mux" transform="translate(572.6666666666666,522)" s:width="20" s:height="40" id="cell_$procmux$43">
    <s:alias val="$pmux"/>
    <s:alias val="$mux"/>
    <s:alias val="$_MUX_"/>
    <path d="M0,0 L20,10 L20,30 L0,40 Z" class="cell_$procmux$43"/>
    <g s:x="0" s:y="10" s:pid="A"/>
    <g s:x="0" s:y="30" s:pid="B"/>
    <g s:x="10" s:y="35" s:pid="S"/>
    <g s:x="20" s:y="20" s:pid="Y"/>
  </g>
  <g s:type="mux" transform="translate(569.6666666666666,356.5)" s:width="20" s:height="40" id="cell_$procmux$45">
    <s:alias val="$pmux"/>
    <s:alias val="$mux"/>
    <s:alias val="$_MUX_"/>
    <path d="M0,0 L20,10 L20,30 L0,40 Z" class="cell_$procmux$45"/>
    <g s:x="0" s:y="10" s:pid="A"/>
    <g s:x="0" s:y="30" s:pid="B"/>
    <g s:x="10" s:y="35" s:pid="S"/>
    <g s:x="20" s:y="20" s:pid="Y"/>
  </g>
  <g s:type="mux" transform="translate(635.3333333333334,741)" s:width="20" s:height="40" id="cell_$procmux$48">
    <s:alias val="$pmux"/>
    <s:alias val="$mux"/>
    <s:alias val="$_MUX_"/>
    <path d="M0,0 L20,10 L20,30 L0,40 Z" class="cell_$procmux$48"/>
    <g s:x="0" s:y="10" s:pid="A"/>
    <g s:x="0" s:y="30" s:pid="B"/>
    <g s:x="10" s:y="35" s:pid="S"/>
    <g s:x="20" s:y="20" s:pid="Y"/>
  </g>
  <g s:type="mux" transform="translate(349,735)" s:width="20" s:height="40" id="cell_$procmux$51">
    <s:alias val="$pmux"/>
    <s:alias val="$mux"/>
    <s:alias val="$_MUX_"/>
    <path d="M0,0 L20,10 L20,30 L0,40 Z" class="cell_$procmux$51"/>
    <g s:x="0" s:y="10" s:pid="A"/>
    <g s:x="0" s:y="30" s:pid="B"/>
    <g s:x="10" s:y="35" s:pid="S"/>
    <g s:x="20" s:y="20" s:pid="Y"/>
  </g>
  <g s:type="mux" transform="translate(505.6666666666667,826)" s:width="20" s:height="40" id="cell_$procmux$53">
    <s:alias val="$pmux"/>
    <s:alias val="$mux"/>
    <s:alias val="$_MUX_"/>
    <path d="M0,0 L20,10 L20,30 L0,40 Z" class="cell_$procmux$53"/>
    <g s:x="0" s:y="10" s:pid="A"/>
    <g s:x="0" s:y="30" s:pid="B"/>
    <g s:x="10" s:y="35" s:pid="S"/>
    <g s:x="20" s:y="20" s:pid="Y"/>
  </g>
  <g s:type="mux" transform="translate(572.6666666666666,816)" s:width="20" s:height="40" id="cell_$procmux$56">
    <s:alias val="$pmux"/>
    <s:alias val="$mux"/>
    <s:alias val="$_MUX_"/>
    <path d="M0,0 L20,10 L20,30 L0,40 Z" class="cell_$procmux$56"/>
    <g s:x="0" s:y="10" s:pid="A"/>
    <g s:x="0" s:y="30" s:pid="B"/>
    <g s:x="10" s:y="35" s:pid="S"/>
    <g s:x="20" s:y="20" s:pid="Y"/>
  </g>
  <g s:type="mux" transform="translate(505.6666666666667,23)" s:width="20" s:height="40" id="cell_$procmux$59">
    <s:alias val="$pmux"/>
    <s:alias val="$mux"/>
    <s:alias val="$_MUX_"/>
    <path d="M0,0 L20,10 L20,30 L0,40 Z" class="cell_$procmux$59"/>
    <g s:x="0" s:y="10" s:pid="A"/>
    <g s:x="0" s:y="30" s:pid="B"/>
    <g s:x="10" s:y="35" s:pid="S"/>
    <g s:x="20" s:y="20" s:pid="Y"/>
  </g>
  <g s:type="mux" transform="translate(502,172.5)" s:width="20" s:height="40" id="cell_$procmux$62">
    <s:alias val="$pmux"/>
    <s:alias val="$mux"/>
    <s:alias val="$_MUX_"/>
    <path d="M0,0 L20,10 L20,30 L0,40 Z" class="cell_$procmux$62"/>
    <g s:x="0" s:y="10" s:pid="A"/>
    <g s:x="0" s:y="30" s:pid="B"/>
    <g s:x="10" s:y="35" s:pid="S"/>
    <g s:x="20" s:y="20" s:pid="Y"/>
  </g>
  <g s:type="mux" transform="translate(572.6666666666666,33)" s:width="20" s:height="40" id="cell_$procmux$64">
    <s:alias val="$pmux"/>
    <s:alias val="$mux"/>
    <s:alias val="$_MUX_"/>
    <path d="M0,0 L20,10 L20,30 L0,40 Z" class="cell_$procmux$64"/>
    <g s:x="0" s:y="10" s:pid="A"/>
    <g s:x="0" s:y="30" s:pid="B"/>
    <g s:x="10" s:y="35" s:pid="S"/>
    <g s:x="20" s:y="20" s:pid="Y"/>
  </g>
  <g s:type="mux" transform="translate(638.6666666666666,233.5)" s:width="20" s:height="40" id="cell_$procmux$67">
    <s:alias val="$pmux"/>
    <s:alias val="$mux"/>
    <s:alias val="$_MUX_"/>
    <path d="M0,0 L20,10 L20,30 L0,40 Z" class="cell_$procmux$67"/>
    <g s:x="0" s:y="10" s:pid="A"/>
    <g s:x="0" s:y="30" s:pid="B"/>
    <g s:x="10" s:y="35" s:pid="S"/>
    <g s:x="20" s:y="20" s:pid="Y"/>
  </g>
  <g s:type="sub" transform="translate(498.6666666666667,1195)" s:width="25" s:height="25" id="cell_$sub$txuartlite.v:202$20">
    <s:alias val="$sub"/>
    <circle r="12.5" cx="12.5" cy="12.5" class="cell_$sub$txuartlite.v:202$20"/>
    <line x1="7.5" x2="17.5" y1="12.5" y2="12.5" class="cell_$sub$txuartlite.v:202$20"/>
    <g s:x="3" s:y="5" s:pid="A"/>
    <g s:x="3" s:y="20" s:pid="B"/>
    <g s:x="25" s:y="12.5" s:pid="Y"/>
  </g>
  <g s:type="inputExt" transform="translate(237,806)" s:width="30" s:height="20" id="cell_i_clk">
    <text x="15" y="-4" class="nodelabel cell_i_clk" s:attribute="ref">i_clk</text>
    <s:alias val="$_inputExt_"/>
    <path d="M0,0 L0,20 L15,20 L30,10 L15,0 Z" class="cell_i_clk"/>
    <g s:x="28" s:y="10" s:pid="Y"/>
  </g>
  <g s:type="inputExt" transform="translate(12,1255)" s:width="30" s:height="20" id="cell_i_wr">
    <text x="15" y="-4" class="nodelabel cell_i_wr" s:attribute="ref">i_wr</text>
    <s:alias val="$_inputExt_"/>
    <path d="M0,0 L0,20 L15,20 L30,10 L15,0 Z" class="cell_i_wr"/>
    <g s:x="28" s:y="10" s:pid="Y"/>
  </g>
  <g s:type="inputExt" transform="translate(561,761)" s:width="30" s:height="20" id="cell_i_data">
    <text x="15" y="-4" class="nodelabel cell_i_data" s:attribute="ref">i_data</text>
    <s:alias val="$_inputExt_"/>
    <path d="M0,0 L0,20 L15,20 L30,10 L15,0 Z" class="cell_i_data"/>
    <g s:x="28" s:y="10" s:pid="Y"/>
  </g>
  <g s:type="outputExt" transform="translate(709,532)" s:width="30" s:height="20" id="cell_o_uart_tx">
    <text x="15" y="-4" class="nodelabel cell_o_uart_tx" s:attribute="ref">o_uart_tx</text>
    <s:alias val="$_outputExt_"/>
    <path d="M30,0 L30,20 L15,20 L0,10 L15,0 Z" class="cell_o_uart_tx"/>
    <g s:x="0" s:y="10" s:pid="A"/>
  </g>
  <g s:type="outputExt" transform="translate(709,812)" s:width="30" s:height="20" id="cell_o_busy">
    <text x="15" y="-4" class="nodelabel cell_o_busy" s:attribute="ref">o_busy</text>
    <s:alias val="$_outputExt_"/>
    <path d="M30,0 L30,20 L15,20 L0,10 L15,0 Z" class="cell_o_busy"/>
    <g s:x="0" s:y="10" s:pid="A"/>
  </g>
  <g s:type="constant" transform="translate(77,1205)" s:width="30" s:height="20" id="cell_1">
    <text x="15" y="-4" class="nodelabel cell_1" s:attribute="ref">1</text>
    <s:alias val="$_constant_"/>
    <rect width="30" height="20" class="cell_1"/>
    <g s:x="30" s:y="10" s:pid="Y"/>
  </g>
  <g s:type="constant" transform="translate(77,670)" s:width="30" s:height="20" id="cell_1111">
    <text x="15" y="-4" class="nodelabel cell_1111" s:attribute="ref">0xf</text>
    <s:alias val="$_constant_"/>
    <rect width="30" height="20" class="cell_1111"/>
    <g s:x="30" s:y="10" s:pid="Y"/>
  </g>
  <g s:type="constant" transform="translate(237,83)" s:width="30" s:height="20" id="cell_1000">
    <text x="15" y="-4" class="nodelabel cell_1000" s:attribute="ref">0x8</text>
    <s:alias val="$_constant_"/>
    <rect width="30" height="20" class="cell_1000"/>
    <g s:x="30" s:y="10" s:pid="Y"/>
  </g>
  <g s:type="constant" transform="translate(496,939)" s:width="30" s:height="20" id="cell_000000000000000000000111">
    <text x="15" y="-4" class="nodelabel cell_000000000000000000000111" s:attribute="ref">0x7</text>
    <s:alias val="$_constant_"/>
    <rect width="30" height="20" class="cell_000000000000000000000111"/>
    <g s:x="30" s:y="10" s:pid="Y"/>
  </g>
  <g s:type="constant" transform="translate(314,949)" s:width="30" s:height="20" id="cell_000">
    <text x="15" y="-4" class="nodelabel cell_000" s:attribute="ref">000</text>
    <s:alias val="$_constant_"/>
    <rect width="30" height="20" class="cell_000"/>
    <g s:x="30" s:y="10" s:pid="Y"/>
  </g>
  <g s:type="constant" transform="translate(314,1014)" s:width="30" s:height="20" id="cell_111">
    <text x="15" y="-4" class="nodelabel cell_111" s:attribute="ref">111</text>
    <s:alias val="$_constant_"/>
    <rect width="30" height="20" class="cell_111"/>
    <g s:x="30" s:y="10" s:pid="Y"/>
  </g>
  <g s:type="constant" transform="translate(496,1140)" s:width="30" s:height="20" id="cell_000000000000000000000">
    <text x="15" y="-4" class="nodelabel cell_000000000000000000000" s:attribute="ref">0x0</text>
    <s:alias val="$_constant_"/>
    <rect width="30" height="20" class="cell_000000000000000000000"/>
    <g s:x="30" s:y="10" s:pid="Y"/>
  </g>
  <g s:type="constant" transform="translate(77,735)" s:width="30" s:height="20" id="cell_0">
    <text x="15" y="-4" class="nodelabel cell_0" s:attribute="ref">0</text>
    <s:alias val="$_constant_"/>
    <rect width="30" height="20" class="cell_0"/>
    <g s:x="30" s:y="10" s:pid="Y"/>
  </g>
  <g s:type="constant" transform="translate(314,192.5)" s:width="30" s:height="20" id="cell_0000">
    <text x="15" y="-4" class="nodelabel cell_0000" s:attribute="ref">0x0</text>
    <s:alias val="$_constant_"/>
    <rect width="30" height="20" class="cell_0000"/>
    <g s:x="30" s:y="10" s:pid="Y"/>
  </g>
  <g s:type="join" transform="translate(580,1119.5)" s:width="4" s:height="40" id="cell_$join$,147,148,149,214,215,216,217,218,219,220,221,222,223,224,225,226,227,228,229,230,231,232,233,234,">
    <rect width="5" height="40" class="splitjoinBody" s:generic="body"/>
    <s:alias val="$_join_"/>
    <g s:x="5" s:y="20" s:pid="out"/>
    <g transform="translate(0,10)" s:x="0" s:y="10" s:pid="in0">
      <text x="-3" y="-4" class="inputPortLabel">0:2</text>
    </g>
    <g transform="translate(0,30)" s:x="0" s:y="10" s:pid="in0">
      <text x="-3" y="-4" class="inputPortLabel">3:23</text>
    </g>
  </g>
  <g s:type="join" transform="translate(515,366)" s:width="4" s:height="40" id="cell_$join$,87,88,89,90,91,92,93,174,">
    <rect width="5" height="40" class="splitjoinBody" s:generic="body"/>
    <s:alias val="$_join_"/>
    <g s:x="5" s:y="20" s:pid="out"/>
    <g transform="translate(0,10)" s:x="0" s:y="10" s:pid="in0">
      <text x="-3" y="-4" class="inputPortLabel">0:6</text>
    </g>
    <g transform="translate(0,30)" s:x="0" s:y="10" s:pid="in0">
      <text x="-3" y="-4" class="inputPortLabel">7</text>
    </g>
  </g>
  <g s:type="split" transform="translate(339,660)" s:width="5" s:height="40" id="cell_$split$,86,87,88,89,90,91,92,93,">
    <rect width="5" height="40" class="splitjoinBody" s:generic="body"/>
    <s:alias val="$_split_"/>
    <g s:x="0" s:y="20" s:pid="in"/>
    <g transform="translate(4,10)" s:x="4" s:y="10" s:pid="out0">
      <text x="5" y="-4">0</text>
    </g>
    <g transform="translate(4,30)" s:x="4" s:y="10" s:pid="out0">
      <text x="5" y="-4">1:7</text>
    </g>
  </g>
  <line x1="739" x2="923" y1="253.5" y2="253.5" class="net_14,15,16,17"/>
  <line x1="923" x2="923" y1="253.5" y2="12" class="net_14,15,16,17"/>
  <line x1="923" x2="277" y1="12" y2="12" class="net_14,15,16,17"/>
  <line x1="277" x2="277" y1="12" y2="131.5" class="net_14,15,16,17"/>
  <line x1="277" x2="352" y1="131.5" y2="131.5" class="net_14,15,16,17"/>
  <line x1="739" x2="923" y1="253.5" y2="253.5" class="net_14,15,16,17"/>
  <line x1="923" x2="923" y1="253.5" y2="12" class="net_14,15,16,17"/>
  <line x1="923" x2="127" y1="12" y2="12" class="net_14,15,16,17"/>
  <line x1="127" x2="127" y1="12" y2="665" class="net_14,15,16,17"/>
  <line x1="127" x2="180" y1="665" y2="665" class="net_14,15,16,17"/>
  <line x1="739" x2="923" y1="253.5" y2="253.5" class="net_14,15,16,17"/>
  <line x1="923" x2="923" y1="253.5" y2="12" class="net_14,15,16,17"/>
  <line x1="923" x2="277" y1="12" y2="12" class="net_14,15,16,17"/>
  <line x1="277" x2="277" y1="12" y2="73" class="net_14,15,16,17"/>
  <circle cx="277" cy="73" r="2" style="fill:#000" class="net_14,15,16,17"/>
  <circle cx="277" cy="12" r="2" style="fill:#000" class="net_14,15,16,17"/>
  <circle cx="923" cy="253.5" r="2" style="fill:#000" class="net_14,15,16,17"/>
  <line x1="277" x2="314" y1="73" y2="73" class="net_14,15,16,17"/>
  <line x1="739" x2="923" y1="253.5" y2="253.5" class="net_14,15,16,17"/>
  <line x1="923" x2="923" y1="253.5" y2="314.5" class="net_14,15,16,17"/>
  <line x1="923" x2="486" y1="314.5" y2="314.5" class="net_14,15,16,17"/>
  <line x1="486" x2="486" y1="314.5" y2="182.5" class="net_14,15,16,17"/>
  <line x1="486" x2="502" y1="182.5" y2="182.5" class="net_14,15,16,17"/>
  <line x1="739" x2="923" y1="253.5" y2="253.5" class="net_14,15,16,17"/>
  <line x1="923" x2="923" y1="253.5" y2="293.5" class="net_14,15,16,17"/>
  <line x1="923" x2="607" y1="293.5" y2="293.5" class="net_14,15,16,17"/>
  <line x1="607" x2="607" y1="293.5" y2="243.5" class="net_14,15,16,17"/>
  <circle cx="923" cy="293.5" r="2" style="fill:#000" class="net_14,15,16,17"/>
  <line x1="607" x2="638.6666666666666" y1="243.5" y2="243.5" class="net_14,15,16,17"/>
  <line x1="107" x2="157" y1="1215" y2="1215" class="net_174"/>
  <line x1="157" x2="157" y1="1215" y2="146.5" class="net_174"/>
  <circle cx="157" cy="1215" r="2" style="fill:#000" class="net_174"/>
  <line x1="157" x2="352" y1="146.5" y2="146.5" class="net_174"/>
  <line x1="107" x2="157" y1="1215" y2="1215" class="net_174"/>
  <line x1="157" x2="157" y1="1215" y2="821" class="net_174"/>
  <circle cx="157" cy="821" r="2" style="fill:#000" class="net_174"/>
  <line x1="157" x2="180" y1="821" y2="821" class="net_174"/>
  <line x1="107" x2="157" y1="1215" y2="1215" class="net_174"/>
  <line x1="157" x2="157" y1="1215" y2="512" class="net_174"/>
  <circle cx="157" cy="512" r="2" style="fill:#000" class="net_174"/>
  <line x1="157" x2="178.66666666666666" y1="512" y2="512" class="net_174"/>
  <line x1="107" x2="157" y1="1215" y2="1215" class="net_174"/>
  <line x1="157" x2="157" y1="1215" y2="765" class="net_174"/>
  <circle cx="157" cy="765" r="2" style="fill:#000" class="net_174"/>
  <line x1="157" x2="349" y1="765" y2="765" class="net_174"/>
  <line x1="107" x2="157" y1="1215" y2="1215" class="net_174"/>
  <line x1="157" x2="157" y1="1215" y2="836" class="net_174"/>
  <circle cx="157" cy="836" r="2" style="fill:#000" class="net_174"/>
  <line x1="157" x2="505.6666666666667" y1="836" y2="836" class="net_174"/>
  <line x1="107" x2="157" y1="1215" y2="1215" class="net_174"/>
  <line x1="157" x2="157" y1="1215" y2="836" class="net_174"/>
  <line x1="157" x2="486" y1="836" y2="836" class="net_174"/>
  <line x1="486" x2="486" y1="836" y2="815" class="net_174"/>
  <line x1="486" x2="536" y1="815" y2="815" class="net_174"/>
  <line x1="536" x2="536" y1="815" y2="826" class="net_174"/>
  <circle cx="486" cy="836" r="2" style="fill:#000" class="net_174"/>
  <line x1="536" x2="572.6666666666666" y1="826" y2="826" class="net_174"/>
  <line x1="107" x2="501.6666666666667" y1="1215" y2="1215" class="net_174"/>
  <line x1="107" x2="157" y1="1215" y2="1215" class="net_174"/>
  <line x1="157" x2="157" y1="1215" y2="396.5" class="net_174"/>
  <circle cx="157" cy="396.5" r="2" style="fill:#000" class="net_174"/>
  <line x1="157" x2="515" y1="396.5" y2="396.5" class="net_174"/>
  <line x1="739" x2="903" y1="959.5" y2="959.5" class="net_22,23,24,25,26,27,28,29,30,31,32,33,34,35,36,37,38,39,40,41,42,43,44,45"/>
  <line x1="903" x2="903" y1="959.5" y2="1284" class="net_22,23,24,25,26,27,28,29,30,31,32,33,34,35,36,37,38,39,40,41,42,43,44,45"/>
  <line x1="903" x2="147" y1="1284" y2="1284" class="net_22,23,24,25,26,27,28,29,30,31,32,33,34,35,36,37,38,39,40,41,42,43,44,45"/>
  <line x1="147" x2="147" y1="1284" y2="806" class="net_22,23,24,25,26,27,28,29,30,31,32,33,34,35,36,37,38,39,40,41,42,43,44,45"/>
  <line x1="147" x2="180" y1="806" y2="806" class="net_22,23,24,25,26,27,28,29,30,31,32,33,34,35,36,37,38,39,40,41,42,43,44,45"/>
  <line x1="739" x2="903" y1="959.5" y2="959.5" class="net_22,23,24,25,26,27,28,29,30,31,32,33,34,35,36,37,38,39,40,41,42,43,44,45"/>
  <line x1="903" x2="903" y1="959.5" y2="1284" class="net_22,23,24,25,26,27,28,29,30,31,32,33,34,35,36,37,38,39,40,41,42,43,44,45"/>
  <line x1="903" x2="456" y1="1284" y2="1284" class="net_22,23,24,25,26,27,28,29,30,31,32,33,34,35,36,37,38,39,40,41,42,43,44,45"/>
  <line x1="456" x2="456" y1="1284" y2="1200" class="net_22,23,24,25,26,27,28,29,30,31,32,33,34,35,36,37,38,39,40,41,42,43,44,45"/>
  <circle cx="456" cy="1284" r="2" style="fill:#000" class="net_22,23,24,25,26,27,28,29,30,31,32,33,34,35,36,37,38,39,40,41,42,43,44,45"/>
  <line x1="456" x2="501.6666666666667" y1="1200" y2="1200" class="net_22,23,24,25,26,27,28,29,30,31,32,33,34,35,36,37,38,39,40,41,42,43,44,45"/>
  <line x1="107" x2="180" y1="680" y2="680" class="net_176,177,178,179"/>
  <line x1="107" x2="117" y1="680" y2="680" class="net_176,177,178,179"/>
  <line x1="117" x2="117" y1="680" y2="115.5" class="net_176,177,178,179"/>
  <line x1="117" x2="456" y1="115.5" y2="115.5" class="net_176,177,178,179"/>
  <line x1="456" x2="456" y1="115.5" y2="33" class="net_176,177,178,179"/>
  <circle cx="117" cy="680" r="2" style="fill:#000" class="net_176,177,178,179"/>
  <line x1="456" x2="505.6666666666667" y1="33" y2="33" class="net_176,177,178,179"/>
  <line x1="267" x2="314" y1="93" y2="93" class="net_180,181,182,183"/>
  <line x1="40" x2="77" y1="1265" y2="1265" class="net_3"/>
  <line x1="740" x2="893" y1="1045" y2="1045" class="net_49"/>
  <line x1="893" x2="893" y1="1045" y2="1295" class="net_49"/>
  <line x1="893" x2="52" y1="1295" y2="1295" class="net_49"/>
  <line x1="52" x2="52" y1="1295" y2="1280" class="net_49"/>
  <line x1="52" x2="77" y1="1280" y2="1280" class="net_49"/>
  <line x1="662" x2="709" y1="1045" y2="1045" class="net_13"/>
  <line x1="662" x2="672" y1="1045" y2="1045" class="net_13"/>
  <line x1="672" x2="672" y1="1045" y2="822" class="net_13"/>
  <circle cx="672" cy="1045" r="2" style="fill:#000" class="net_13"/>
  <line x1="672" x2="709" y1="822" y2="822" class="net_13"/>
  <line x1="265" x2="287" y1="816" y2="816" class="net_2"/>
  <line x1="287" x2="287" y1="816" y2="1262" class="net_2"/>
  <line x1="287" x2="692" y1="1262" y2="1262" class="net_2"/>
  <line x1="692" x2="692" y1="1262" y2="979.5" class="net_2"/>
  <circle cx="287" cy="816" r="2" style="fill:#000" class="net_2"/>
  <line x1="692" x2="709" y1="979.5" y2="979.5" class="net_2"/>
  <line x1="265" x2="287" y1="816" y2="816" class="net_2"/>
  <line x1="287" x2="287" y1="816" y2="613" class="net_2"/>
  <circle cx="287" cy="613" r="2" style="fill:#000" class="net_2"/>
  <line x1="287" x2="345.6666666666667" y1="613" y2="613" class="net_2"/>
  <line x1="265" x2="287" y1="816" y2="816" class="net_2"/>
  <line x1="287" x2="287" y1="816" y2="501" class="net_2"/>
  <line x1="287" x2="607" y1="501" y2="501" class="net_2"/>
  <line x1="607" x2="607" y1="501" y2="562" class="net_2"/>
  <circle cx="287" cy="501" r="2" style="fill:#000" class="net_2"/>
  <line x1="607" x2="632" y1="562" y2="562" class="net_2"/>
  <line x1="265" x2="287" y1="816" y2="816" class="net_2"/>
  <line x1="287" x2="287" y1="816" y2="897" class="net_2"/>
  <circle cx="287" cy="897" r="2" style="fill:#000" class="net_2"/>
  <line x1="287" x2="709" y1="897" y2="897" class="net_2"/>
  <line x1="265" x2="287" y1="816" y2="816" class="net_2"/>
  <line x1="287" x2="287" y1="816" y2="222.5" class="net_2"/>
  <line x1="287" x2="672" y1="222.5" y2="222.5" class="net_2"/>
  <line x1="672" x2="672" y1="222.5" y2="273.5" class="net_2"/>
  <line x1="672" x2="709" y1="273.5" y2="273.5" class="net_2"/>
  <line x1="265" x2="287" y1="816" y2="816" class="net_2"/>
  <line x1="287" x2="287" y1="816" y2="1065" class="net_2"/>
  <circle cx="287" cy="1065" r="2" style="fill:#000" class="net_2"/>
  <line x1="287" x2="632" y1="1065" y2="1065" class="net_2"/>
  <line x1="655.3333333333334" x2="682" y1="1130" y2="1130" class="net_51,52,53,54,55,56,57,58,59,60,61,62,63,64,65,66,67,68,69,70,71,72,73,74"/>
  <line x1="682" x2="682" y1="1130" y2="959.5" class="net_51,52,53,54,55,56,57,58,59,60,61,62,63,64,65,66,67,68,69,70,71,72,73,74"/>
  <line x1="682" x2="709" y1="959.5" y2="959.5" class="net_51,52,53,54,55,56,57,58,59,60,61,62,63,64,65,66,67,68,69,70,71,72,73,74"/>
  <line x1="260.33333333333337" x2="297" y1="512" y2="512" class="net_75"/>
  <line x1="297" x2="297" y1="512" y2="593" class="net_75"/>
  <line x1="297" x2="345.6666666666667" y1="593" y2="593" class="net_75"/>
  <line x1="592.6666666666666" x2="632" y1="542" y2="542" class="net_77"/>
  <line x1="655.3333333333334" x2="682" y1="761" y2="761" class="net_78,79,80,81,82,83,84,85"/>
  <line x1="682" x2="682" y1="761" y2="877" class="net_78,79,80,81,82,83,84,85"/>
  <line x1="682" x2="709" y1="877" y2="877" class="net_78,79,80,81,82,83,84,85"/>
  <line x1="658.6666666666666" x2="709" y1="253.5" y2="253.5" class="net_94,95,96,97"/>
  <line x1="592.6666666666666" x2="617" y1="836" y2="836" class="net_98"/>
  <line x1="617" x2="617" y1="836" y2="1045" class="net_98"/>
  <line x1="617" x2="632" y1="1045" y2="1045" class="net_98"/>
  <line x1="523.6666666666667" x2="536" y1="1207.5" y2="1207.5" class="net_99,100,101,102,103,104,105,106,107,108,109,110,111,112,113,114,115,116,117,118,119,120,121,122"/>
  <line x1="536" x2="536" y1="1207.5" y2="929" class="net_99,100,101,102,103,104,105,106,107,108,109,110,111,112,113,114,115,116,117,118,119,120,121,122"/>
  <line x1="536" x2="572.6666666666666" y1="929" y2="929" class="net_99,100,101,102,103,104,105,106,107,108,109,110,111,112,113,114,115,116,117,118,119,120,121,122"/>
  <line x1="526" x2="572.6666666666666" y1="949" y2="949" class="net_184,185,186,187,188,189,190,191,192,193,194,195,196,197,198,199,200,201,202,203,204,205,206,207"/>
  <line x1="375.6666666666667" x2="476" y1="593" y2="593" class="net_76"/>
  <line x1="476" x2="476" y1="593" y2="1054" class="net_76"/>
  <line x1="476" x2="582.6666666666666" y1="1054" y2="1054" class="net_76"/>
  <circle cx="476" cy="593" r="2" style="fill:#000" class="net_76"/>
  <line x1="582.6666666666666" x2="582.6666666666666" y1="1054" y2="954" class="net_76"/>
  <line x1="375.6666666666667" x2="476" y1="593" y2="593" class="net_76"/>
  <line x1="476" x2="476" y1="593" y2="491" class="net_76"/>
  <line x1="476" x2="512" y1="491" y2="491" class="net_76"/>
  <circle cx="476" cy="491" r="2" style="fill:#000" class="net_76"/>
  <line x1="512" x2="512" y1="491" y2="476" class="net_76"/>
  <line x1="375.6666666666667" x2="476" y1="593" y2="593" class="net_76"/>
  <line x1="476" x2="476" y1="593" y2="512" class="net_76"/>
  <line x1="476" x2="579.6666666666666" y1="512" y2="512" class="net_76"/>
  <circle cx="476" cy="512" r="2" style="fill:#000" class="net_76"/>
  <line x1="579.6666666666666" x2="579.6666666666666" y1="512" y2="391.5" class="net_76"/>
  <line x1="375.6666666666667" x2="476" y1="593" y2="593" class="net_76"/>
  <line x1="476" x2="476" y1="593" y2="886" class="net_76"/>
  <line x1="476" x2="582.6666666666666" y1="886" y2="886" class="net_76"/>
  <circle cx="476" cy="886" r="2" style="fill:#000" class="net_76"/>
  <line x1="582.6666666666666" x2="582.6666666666666" y1="886" y2="851" class="net_76"/>
  <line x1="375.6666666666667" x2="476" y1="593" y2="593" class="net_76"/>
  <line x1="476" x2="476" y1="593" y2="345.5" class="net_76"/>
  <line x1="476" x2="648.6666666666666" y1="345.5" y2="345.5" class="net_76"/>
  <line x1="648.6666666666666" x2="648.6666666666666" y1="345.5" y2="268.5" class="net_76"/>
  <line x1="344" x2="486" y1="959" y2="959" class="net_208,209,210"/>
  <line x1="486" x2="486" y1="959" y2="1004" class="net_208,209,210"/>
  <line x1="486" x2="505.6666666666667" y1="1004" y2="1004" class="net_208,209,210"/>
  <line x1="344" x2="505.6666666666667" y1="1024" y2="1024" class="net_211,212,213"/>
  <line x1="107" x2="137" y1="1272.5" y2="1272.5" class="net_50"/>
  <line x1="137" x2="137" y1="1272.5" y2="1044" class="net_50"/>
  <line x1="137" x2="515.6666666666667" y1="1044" y2="1044" class="net_50"/>
  <circle cx="137" cy="1044" r="2" style="fill:#000" class="net_50"/>
  <line x1="515.6666666666667" x2="515.6666666666667" y1="1044" y2="1029" class="net_50"/>
  <line x1="107" x2="137" y1="1272.5" y2="1272.5" class="net_50"/>
  <line x1="137" x2="137" y1="1272.5" y2="650" class="net_50"/>
  <line x1="137" x2="188.66666666666666" y1="650" y2="650" class="net_50"/>
  <circle cx="137" cy="650" r="2" style="fill:#000" class="net_50"/>
  <line x1="188.66666666666666" x2="188.66666666666666" y1="650" y2="537" class="net_50"/>
  <line x1="107" x2="137" y1="1272.5" y2="1272.5" class="net_50"/>
  <line x1="137" x2="137" y1="1272.5" y2="572" class="net_50"/>
  <line x1="137" x2="582.6666666666666" y1="572" y2="572" class="net_50"/>
  <circle cx="137" cy="572" r="2" style="fill:#000" class="net_50"/>
  <line x1="582.6666666666666" x2="582.6666666666666" y1="572" y2="557" class="net_50"/>
  <line x1="107" x2="137" y1="1272.5" y2="1272.5" class="net_50"/>
  <line x1="137" x2="137" y1="1272.5" y2="1044" class="net_50"/>
  <line x1="137" x2="297" y1="1044" y2="1044" class="net_50"/>
  <line x1="297" x2="297" y1="1044" y2="908" class="net_50"/>
  <line x1="297" x2="645.3333333333334" y1="908" y2="908" class="net_50"/>
  <circle cx="297" cy="1044" r="2" style="fill:#000" class="net_50"/>
  <line x1="645.3333333333334" x2="645.3333333333334" y1="908" y2="776" class="net_50"/>
  <line x1="107" x2="137" y1="1272.5" y2="1272.5" class="net_50"/>
  <line x1="137" x2="137" y1="1272.5" y2="785" class="net_50"/>
  <line x1="137" x2="359" y1="785" y2="785" class="net_50"/>
  <circle cx="137" cy="785" r="2" style="fill:#000" class="net_50"/>
  <line x1="359" x2="359" y1="785" y2="770" class="net_50"/>
  <line x1="107" x2="137" y1="1272.5" y2="1272.5" class="net_50"/>
  <line x1="137" x2="137" y1="1272.5" y2="324.5" class="net_50"/>
  <line x1="137" x2="512" y1="324.5" y2="324.5" class="net_50"/>
  <line x1="512" x2="512" y1="324.5" y2="207.5" class="net_50"/>
  <line x1="592.6666666666666" x2="607" y1="939" y2="939" class="net_123,124,125,126,127,128,129,130,131,132,133,134,135,136,137,138,139,140,141,142,143,144,145,146"/>
  <line x1="607" x2="607" y1="939" y2="1120" class="net_123,124,125,126,127,128,129,130,131,132,133,134,135,136,137,138,139,140,141,142,143,144,145,146"/>
  <line x1="607" x2="635.3333333333334" y1="1120" y2="1120" class="net_123,124,125,126,127,128,129,130,131,132,133,134,135,136,137,138,139,140,141,142,143,144,145,146"/>
  <line x1="586" x2="635.3333333333334" y1="1140" y2="1140" class="net_147,148,149,214,215,216,217,218,219,220,221,222,223,224,225,226,227,228,229,230,231,232,233,234"/>
  <line x1="202" x2="222" y1="672.5" y2="672.5" class="net_47"/>
  <line x1="222" x2="222" y1="672.5" y2="1251" class="net_47"/>
  <line x1="222" x2="645.3333333333334" y1="1251" y2="1251" class="net_47"/>
  <circle cx="222" cy="672.5" r="2" style="fill:#000" class="net_47"/>
  <line x1="645.3333333333334" x2="645.3333333333334" y1="1251" y2="1145" class="net_47"/>
  <line x1="202" x2="222" y1="672.5" y2="672.5" class="net_47"/>
  <line x1="222" x2="222" y1="672.5" y2="542" class="net_47"/>
  <line x1="222" x2="250.33333333333334" y1="542" y2="542" class="net_47"/>
  <circle cx="222" cy="542" r="2" style="fill:#000" class="net_47"/>
  <line x1="250.33333333333334" x2="250.33333333333334" y1="542" y2="527" class="net_47"/>
  <line x1="202" x2="222" y1="672.5" y2="672.5" class="net_47"/>
  <line x1="222" x2="222" y1="672.5" y2="876" class="net_47"/>
  <line x1="222" x2="515.6666666666667" y1="876" y2="876" class="net_47"/>
  <circle cx="222" cy="876" r="2" style="fill:#000" class="net_47"/>
  <line x1="515.6666666666667" x2="515.6666666666667" y1="876" y2="861" class="net_47"/>
  <line x1="202" x2="222" y1="672.5" y2="672.5" class="net_47"/>
  <line x1="222" x2="222" y1="672.5" y2="161.5" class="net_47"/>
  <line x1="222" x2="582.6666666666666" y1="161.5" y2="161.5" class="net_47"/>
  <line x1="582.6666666666666" x2="582.6666666666666" y1="161.5" y2="68" class="net_47"/>
  <line x1="107" x2="167" y1="745" y2="745" class="net_236"/>
  <line x1="167" x2="167" y1="745" y2="532" class="net_236"/>
  <circle cx="167" cy="745" r="2" style="fill:#000" class="net_236"/>
  <line x1="167" x2="178.66666666666666" y1="532" y2="532" class="net_236"/>
  <line x1="107" x2="167" y1="745" y2="745" class="net_236"/>
  <line x1="167" x2="167" y1="745" y2="552" class="net_236"/>
  <circle cx="167" cy="552" r="2" style="fill:#000" class="net_236"/>
  <line x1="167" x2="572.6666666666666" y1="552" y2="552" class="net_236"/>
  <line x1="107" x2="349" y1="745" y2="745" class="net_236"/>
  <line x1="202" x2="212" y1="813.5" y2="813.5" class="net_46"/>
  <line x1="212" x2="212" y1="813.5" y2="502" class="net_46"/>
  <line x1="212" x2="240.33333333333334" y1="502" y2="502" class="net_46"/>
  <line x1="198.66666666666666" x2="240.33333333333334" y1="522" y2="522" class="net_150"/>
  <line x1="662" x2="672" y1="542" y2="542" class="net_12"/>
  <line x1="672" x2="672" y1="542" y2="334.5" class="net_12"/>
  <line x1="672" x2="486" y1="334.5" y2="334.5" class="net_12"/>
  <line x1="486" x2="486" y1="334.5" y2="451" class="net_12"/>
  <circle cx="672" cy="542" r="2" style="fill:#000" class="net_12"/>
  <line x1="486" x2="502" y1="451" y2="451" class="net_12"/>
  <line x1="662" x2="709" y1="542" y2="542" class="net_12"/>
  <line x1="344" x2="456" y1="670.5" y2="670.5" class="net_86"/>
  <line x1="456" x2="456" y1="670.5" y2="471" class="net_86"/>
  <line x1="456" x2="502" y1="471" y2="471" class="net_86"/>
  <line x1="522" x2="536" y1="461" y2="461" class="net_151"/>
  <line x1="536" x2="536" y1="461" y2="532" class="net_151"/>
  <line x1="536" x2="572.6666666666666" y1="532" y2="532" class="net_151"/>
  <line x1="739" x2="913" y1="877" y2="877" class="net_86,87,88,89,90,91,92,93"/>
  <line x1="913" x2="913" y1="877" y2="303.5" class="net_86,87,88,89,90,91,92,93"/>
  <line x1="913" x2="546" y1="303.5" y2="303.5" class="net_86,87,88,89,90,91,92,93"/>
  <line x1="546" x2="546" y1="303.5" y2="366.5" class="net_86,87,88,89,90,91,92,93"/>
  <circle cx="913" cy="877" r="2" style="fill:#000" class="net_86,87,88,89,90,91,92,93"/>
  <line x1="546" x2="569.6666666666666" y1="366.5" y2="366.5" class="net_86,87,88,89,90,91,92,93"/>
  <line x1="739" x2="913" y1="877" y2="877" class="net_86,87,88,89,90,91,92,93"/>
  <line x1="913" x2="913" y1="877" y2="1273" class="net_86,87,88,89,90,91,92,93"/>
  <line x1="913" x2="277" y1="1273" y2="1273" class="net_86,87,88,89,90,91,92,93"/>
  <line x1="277" x2="277" y1="1273" y2="680.5" class="net_86,87,88,89,90,91,92,93"/>
  <line x1="277" x2="339" y1="680.5" y2="680.5" class="net_86,87,88,89,90,91,92,93"/>
  <line x1="521" x2="569.6666666666666" y1="386.5" y2="386.5" class="net_87,88,89,90,91,92,93,174"/>
  <line x1="589.6666666666666" x2="617" y1="376.5" y2="376.5" class="net_152,153,154,155,156,157,158,159"/>
  <line x1="617" x2="617" y1="376.5" y2="751" class="net_152,153,154,155,156,157,158,159"/>
  <line x1="617" x2="635.3333333333334" y1="751" y2="751" class="net_152,153,154,155,156,157,158,159"/>
  <line x1="589" x2="635.3333333333334" y1="771" y2="771" class="net_4,5,6,7,8,9,10,11"/>
  <line x1="369" x2="456" y1="755" y2="755" class="net_160"/>
  <line x1="456" x2="456" y1="755" y2="856" class="net_160"/>
  <line x1="456" x2="505.6666666666667" y1="856" y2="856" class="net_160"/>
  <line x1="525.6666666666667" x2="572.6666666666666" y1="846" y2="846" class="net_161"/>
  <line x1="374" x2="466" y1="139" y2="139" class="net_18,19,20,21"/>
  <line x1="466" x2="466" y1="139" y2="53" class="net_18,19,20,21"/>
  <line x1="466" x2="505.6666666666667" y1="53" y2="53" class="net_18,19,20,21"/>
  <line x1="345" x2="515.6666666666667" y1="73" y2="73" class="net_48"/>
  <line x1="515.6666666666667" x2="515.6666666666667" y1="73" y2="58" class="net_48"/>
  <line x1="344" x2="502" y1="202.5" y2="202.5" class="net_247,248,249,250"/>
  <line x1="525.6666666666667" x2="572.6666666666666" y1="43" y2="43" class="net_162,163,164,165"/>
  <line x1="522" x2="536" y1="192.5" y2="192.5" class="net_166,167,168,169"/>
  <line x1="536" x2="536" y1="192.5" y2="63" class="net_166,167,168,169"/>
  <line x1="536" x2="572.6666666666666" y1="63" y2="63" class="net_166,167,168,169"/>
  <line x1="592.6666666666666" x2="617" y1="53" y2="53" class="net_170,171,172,173"/>
  <line x1="617" x2="617" y1="53" y2="263.5" class="net_170,171,172,173"/>
  <line x1="617" x2="638.6666666666666" y1="263.5" y2="263.5" class="net_170,171,172,173"/>
  <line x1="525.6666666666667" x2="546" y1="1014" y2="1014" class="net_147,148,149"/>
  <line x1="546" x2="546" y1="1014" y2="1130" class="net_147,148,149"/>
  <line x1="546" x2="580" y1="1130" y2="1130" class="net_147,148,149"/>
  <line x1="526" x2="580" y1="1150" y2="1150" class="net_214,215,216,217,218,219,220,221,222,223,224,225,226,227,228,229,230,231,232,233,234"/>
  <line x1="344" x2="466" y1="690.5" y2="690.5" class="net_87,88,89,90,91,92,93"/>
  <line x1="466" x2="466" y1="690.5" y2="376.5" class="net_87,88,89,90,91,92,93"/>
  <line x1="466" x2="515" y1="376.5" y2="376.5" class="net_87,88,89,90,91,92,93"/>
</svg>
