<svg xmlns="http://www.w3.org/2000/svg" xmlns:xlink="http://www.w3.org/1999/xlink" xmlns:s="https://github.com/nturley/netlistsvg" width="1115" height="824">
  <style>svg {
    stroke:#000;
    fill:none;
  }
  text {
    fill:#000;
    stroke:none;
    font-size:10px;
    font-weight: bold;
    font-family: "Courier New", monospace;
  }
  .nodelabel {
    text-anchor: middle;
  }
  .inputPortLabel {
    text-anchor: end;
  }
  .splitjoinBody {
    fill:#000;
  }</style>
  <g s:type="add" transform="translate(292,75)" s:width="25" s:height="25" id="cell_$add$vga_sync.v:129$3">
    <s:alias val="$add"/>
    <circle r="12.5" cx="12.5" cy="12.5" class="cell_$add$vga_sync.v:129$3"/>
    <line x1="7.5" x2="17.5" y1="12.5" y2="12.5" class="cell_$add$vga_sync.v:129$3"/>
    <line x1="12.5" x2="12.5" y1="7.5" y2="17.5" class="cell_$add$vga_sync.v:129$3"/>
    <g s:x="3" s:y="5" s:pid="A"/>
    <g s:x="3" s:y="20" s:pid="B"/>
    <g s:x="25" s:y="12.5" s:pid="Y"/>
  </g>
  <g s:type="add" transform="translate(115,350)" s:width="25" s:height="25" id="cell_$add$vga_sync.v:138$5">
    <s:alias val="$add"/>
    <circle r="12.5" cx="12.5" cy="12.5" class="cell_$add$vga_sync.v:138$5"/>
    <line x1="7.5" x2="17.5" y1="12.5" y2="12.5" class="cell_$add$vga_sync.v:138$5"/>
    <line x1="12.5" x2="12.5" y1="7.5" y2="17.5" class="cell_$add$vga_sync.v:138$5"/>
    <g s:x="3" s:y="5" s:pid="A"/>
    <g s:x="3" s:y="20" s:pid="B"/>
    <g s:x="25" s:y="12.5" s:pid="Y"/>
  </g>
  <g s:type="generic" transform="translate(742,63.5)" s:width="30" s:height="40" id="cell_$ge$vga_sync.v:146$6">
    <text x="15" y="-4" class="nodelabel cell_$ge$vga_sync.v:146$6" s:attribute="ref">$ge</text>
    <rect width="30" height="40" s:generic="body" class="cell_$ge$vga_sync.v:146$6"/>
    <g transform="translate(0,10)" s:x="0" s:y="10" s:pid="in0" id="port_$ge$vga_sync.v:146$6~A">
      <text x="-3" y="-4" class="inputPortLabel cell_$ge$vga_sync.v:146$6">A</text>
    </g>
    <g transform="translate(0,30)" s:x="0" s:y="10" s:pid="in0" id="port_$ge$vga_sync.v:146$6~B">
      <text x="-3" y="-4" class="inputPortLabel cell_$ge$vga_sync.v:146$6">B</text>
    </g>
    <g transform="translate(30,10)" s:x="30" s:y="10" s:pid="out0" id="port_$ge$vga_sync.v:146$6~Y">
      <text x="5" y="-4" style="fill:#000; stroke:none" class="cell_$ge$vga_sync.v:146$6">Y</text>
    </g>
  </g>
  <g s:type="generic" transform="translate(736,314.5)" s:width="30" s:height="40" id="cell_$ge$vga_sync.v:147$10">
    <text x="15" y="-4" class="nodelabel cell_$ge$vga_sync.v:147$10" s:attribute="ref">$ge</text>
    <rect width="30" height="40" s:generic="body" class="cell_$ge$vga_sync.v:147$10"/>
    <g transform="translate(0,10)" s:x="0" s:y="10" s:pid="in0" id="port_$ge$vga_sync.v:147$10~A">
      <text x="-3" y="-4" class="inputPortLabel cell_$ge$vga_sync.v:147$10">A</text>
    </g>
    <g transform="translate(0,30)" s:x="0" s:y="10" s:pid="in0" id="port_$ge$vga_sync.v:147$10~B">
      <text x="-3" y="-4" class="inputPortLabel cell_$ge$vga_sync.v:147$10">B</text>
    </g>
    <g transform="translate(30,10)" s:x="30" s:y="10" s:pid="out0" id="port_$ge$vga_sync.v:147$10~Y">
      <text x="5" y="-4" style="fill:#000; stroke:none" class="cell_$ge$vga_sync.v:147$10">Y</text>
    </g>
  </g>
  <g s:type="generic" transform="translate(568,586)" s:width="30" s:height="40" id="cell_$ge$vga_sync.v:148$14">
    <text x="15" y="-4" class="nodelabel cell_$ge$vga_sync.v:148$14" s:attribute="ref">$ge</text>
    <rect width="30" height="40" s:generic="body" class="cell_$ge$vga_sync.v:148$14"/>
    <g transform="translate(0,10)" s:x="0" s:y="10" s:pid="in0" id="port_$ge$vga_sync.v:148$14~A">
      <text x="-3" y="-4" class="inputPortLabel cell_$ge$vga_sync.v:148$14">A</text>
    </g>
    <g transform="translate(0,30)" s:x="0" s:y="10" s:pid="in0" id="port_$ge$vga_sync.v:148$14~B">
      <text x="-3" y="-4" class="inputPortLabel cell_$ge$vga_sync.v:148$14">B</text>
    </g>
    <g transform="translate(30,10)" s:x="30" s:y="10" s:pid="out0" id="port_$ge$vga_sync.v:148$14~Y">
      <text x="5" y="-4" style="fill:#000; stroke:none" class="cell_$ge$vga_sync.v:148$14">Y</text>
    </g>
  </g>
  <g s:type="generic" transform="translate(568,674)" s:width="30" s:height="40" id="cell_$ge$vga_sync.v:148$15">
    <text x="15" y="-4" class="nodelabel cell_$ge$vga_sync.v:148$15" s:attribute="ref">$ge</text>
    <rect width="30" height="40" s:generic="body" class="cell_$ge$vga_sync.v:148$15"/>
    <g transform="translate(0,10)" s:x="0" s:y="10" s:pid="in0" id="port_$ge$vga_sync.v:148$15~A">
      <text x="-3" y="-4" class="inputPortLabel cell_$ge$vga_sync.v:148$15">A</text>
    </g>
    <g transform="translate(0,30)" s:x="0" s:y="10" s:pid="in0" id="port_$ge$vga_sync.v:148$15~B">
      <text x="-3" y="-4" class="inputPortLabel cell_$ge$vga_sync.v:148$15">B</text>
    </g>
    <g transform="translate(30,10)" s:x="30" s:y="10" s:pid="out0" id="port_$ge$vga_sync.v:148$15~Y">
      <text x="5" y="-4" style="fill:#000; stroke:none" class="cell_$ge$vga_sync.v:148$15">Y</text>
    </g>
  </g>
  <g s:type="and" transform="translate(902,69)" s:width="30" s:height="25" id="cell_$logic_and$vga_sync.v:146$8">
    <s:alias val="$and"/>
    <s:alias val="$logic_and"/>
    <s:alias val="$_AND_"/>
    <path d="M0,0 L0,25 L15,25 A15 12.5 0 0 0 15,0 Z" class="cell_$logic_and$vga_sync.v:146$8"/>
    <g s:x="0" s:y="5" s:pid="A"/>
    <g s:x="0" s:y="20" s:pid="B"/>
    <g s:x="30" s:y="12.5" s:pid="Y"/>
  </g>
  <g s:type="and" transform="translate(902,320)" s:width="30" s:height="25" id="cell_$logic_and$vga_sync.v:147$12">
    <s:alias val="$and"/>
    <s:alias val="$logic_and"/>
    <s:alias val="$_AND_"/>
    <path d="M0,0 L0,25 L15,25 A15 12.5 0 0 0 15,0 Z" class="cell_$logic_and$vga_sync.v:147$12"/>
    <g s:x="0" s:y="5" s:pid="A"/>
    <g s:x="0" s:y="20" s:pid="B"/>
    <g s:x="30" s:y="12.5" s:pid="Y"/>
  </g>
  <g s:type="and" transform="translate(765.6666666666666,591.5)" s:width="30" s:height="25" id="cell_$logic_and$vga_sync.v:148$16">
    <s:alias val="$and"/>
    <s:alias val="$logic_and"/>
    <s:alias val="$_AND_"/>
    <path d="M0,0 L0,25 L15,25 A15 12.5 0 0 0 15,0 Z" class="cell_$logic_and$vga_sync.v:148$16"/>
    <g s:x="0" s:y="5" s:pid="A"/>
    <g s:x="0" s:y="20" s:pid="B"/>
    <g s:x="30" s:y="12.5" s:pid="Y"/>
  </g>
  <g s:type="generic" transform="translate(261,134)" s:width="30" s:height="40" id="cell_$lt$vga_sync.v:128$2">
    <text x="15" y="-4" class="nodelabel cell_$lt$vga_sync.v:128$2" s:attribute="ref">$lt</text>
    <rect width="30" height="40" s:generic="body" class="cell_$lt$vga_sync.v:128$2"/>
    <g transform="translate(0,10)" s:x="0" s:y="10" s:pid="in0" id="port_$lt$vga_sync.v:128$2~A">
      <text x="-3" y="-4" class="inputPortLabel cell_$lt$vga_sync.v:128$2">A</text>
    </g>
    <g transform="translate(0,30)" s:x="0" s:y="10" s:pid="in0" id="port_$lt$vga_sync.v:128$2~B">
      <text x="-3" y="-4" class="inputPortLabel cell_$lt$vga_sync.v:128$2">B</text>
    </g>
    <g transform="translate(30,10)" s:x="30" s:y="10" s:pid="out0" id="port_$lt$vga_sync.v:128$2~Y">
      <text x="5" y="-4" style="fill:#000; stroke:none" class="cell_$lt$vga_sync.v:128$2">Y</text>
    </g>
  </g>
  <g s:type="generic" transform="translate(84,207)" s:width="30" s:height="40" id="cell_$lt$vga_sync.v:137$4">
    <text x="15" y="-4" class="nodelabel cell_$lt$vga_sync.v:137$4" s:attribute="ref">$lt</text>
    <rect width="30" height="40" s:generic="body" class="cell_$lt$vga_sync.v:137$4"/>
    <g transform="translate(0,10)" s:x="0" s:y="10" s:pid="in0" id="port_$lt$vga_sync.v:137$4~A">
      <text x="-3" y="-4" class="inputPortLabel cell_$lt$vga_sync.v:137$4">A</text>
    </g>
    <g transform="translate(0,30)" s:x="0" s:y="10" s:pid="in0" id="port_$lt$vga_sync.v:137$4~B">
      <text x="-3" y="-4" class="inputPortLabel cell_$lt$vga_sync.v:137$4">B</text>
    </g>
    <g transform="translate(30,10)" s:x="30" s:y="10" s:pid="out0" id="port_$lt$vga_sync.v:137$4~Y">
      <text x="5" y="-4" style="fill:#000; stroke:none" class="cell_$lt$vga_sync.v:137$4">Y</text>
    </g>
  </g>
  <g s:type="generic" transform="translate(742,151.5)" s:width="30" s:height="40" id="cell_$lt$vga_sync.v:146$7">
    <text x="15" y="-4" class="nodelabel cell_$lt$vga_sync.v:146$7" s:attribute="ref">$lt</text>
    <rect width="30" height="40" s:generic="body" class="cell_$lt$vga_sync.v:146$7"/>
    <g transform="translate(0,10)" s:x="0" s:y="10" s:pid="in0" id="port_$lt$vga_sync.v:146$7~A">
      <text x="-3" y="-4" class="inputPortLabel cell_$lt$vga_sync.v:146$7">A</text>
    </g>
    <g transform="translate(0,30)" s:x="0" s:y="10" s:pid="in0" id="port_$lt$vga_sync.v:146$7~B">
      <text x="-3" y="-4" class="inputPortLabel cell_$lt$vga_sync.v:146$7">B</text>
    </g>
    <g transform="translate(30,10)" s:x="30" s:y="10" s:pid="out0" id="port_$lt$vga_sync.v:146$7~Y">
      <text x="5" y="-4" style="fill:#000; stroke:none" class="cell_$lt$vga_sync.v:146$7">Y</text>
    </g>
  </g>
  <g s:type="generic" transform="translate(736,402.5)" s:width="30" s:height="40" id="cell_$lt$vga_sync.v:147$11">
    <text x="15" y="-4" class="nodelabel cell_$lt$vga_sync.v:147$11" s:attribute="ref">$lt</text>
    <rect width="30" height="40" s:generic="body" class="cell_$lt$vga_sync.v:147$11"/>
    <g transform="translate(0,10)" s:x="0" s:y="10" s:pid="in0" id="port_$lt$vga_sync.v:147$11~A">
      <text x="-3" y="-4" class="inputPortLabel cell_$lt$vga_sync.v:147$11">A</text>
    </g>
    <g transform="translate(0,30)" s:x="0" s:y="10" s:pid="in0" id="port_$lt$vga_sync.v:147$11~B">
      <text x="-3" y="-4" class="inputPortLabel cell_$lt$vga_sync.v:147$11">B</text>
    </g>
    <g transform="translate(30,10)" s:x="30" s:y="10" s:pid="out0" id="port_$lt$vga_sync.v:147$11~Y">
      <text x="5" y="-4" style="fill:#000; stroke:none" class="cell_$lt$vga_sync.v:147$11">Y</text>
    </g>
  </g>
  <g s:type="dff" transform="translate(481,64)" s:width="30" s:height="40" id="cell_$procdff$37">
    <s:alias val="$dff"/>
    <s:alias val="$_DFF_"/>
    <rect width="30" height="40" x="0" y="0" class="cell_$procdff$37"/>
    <path d="M0,35 L5,30 L0,25" class="cell_$procdff$37"/>
    <g s:x="30" s:y="10" s:pid="Q"/>
    <g s:x="0" s:y="30" s:pid="CLK"/>
    <g s:x="0" s:y="10" s:pid="D"/>
  </g>
  <g s:type="dff" transform="translate(481,315)" s:width="30" s:height="40" id="cell_$procdff$38">
    <s:alias val="$dff"/>
    <s:alias val="$_DFF_"/>
    <rect width="30" height="40" x="0" y="0" class="cell_$procdff$38"/>
    <path d="M0,35 L5,30 L0,25" class="cell_$procdff$38"/>
    <g s:x="30" s:y="10" s:pid="Q"/>
    <g s:x="0" s:y="30" s:pid="CLK"/>
    <g s:x="0" s:y="10" s:pid="D"/>
  </g>
  <g s:type="mux" transform="translate(982,600)" s:width="20" s:height="40" id="cell_$procmux$23">
    <s:alias val="$pmux"/>
    <s:alias val="$mux"/>
    <s:alias val="$_MUX_"/>
    <path d="M0,0 L20,10 L20,30 L0,40 Z" class="cell_$procmux$23"/>
    <g s:x="0" s:y="10" s:pid="A"/>
    <g s:x="0" s:y="30" s:pid="B"/>
    <g s:x="10" s:y="35" s:pid="S"/>
    <g s:x="20" s:y="20" s:pid="Y"/>
  </g>
  <g s:type="mux" transform="translate(982,717)" s:width="20" s:height="40" id="cell_$procmux$26">
    <s:alias val="$pmux"/>
    <s:alias val="$mux"/>
    <s:alias val="$_MUX_"/>
    <path d="M0,0 L20,10 L20,30 L0,40 Z" class="cell_$procmux$26"/>
    <g s:x="0" s:y="10" s:pid="A"/>
    <g s:x="0" s:y="30" s:pid="B"/>
    <g s:x="10" s:y="35" s:pid="S"/>
    <g s:x="20" s:y="20" s:pid="Y"/>
  </g>
  <g s:type="mux" transform="translate(419.3333333333333,54)" s:width="20" s:height="40" id="cell_$procmux$29">
    <s:alias val="$pmux"/>
    <s:alias val="$mux"/>
    <s:alias val="$_MUX_"/>
    <path d="M0,0 L20,10 L20,30 L0,40 Z" class="cell_$procmux$29"/>
    <g s:x="0" s:y="10" s:pid="A"/>
    <g s:x="0" s:y="30" s:pid="B"/>
    <g s:x="10" s:y="35" s:pid="S"/>
    <g s:x="20" s:y="20" s:pid="Y"/>
  </g>
  <g s:type="mux" transform="translate(292,295)" s:width="20" s:height="40" id="cell_$procmux$32">
    <s:alias val="$pmux"/>
    <s:alias val="$mux"/>
    <s:alias val="$_MUX_"/>
    <path d="M0,0 L20,10 L20,30 L0,40 Z" class="cell_$procmux$32"/>
    <g s:x="0" s:y="10" s:pid="A"/>
    <g s:x="0" s:y="30" s:pid="B"/>
    <g s:x="10" s:y="35" s:pid="S"/>
    <g s:x="20" s:y="20" s:pid="Y"/>
  </g>
  <g s:type="mux" transform="translate(422.6666666666667,305)" s:width="20" s:height="40" id="cell_$procmux$35">
    <s:alias val="$pmux"/>
    <s:alias val="$mux"/>
    <s:alias val="$_MUX_"/>
    <path d="M0,0 L20,10 L20,30 L0,40 Z" class="cell_$procmux$35"/>
    <g s:x="0" s:y="10" s:pid="A"/>
    <g s:x="0" s:y="30" s:pid="B"/>
    <g s:x="10" s:y="35" s:pid="S"/>
    <g s:x="20" s:y="20" s:pid="Y"/>
  </g>
  <g s:type="sub" transform="translate(903.6666666666666,738)" s:width="25" s:height="25" id="cell_$sub$vga_sync.v:156$19">
    <s:alias val="$sub"/>
    <circle r="12.5" cx="12.5" cy="12.5" class="cell_$sub$vga_sync.v:156$19"/>
    <line x1="7.5" x2="17.5" y1="12.5" y2="12.5" class="cell_$sub$vga_sync.v:156$19"/>
    <g s:x="3" s:y="5" s:pid="A"/>
    <g s:x="3" s:y="20" s:pid="B"/>
    <g s:x="25" s:y="12.5" s:pid="Y"/>
  </g>
  <g s:type="sub" transform="translate(903.6666666666666,475)" s:width="25" s:height="25" id="cell_$sub$vga_sync.v:157$20">
    <s:alias val="$sub"/>
    <circle r="12.5" cx="12.5" cy="12.5" class="cell_$sub$vga_sync.v:157$20"/>
    <line x1="7.5" x2="17.5" y1="12.5" y2="12.5" class="cell_$sub$vga_sync.v:157$20"/>
    <g s:x="3" s:y="5" s:pid="A"/>
    <g s:x="3" s:y="20" s:pid="B"/>
    <g s:x="25" s:y="12.5" s:pid="Y"/>
  </g>
  <g s:type="mux" transform="translate(982,22)" s:width="20" s:height="40" id="cell_$ternary$vga_sync.v:146$9">
    <s:alias val="$pmux"/>
    <s:alias val="$mux"/>
    <s:alias val="$_MUX_"/>
    <path d="M0,0 L20,10 L20,30 L0,40 Z" class="cell_$ternary$vga_sync.v:146$9"/>
    <g s:x="0" s:y="10" s:pid="A"/>
    <g s:x="0" s:y="30" s:pid="B"/>
    <g s:x="10" s:y="35" s:pid="S"/>
    <g s:x="20" s:y="20" s:pid="Y"/>
  </g>
  <g s:type="mux" transform="translate(982,203)" s:width="20" s:height="40" id="cell_$ternary$vga_sync.v:147$13">
    <s:alias val="$pmux"/>
    <s:alias val="$mux"/>
    <s:alias val="$_MUX_"/>
    <path d="M0,0 L20,10 L20,30 L0,40 Z" class="cell_$ternary$vga_sync.v:147$13"/>
    <g s:x="0" s:y="10" s:pid="A"/>
    <g s:x="0" s:y="30" s:pid="B"/>
    <g s:x="10" s:y="35" s:pid="S"/>
    <g s:x="20" s:y="20" s:pid="Y"/>
  </g>
  <g s:type="mux" transform="translate(905.3333333333334,535)" s:width="20" s:height="40" id="cell_$ternary$vga_sync.v:148$17">
    <s:alias val="$pmux"/>
    <s:alias val="$mux"/>
    <s:alias val="$_MUX_"/>
    <path d="M0,0 L20,10 L20,30 L0,40 Z" class="cell_$ternary$vga_sync.v:148$17"/>
    <g s:x="0" s:y="10" s:pid="A"/>
    <g s:x="0" s:y="30" s:pid="B"/>
    <g s:x="10" s:y="35" s:pid="S"/>
    <g s:x="20" s:y="20" s:pid="Y"/>
  </g>
  <g s:type="inputExt" transform="translate(416,416)" s:width="30" s:height="20" id="cell_clk">
    <text x="15" y="-4" class="nodelabel cell_clk" s:attribute="ref">clk</text>
    <s:alias val="$_inputExt_"/>
    <path d="M0,0 L0,20 L15,20 L30,10 L15,0 Z" class="cell_clk"/>
    <g s:x="28" s:y="10" s:pid="Y"/>
  </g>
  <g s:type="outputExt" transform="translate(1037,32)" s:width="30" s:height="20" id="cell_hsync">
    <text x="15" y="-4" class="nodelabel cell_hsync" s:attribute="ref">hsync</text>
    <s:alias val="$_outputExt_"/>
    <path d="M30,0 L30,20 L15,20 L0,10 L15,0 Z" class="cell_hsync"/>
    <g s:x="0" s:y="10" s:pid="A"/>
  </g>
  <g s:type="outputExt" transform="translate(1037,213)" s:width="30" s:height="20" id="cell_vsync">
    <text x="15" y="-4" class="nodelabel cell_vsync" s:attribute="ref">vsync</text>
    <s:alias val="$_outputExt_"/>
    <path d="M30,0 L30,20 L15,20 L0,10 L15,0 Z" class="cell_vsync"/>
    <g s:x="0" s:y="10" s:pid="A"/>
  </g>
  <g s:type="outputExt" transform="translate(1037,727)" s:width="30" s:height="20" id="cell_x_px">
    <text x="15" y="-4" class="nodelabel cell_x_px" s:attribute="ref">x_px</text>
    <s:alias val="$_outputExt_"/>
    <path d="M30,0 L30,20 L15,20 L0,10 L15,0 Z" class="cell_x_px"/>
    <g s:x="0" s:y="10" s:pid="A"/>
  </g>
  <g s:type="outputExt" transform="translate(1037,610)" s:width="30" s:height="20" id="cell_y_px">
    <text x="15" y="-4" class="nodelabel cell_y_px" s:attribute="ref">y_px</text>
    <s:alias val="$_outputExt_"/>
    <path d="M30,0 L30,20 L15,20 L0,10 L15,0 Z" class="cell_y_px"/>
    <g s:x="0" s:y="10" s:pid="A"/>
  </g>
  <g s:type="outputExt" transform="translate(1037,545)" s:width="30" s:height="20" id="cell_activevideo">
    <text x="15" y="-4" class="nodelabel cell_activevideo" s:attribute="ref">activevideo</text>
    <s:alias val="$_outputExt_"/>
    <path d="M30,0 L30,20 L15,20 L0,10 L15,0 Z" class="cell_activevideo"/>
    <g s:x="0" s:y="10" s:pid="A"/>
  </g>
  <g s:type="outputExt" transform="translate(1037,792)" s:width="30" s:height="20" id="cell_px_clk">
    <text x="15" y="-4" class="nodelabel cell_px_clk" s:attribute="ref">px_clk</text>
    <s:alias val="$_outputExt_"/>
    <path d="M30,0 L30,20 L15,20 L0,10 L15,0 Z" class="cell_px_clk"/>
    <g s:x="0" s:y="10" s:pid="A"/>
  </g>
  <g s:type="constant" transform="translate(12,22)" s:width="30" s:height="20" id="cell_1">
    <text x="15" y="-4" class="nodelabel cell_1" s:attribute="ref">1</text>
    <s:alias val="$_constant_"/>
    <rect width="30" height="20" class="cell_1"/>
    <g s:x="30" s:y="10" s:pid="Y"/>
  </g>
  <g s:type="constant" transform="translate(568,95)" s:width="30" s:height="20" id="cell_11000">
    <text x="15" y="-4" class="nodelabel cell_11000" s:attribute="ref">0x18</text>
    <s:alias val="$_constant_"/>
    <rect width="30" height="20" class="cell_11000"/>
    <g s:x="30" s:y="10" s:pid="Y"/>
  </g>
  <g s:type="constant" transform="translate(568,346)" s:width="30" s:height="20" id="cell_1001">
    <text x="15" y="-4" class="nodelabel cell_1001" s:attribute="ref">0x9</text>
    <s:alias val="$_constant_"/>
    <rect width="30" height="20" class="cell_1001"/>
    <g s:x="30" s:y="10" s:pid="Y"/>
  </g>
  <g s:type="constant" transform="translate(481,748)" s:width="30" s:height="20" id="cell_11000000">
    <text x="15" y="-4" class="nodelabel cell_11000000" s:attribute="ref">0xc0</text>
    <s:alias val="$_constant_"/>
    <rect width="30" height="20" class="cell_11000000"/>
    <g s:x="30" s:y="10" s:pid="Y"/>
  </g>
  <g s:type="constant" transform="translate(481,694.5)" s:width="30" s:height="20" id="cell_101000">
    <text x="15" y="-4" class="nodelabel cell_101000" s:attribute="ref">0x28</text>
    <s:alias val="$_constant_"/>
    <rect width="30" height="20" class="cell_101000"/>
    <g s:x="30" s:y="10" s:pid="Y"/>
  </g>
  <g s:type="constant" transform="translate(84,154.5)" s:width="30" s:height="20" id="cell_1100111111">
    <text x="15" y="-4" class="nodelabel cell_1100111111" s:attribute="ref">0x33f</text>
    <s:alias val="$_constant_"/>
    <rect width="30" height="20" class="cell_1100111111"/>
    <g s:x="30" s:y="10" s:pid="Y"/>
  </g>
  <g s:type="constant" transform="translate(12,227.5)" s:width="30" s:height="20" id="cell_1000000111">
    <text x="15" y="-4" class="nodelabel cell_1000000111" s:attribute="ref">0x207</text>
    <s:alias val="$_constant_"/>
    <rect width="30" height="20" class="cell_1000000111"/>
    <g s:x="30" s:y="10" s:pid="Y"/>
  </g>
  <g s:type="constant" transform="translate(568,183)" s:width="30" s:height="20" id="cell_1000000">
    <text x="15" y="-4" class="nodelabel cell_1000000" s:attribute="ref">0x40</text>
    <s:alias val="$_constant_"/>
    <rect width="30" height="20" class="cell_1000000"/>
    <g s:x="30" s:y="10" s:pid="Y"/>
  </g>
  <g s:type="constant" transform="translate(568,434)" s:width="30" s:height="20" id="cell_1100">
    <text x="15" y="-4" class="nodelabel cell_1100" s:attribute="ref">0xc</text>
    <s:alias val="$_constant_"/>
    <rect width="30" height="20" class="cell_1100"/>
    <g s:x="30" s:y="10" s:pid="Y"/>
  </g>
  <g s:type="constant" transform="translate(84,295)" s:width="30" s:height="20" id="cell_0000000000">
    <text x="15" y="-4" class="nodelabel cell_0000000000" s:attribute="ref">0x0</text>
    <s:alias val="$_constant_"/>
    <rect width="30" height="20" class="cell_0000000000"/>
    <g s:x="30" s:y="10" s:pid="Y"/>
  </g>
  <g s:type="constant" transform="translate(736,234)" s:width="30" s:height="20" id="cell_0">
    <text x="15" y="-4" class="nodelabel cell_0" s:attribute="ref">0</text>
    <s:alias val="$_constant_"/>
    <rect width="30" height="20" class="cell_0"/>
    <g s:x="30" s:y="10" s:pid="Y"/>
  </g>
  <line x1="511" x2="521" y1="74" y2="74" class="net_26,27,28,29,30,31,32,33,34,35"/>
  <line x1="521" x2="521" y1="74" y2="114" class="net_26,27,28,29,30,31,32,33,34,35"/>
  <line x1="521" x2="234" y1="114" y2="114" class="net_26,27,28,29,30,31,32,33,34,35"/>
  <line x1="234" x2="234" y1="114" y2="80" class="net_26,27,28,29,30,31,32,33,34,35"/>
  <circle cx="521" cy="114" r="2" style="fill:#000" class="net_26,27,28,29,30,31,32,33,34,35"/>
  <line x1="234" x2="295" y1="80" y2="80" class="net_26,27,28,29,30,31,32,33,34,35"/>
  <line x1="511" x2="742" y1="74" y2="74" class="net_26,27,28,29,30,31,32,33,34,35"/>
  <line x1="511" x2="521" y1="74" y2="74" class="net_26,27,28,29,30,31,32,33,34,35"/>
  <line x1="521" x2="521" y1="74" y2="596.5" class="net_26,27,28,29,30,31,32,33,34,35"/>
  <circle cx="521" cy="596.5" r="2" style="fill:#000" class="net_26,27,28,29,30,31,32,33,34,35"/>
  <line x1="521" x2="568" y1="596.5" y2="596.5" class="net_26,27,28,29,30,31,32,33,34,35"/>
  <line x1="511" x2="521" y1="74" y2="74" class="net_26,27,28,29,30,31,32,33,34,35"/>
  <line x1="521" x2="521" y1="74" y2="43" class="net_26,27,28,29,30,31,32,33,34,35"/>
  <line x1="521" x2="224" y1="43" y2="43" class="net_26,27,28,29,30,31,32,33,34,35"/>
  <line x1="224" x2="224" y1="43" y2="144.5" class="net_26,27,28,29,30,31,32,33,34,35"/>
  <circle cx="521" cy="74" r="2" style="fill:#000" class="net_26,27,28,29,30,31,32,33,34,35"/>
  <line x1="224" x2="261" y1="144.5" y2="144.5" class="net_26,27,28,29,30,31,32,33,34,35"/>
  <line x1="511" x2="521" y1="74" y2="74" class="net_26,27,28,29,30,31,32,33,34,35"/>
  <line x1="521" x2="521" y1="74" y2="162" class="net_26,27,28,29,30,31,32,33,34,35"/>
  <circle cx="521" cy="162" r="2" style="fill:#000" class="net_26,27,28,29,30,31,32,33,34,35"/>
  <line x1="521" x2="742" y1="162" y2="162" class="net_26,27,28,29,30,31,32,33,34,35"/>
  <line x1="511" x2="521" y1="74" y2="74" class="net_26,27,28,29,30,31,32,33,34,35"/>
  <line x1="521" x2="521" y1="74" y2="743" class="net_26,27,28,29,30,31,32,33,34,35"/>
  <line x1="521" x2="906.6666666666666" y1="743" y2="743" class="net_26,27,28,29,30,31,32,33,34,35"/>
  <line x1="42" x2="244" y1="32" y2="32" class="net_127"/>
  <line x1="244" x2="244" y1="32" y2="95" class="net_127"/>
  <circle cx="244" cy="32" r="2" style="fill:#000" class="net_127"/>
  <line x1="244" x2="295" y1="95" y2="95" class="net_127"/>
  <line x1="42" x2="52" y1="32" y2="32" class="net_127"/>
  <line x1="52" x2="52" y1="32" y2="370" class="net_127"/>
  <circle cx="52" cy="32" r="2" style="fill:#000" class="net_127"/>
  <circle cx="52" cy="370" r="2" style="fill:#000" class="net_127"/>
  <line x1="52" x2="118" y1="370" y2="370" class="net_127"/>
  <line x1="42" x2="982" y1="32" y2="32" class="net_127"/>
  <line x1="42" x2="531" y1="32" y2="32" class="net_127"/>
  <line x1="531" x2="531" y1="32" y2="213" class="net_127"/>
  <circle cx="531" cy="32" r="2" style="fill:#000" class="net_127"/>
  <line x1="531" x2="982" y1="213" y2="213" class="net_127"/>
  <line x1="42" x2="52" y1="32" y2="32" class="net_127"/>
  <line x1="52" x2="52" y1="32" y2="565" class="net_127"/>
  <line x1="52" x2="905.3333333333334" y1="565" y2="565" class="net_127"/>
  <line x1="511" x2="551" y1="325" y2="325" class="net_46,47,48,49,50,51,52,53,54,55"/>
  <line x1="551" x2="551" y1="325" y2="385" class="net_46,47,48,49,50,51,52,53,54,55"/>
  <line x1="551" x2="62" y1="385" y2="385" class="net_46,47,48,49,50,51,52,53,54,55"/>
  <line x1="62" x2="62" y1="385" y2="355" class="net_46,47,48,49,50,51,52,53,54,55"/>
  <line x1="62" x2="118" y1="355" y2="355" class="net_46,47,48,49,50,51,52,53,54,55"/>
  <line x1="511" x2="736" y1="325" y2="325" class="net_46,47,48,49,50,51,52,53,54,55"/>
  <line x1="511" x2="551" y1="325" y2="325" class="net_46,47,48,49,50,51,52,53,54,55"/>
  <line x1="551" x2="551" y1="325" y2="684.5" class="net_46,47,48,49,50,51,52,53,54,55"/>
  <circle cx="551" cy="325" r="2" style="fill:#000" class="net_46,47,48,49,50,51,52,53,54,55"/>
  <line x1="551" x2="568" y1="684.5" y2="684.5" class="net_46,47,48,49,50,51,52,53,54,55"/>
  <line x1="511" x2="551" y1="325" y2="325" class="net_46,47,48,49,50,51,52,53,54,55"/>
  <line x1="551" x2="551" y1="325" y2="385" class="net_46,47,48,49,50,51,52,53,54,55"/>
  <line x1="551" x2="456" y1="385" y2="385" class="net_46,47,48,49,50,51,52,53,54,55"/>
  <line x1="456" x2="456" y1="385" y2="187" class="net_46,47,48,49,50,51,52,53,54,55"/>
  <line x1="456" x2="62" y1="187" y2="187" class="net_46,47,48,49,50,51,52,53,54,55"/>
  <line x1="62" x2="62" y1="187" y2="217.5" class="net_46,47,48,49,50,51,52,53,54,55"/>
  <circle cx="456" cy="385" r="2" style="fill:#000" class="net_46,47,48,49,50,51,52,53,54,55"/>
  <circle cx="551" cy="385" r="2" style="fill:#000" class="net_46,47,48,49,50,51,52,53,54,55"/>
  <line x1="62" x2="84" y1="217.5" y2="217.5" class="net_46,47,48,49,50,51,52,53,54,55"/>
  <line x1="511" x2="551" y1="325" y2="325" class="net_46,47,48,49,50,51,52,53,54,55"/>
  <line x1="551" x2="551" y1="325" y2="413" class="net_46,47,48,49,50,51,52,53,54,55"/>
  <circle cx="551" cy="413" r="2" style="fill:#000" class="net_46,47,48,49,50,51,52,53,54,55"/>
  <line x1="551" x2="736" y1="413" y2="413" class="net_46,47,48,49,50,51,52,53,54,55"/>
  <line x1="511" x2="551" y1="325" y2="325" class="net_46,47,48,49,50,51,52,53,54,55"/>
  <line x1="551" x2="551" y1="325" y2="385" class="net_46,47,48,49,50,51,52,53,54,55"/>
  <line x1="551" x2="456" y1="385" y2="385" class="net_46,47,48,49,50,51,52,53,54,55"/>
  <line x1="456" x2="456" y1="385" y2="446" class="net_46,47,48,49,50,51,52,53,54,55"/>
  <line x1="456" x2="391" y1="446" y2="446" class="net_46,47,48,49,50,51,52,53,54,55"/>
  <line x1="391" x2="391" y1="446" y2="335" class="net_46,47,48,49,50,51,52,53,54,55"/>
  <line x1="391" x2="422.6666666666667" y1="335" y2="335" class="net_46,47,48,49,50,51,52,53,54,55"/>
  <line x1="511" x2="551" y1="325" y2="325" class="net_46,47,48,49,50,51,52,53,54,55"/>
  <line x1="551" x2="551" y1="325" y2="480" class="net_46,47,48,49,50,51,52,53,54,55"/>
  <circle cx="551" cy="480" r="2" style="fill:#000" class="net_46,47,48,49,50,51,52,53,54,55"/>
  <line x1="551" x2="906.6666666666666" y1="480" y2="480" class="net_46,47,48,49,50,51,52,53,54,55"/>
  <line x1="598" x2="704" y1="105" y2="105" class="net_129,130,131,132,133"/>
  <line x1="704" x2="704" y1="105" y2="94" class="net_129,130,131,132,133"/>
  <line x1="704" x2="742" y1="94" y2="94" class="net_129,130,131,132,133"/>
  <line x1="598" x2="704" y1="356" y2="356" class="net_134,135,136,137"/>
  <line x1="704" x2="704" y1="356" y2="345" class="net_134,135,136,137"/>
  <line x1="704" x2="736" y1="345" y2="345" class="net_134,135,136,137"/>
  <line x1="511" x2="541" y1="758" y2="758" class="net_138,139,140,141,142,143,144,145"/>
  <line x1="541" x2="541" y1="758" y2="616.5" class="net_138,139,140,141,142,143,144,145"/>
  <circle cx="541" cy="758" r="2" style="fill:#000" class="net_138,139,140,141,142,143,144,145"/>
  <line x1="541" x2="568" y1="616.5" y2="616.5" class="net_138,139,140,141,142,143,144,145"/>
  <line x1="511" x2="906.6666666666666" y1="758" y2="758" class="net_138,139,140,141,142,143,144,145"/>
  <line x1="511" x2="568" y1="704.5" y2="704.5" class="net_146,147,148,149,150,151"/>
  <line x1="511" x2="531" y1="704.5" y2="704.5" class="net_146,147,148,149,150,151"/>
  <line x1="531" x2="531" y1="704.5" y2="495" class="net_146,147,148,149,150,151"/>
  <circle cx="531" cy="704.5" r="2" style="fill:#000" class="net_146,147,148,149,150,151"/>
  <line x1="531" x2="906.6666666666666" y1="495" y2="495" class="net_146,147,148,149,150,151"/>
  <line x1="773" x2="902" y1="74" y2="74" class="net_66"/>
  <line x1="773" x2="892" y1="162" y2="162" class="net_70"/>
  <line x1="892" x2="892" y1="162" y2="89" class="net_70"/>
  <line x1="892" x2="902" y1="89" y2="89" class="net_70"/>
  <line x1="767" x2="902" y1="325" y2="325" class="net_67"/>
  <line x1="767" x2="872" y1="413" y2="413" class="net_72"/>
  <line x1="872" x2="872" y1="413" y2="340" class="net_72"/>
  <line x1="872" x2="902" y1="340" y2="340" class="net_72"/>
  <line x1="599" x2="765.6666666666666" y1="596.5" y2="596.5" class="net_68"/>
  <line x1="599" x2="704" y1="684.5" y2="684.5" class="net_69"/>
  <line x1="704" x2="704" y1="684.5" y2="611.5" class="net_69"/>
  <line x1="704" x2="765.6666666666666" y1="611.5" y2="611.5" class="net_69"/>
  <line x1="114" x2="261" y1="164.5" y2="164.5" class="net_152,153,154,155,156,157,158,159,160,161"/>
  <line x1="42" x2="84" y1="237.5" y2="237.5" class="net_162,163,164,165,166,167,168,169,170,171"/>
  <line x1="598" x2="704" y1="193" y2="193" class="net_172,173,174,175,176,177,178"/>
  <line x1="704" x2="704" y1="193" y2="182" class="net_172,173,174,175,176,177,178"/>
  <line x1="704" x2="742" y1="182" y2="182" class="net_172,173,174,175,176,177,178"/>
  <line x1="598" x2="704" y1="444" y2="444" class="net_179,180,181,182"/>
  <line x1="704" x2="704" y1="444" y2="433" class="net_179,180,181,182"/>
  <line x1="704" x2="736" y1="433" y2="433" class="net_179,180,181,182"/>
  <line x1="444" x2="466" y1="426" y2="426" class="net_2"/>
  <line x1="466" x2="466" y1="426" y2="94" class="net_2"/>
  <circle cx="466" cy="426" r="2" style="fill:#000" class="net_2"/>
  <line x1="466" x2="481" y1="94" y2="94" class="net_2"/>
  <line x1="444" x2="466" y1="426" y2="426" class="net_2"/>
  <line x1="466" x2="466" y1="426" y2="345" class="net_2"/>
  <circle cx="466" cy="345" r="2" style="fill:#000" class="net_2"/>
  <line x1="466" x2="481" y1="345" y2="345" class="net_2"/>
  <line x1="444" x2="466" y1="426" y2="426" class="net_2"/>
  <line x1="466" x2="466" y1="426" y2="802" class="net_2"/>
  <line x1="466" x2="1037" y1="802" y2="802" class="net_2"/>
  <line x1="439.3333333333333" x2="481" y1="74" y2="74" class="net_77,78,79,80,81,82,83,84,85,86"/>
  <line x1="442.6666666666667" x2="481" y1="325" y2="325" class="net_87,88,89,90,91,92,93,94,95,96"/>
  <line x1="114" x2="214" y1="305" y2="305" class="net_183,184,185,186,187,188,189,190,191,192"/>
  <line x1="214" x2="214" y1="305" y2="464" class="net_183,184,185,186,187,188,189,190,191,192"/>
  <line x1="214" x2="962" y1="464" y2="464" class="net_183,184,185,186,187,188,189,190,191,192"/>
  <line x1="962" x2="962" y1="464" y2="610" class="net_183,184,185,186,187,188,189,190,191,192"/>
  <circle cx="214" cy="305" r="2" style="fill:#000" class="net_183,184,185,186,187,188,189,190,191,192"/>
  <circle cx="214" cy="464" r="2" style="fill:#000" class="net_183,184,185,186,187,188,189,190,191,192"/>
  <line x1="962" x2="982" y1="610" y2="610" class="net_183,184,185,186,187,188,189,190,191,192"/>
  <line x1="114" x2="214" y1="305" y2="305" class="net_183,184,185,186,187,188,189,190,191,192"/>
  <line x1="214" x2="214" y1="305" y2="727" class="net_183,184,185,186,187,188,189,190,191,192"/>
  <line x1="214" x2="982" y1="727" y2="727" class="net_183,184,185,186,187,188,189,190,191,192"/>
  <line x1="114" x2="214" y1="305" y2="305" class="net_183,184,185,186,187,188,189,190,191,192"/>
  <line x1="214" x2="214" y1="305" y2="64" class="net_183,184,185,186,187,188,189,190,191,192"/>
  <line x1="214" x2="419.3333333333333" y1="64" y2="64" class="net_183,184,185,186,187,188,189,190,191,192"/>
  <line x1="114" x2="292" y1="305" y2="305" class="net_183,184,185,186,187,188,189,190,191,192"/>
  <line x1="928.6666666666666" x2="952" y1="487.5" y2="487.5" class="net_97,98,99,100,101,102,103,104,105,106"/>
  <line x1="952" x2="952" y1="487.5" y2="630" class="net_97,98,99,100,101,102,103,104,105,106"/>
  <line x1="952" x2="982" y1="630" y2="630" class="net_97,98,99,100,101,102,103,104,105,106"/>
  <line x1="925.3333333333334" x2="942" y1="555" y2="555" class="net_25"/>
  <line x1="942" x2="942" y1="555" y2="650" class="net_25"/>
  <line x1="942" x2="992" y1="650" y2="650" class="net_25"/>
  <circle cx="942" cy="555" r="2" style="fill:#000" class="net_25"/>
  <circle cx="942" cy="650" r="2" style="fill:#000" class="net_25"/>
  <line x1="992" x2="992" y1="650" y2="635" class="net_25"/>
  <line x1="925.3333333333334" x2="942" y1="555" y2="555" class="net_25"/>
  <line x1="942" x2="942" y1="555" y2="767" class="net_25"/>
  <line x1="942" x2="992" y1="767" y2="767" class="net_25"/>
  <line x1="992" x2="992" y1="767" y2="752" class="net_25"/>
  <line x1="925.3333333333334" x2="1037" y1="555" y2="555" class="net_25"/>
  <line x1="928.6666666666666" x2="952" y1="750.5" y2="750.5" class="net_107,108,109,110,111,112,113,114,115,116"/>
  <line x1="952" x2="952" y1="750.5" y2="747" class="net_107,108,109,110,111,112,113,114,115,116"/>
  <line x1="952" x2="982" y1="747" y2="747" class="net_107,108,109,110,111,112,113,114,115,116"/>
  <line x1="317" x2="391" y1="87.5" y2="87.5" class="net_36,37,38,39,40,41,42,43,44,45"/>
  <line x1="391" x2="391" y1="87.5" y2="84" class="net_36,37,38,39,40,41,42,43,44,45"/>
  <line x1="391" x2="419.3333333333333" y1="84" y2="84" class="net_36,37,38,39,40,41,42,43,44,45"/>
  <line x1="292" x2="429.3333333333333" y1="144.5" y2="144.5" class="net_75"/>
  <line x1="429.3333333333333" x2="429.3333333333333" y1="144.5" y2="89" class="net_75"/>
  <line x1="292" x2="401" y1="144.5" y2="144.5" class="net_75"/>
  <line x1="401" x2="401" y1="144.5" y2="396" class="net_75"/>
  <line x1="401" x2="432.6666666666667" y1="396" y2="396" class="net_75"/>
  <circle cx="401" cy="144.5" r="2" style="fill:#000" class="net_75"/>
  <line x1="432.6666666666667" x2="432.6666666666667" y1="396" y2="340" class="net_75"/>
  <line x1="140" x2="224" y1="362.5" y2="362.5" class="net_56,57,58,59,60,61,62,63,64,65"/>
  <line x1="224" x2="224" y1="362.5" y2="325" class="net_56,57,58,59,60,61,62,63,64,65"/>
  <line x1="224" x2="292" y1="325" y2="325" class="net_56,57,58,59,60,61,62,63,64,65"/>
  <line x1="115" x2="234" y1="217.5" y2="217.5" class="net_76"/>
  <line x1="234" x2="234" y1="217.5" y2="345" class="net_76"/>
  <line x1="234" x2="302" y1="345" y2="345" class="net_76"/>
  <line x1="302" x2="302" y1="345" y2="330" class="net_76"/>
  <line x1="312" x2="422.6666666666667" y1="315" y2="315" class="net_117,118,119,120,121,122,123,124,125,126"/>
  <line x1="766" x2="882" y1="244" y2="244" class="net_238"/>
  <line x1="882" x2="882" y1="244" y2="52" class="net_238"/>
  <circle cx="882" cy="244" r="2" style="fill:#000" class="net_238"/>
  <line x1="882" x2="982" y1="52" y2="52" class="net_238"/>
  <line x1="766" x2="942" y1="244" y2="244" class="net_238"/>
  <line x1="942" x2="942" y1="244" y2="233" class="net_238"/>
  <line x1="942" x2="982" y1="233" y2="233" class="net_238"/>
  <line x1="766" x2="882" y1="244" y2="244" class="net_238"/>
  <line x1="882" x2="882" y1="244" y2="545" class="net_238"/>
  <line x1="882" x2="905.3333333333334" y1="545" y2="545" class="net_238"/>
  <line x1="932" x2="992" y1="81.5" y2="81.5" class="net_71"/>
  <line x1="992" x2="992" y1="81.5" y2="57" class="net_71"/>
  <line x1="932" x2="972" y1="332.5" y2="332.5" class="net_73"/>
  <line x1="972" x2="972" y1="332.5" y2="566" class="net_73"/>
  <line x1="972" x2="992" y1="566" y2="566" class="net_73"/>
  <line x1="992" x2="992" y1="566" y2="238" class="net_73"/>
  <line x1="795.6666666666666" x2="915.3333333333334" y1="604" y2="604" class="net_74"/>
  <line x1="915.3333333333334" x2="915.3333333333334" y1="604" y2="570" class="net_74"/>
  <line x1="1002" x2="1037" y1="42" y2="42" class="net_3"/>
  <line x1="1002" x2="1037" y1="223" y2="223" class="net_4"/>
  <line x1="1002" x2="1037" y1="737" y2="737" class="net_5,6,7,8,9,10,11,12,13,14"/>
  <line x1="1002" x2="1037" y1="620" y2="620" class="net_15,16,17,18,19,20,21,22,23,24"/>
</svg>
