<svg xmlns="http://www.w3.org/2000/svg" xmlns:xlink="http://www.w3.org/1999/xlink" xmlns:s="https://github.com/nturley/netlistsvg" width="505" height="204.5">
  <style>svg {
    stroke:#000;
    fill:none;
  }
  text {
    fill:#000;
    stroke:none;
    font-size:10px;
    font-weight: bold;
    font-family: "Courier New", monospace;
  }
  .nodelabel {
    text-anchor: middle;
  }
  .inputPortLabel {
    text-anchor: end;
  }
  .splitjoinBody {
    fill:#000;
  }</style>
  <g s:type="generic" transform="translate(252,67)" s:width="30" s:height="40" id="cell_vgaINBOX">
    <text x="15" y="-4" class="nodelabel cell_vgaINBOX" s:attribute="ref">$paramod$a63e0c42e245d501a1c4737557e7ed52a0b2d067\vgaWord</text>
    <rect width="30" height="60" s:generic="body" class="cell_vgaINBOX"/>
    <g transform="translate(0,10)" s:x="0" s:y="10" s:pid="in0" id="port_vgaINBOX~en">
      <text x="-3" y="-4" class="inputPortLabel cell_vgaINBOX">en</text>
    </g>
    <g transform="translate(0,30)" s:x="0" s:y="10" s:pid="in0" id="port_vgaINBOX~in">
      <text x="-3" y="-4" class="inputPortLabel cell_vgaINBOX">in</text>
    </g>
    <g transform="translate(0,50)" s:x="0" s:y="10" s:pid="in0" id="port_vgaINBOX~px_clk">
      <text x="-3" y="-4" class="inputPortLabel cell_vgaINBOX">px_clk</text>
    </g>
    <g transform="translate(30,10)" s:x="30" s:y="10" s:pid="out0" id="port_vgaINBOX~out">
      <text x="5" y="-4" style="fill:#000; stroke:none" class="cell_vgaINBOX">out</text>
    </g>
  </g>
  <g s:type="generic" transform="translate(120,87)" s:width="30" s:height="40" id="cell_vgaLabels0">
    <text x="15" y="-4" class="nodelabel cell_vgaLabels0" s:attribute="ref">vgaLabels</text>
    <rect width="30" height="60" s:generic="body" class="cell_vgaLabels0"/>
    <g transform="translate(0,10)" s:x="0" s:y="10" s:pid="in0" id="port_vgaLabels0~en">
      <text x="-3" y="-4" class="inputPortLabel cell_vgaLabels0">en</text>
    </g>
    <g transform="translate(0,30)" s:x="0" s:y="10" s:pid="in0" id="port_vgaLabels0~in">
      <text x="-3" y="-4" class="inputPortLabel cell_vgaLabels0">in</text>
    </g>
    <g transform="translate(0,50)" s:x="0" s:y="10" s:pid="in0" id="port_vgaLabels0~px_clk">
      <text x="-3" y="-4" class="inputPortLabel cell_vgaLabels0">px_clk</text>
    </g>
    <g transform="translate(30,10)" s:x="30" s:y="10" s:pid="out0" id="port_vgaLabels0~out">
      <text x="5" y="-4" style="fill:#000; stroke:none" class="cell_vgaLabels0">out</text>
    </g>
  </g>
  <g s:type="generic" transform="translate(374,47)" s:width="30" s:height="40" id="cell_vgaOUTBOX">
    <text x="15" y="-4" class="nodelabel cell_vgaOUTBOX" s:attribute="ref">$paramod$1160e31aa0fd69fa4112d5c54cd9c5127b6de90a\vgaWord</text>
    <rect width="30" height="60" s:generic="body" class="cell_vgaOUTBOX"/>
    <g transform="translate(0,10)" s:x="0" s:y="10" s:pid="in0" id="port_vgaOUTBOX~en">
      <text x="-3" y="-4" class="inputPortLabel cell_vgaOUTBOX">en</text>
    </g>
    <g transform="translate(0,30)" s:x="0" s:y="10" s:pid="in0" id="port_vgaOUTBOX~in">
      <text x="-3" y="-4" class="inputPortLabel cell_vgaOUTBOX">in</text>
    </g>
    <g transform="translate(0,50)" s:x="0" s:y="10" s:pid="in0" id="port_vgaOUTBOX~px_clk">
      <text x="-3" y="-4" class="inputPortLabel cell_vgaOUTBOX">px_clk</text>
    </g>
    <g transform="translate(30,10)" s:x="30" s:y="10" s:pid="out0" id="port_vgaOUTBOX~out">
      <text x="5" y="-4" style="fill:#000; stroke:none" class="cell_vgaOUTBOX">out</text>
    </g>
  </g>
  <g s:type="inputExt" transform="translate(12,172.5)" s:width="30" s:height="20" id="cell_px_clk">
    <text x="15" y="-4" class="nodelabel cell_px_clk" s:attribute="ref">px_clk</text>
    <s:alias val="$_inputExt_"/>
    <path d="M0,0 L0,20 L15,20 L30,10 L15,0 Z" class="cell_px_clk"/>
    <g s:x="28" s:y="10" s:pid="Y"/>
  </g>
  <g s:type="inputExt" transform="translate(12,107.5)" s:width="30" s:height="20" id="cell_in">
    <text x="15" y="-4" class="nodelabel cell_in" s:attribute="ref">in</text>
    <s:alias val="$_inputExt_"/>
    <path d="M0,0 L0,20 L15,20 L30,10 L15,0 Z" class="cell_in"/>
    <g s:x="28" s:y="10" s:pid="Y"/>
  </g>
  <g s:type="inputExt" transform="translate(12,42.5)" s:width="30" s:height="20" id="cell_en">
    <text x="15" y="-4" class="nodelabel cell_en" s:attribute="ref">en</text>
    <s:alias val="$_inputExt_"/>
    <path d="M0,0 L0,20 L15,20 L30,10 L15,0 Z" class="cell_en"/>
    <g s:x="28" s:y="10" s:pid="Y"/>
  </g>
  <g s:type="outputExt" transform="translate(463,47.5)" s:width="30" s:height="20" id="cell_out">
    <text x="15" y="-4" class="nodelabel cell_out" s:attribute="ref">out</text>
    <s:alias val="$_outputExt_"/>
    <path d="M30,0 L30,20 L15,20 L0,10 L15,0 Z" class="cell_out"/>
    <g s:x="0" s:y="10" s:pid="A"/>
  </g>
  <g s:type="constant" transform="translate(120,22)" s:width="30" s:height="20" id="cell_1">
    <text x="15" y="-4" class="nodelabel cell_1" s:attribute="ref">1</text>
    <s:alias val="$_constant_"/>
    <rect width="30" height="20" class="cell_1"/>
    <g s:x="30" s:y="10" s:pid="Y"/>
  </g>
  <line x1="150" x2="190" y1="32" y2="32" class="net_187"/>
  <line x1="190" x2="190" y1="32" y2="77.5" class="net_187"/>
  <circle cx="190" cy="32" r="2" style="fill:#000" class="net_187"/>
  <line x1="190" x2="252" y1="77.5" y2="77.5" class="net_187"/>
  <line x1="150" x2="312" y1="32" y2="32" class="net_187"/>
  <line x1="312" x2="312" y1="32" y2="57.5" class="net_187"/>
  <line x1="312" x2="374" y1="57.5" y2="57.5" class="net_187"/>
  <line x1="151" x2="252" y1="97.5" y2="97.5" class="net_97,98,99,100,101,102,103,104,105,106,107,108,109,110,111,112,113,114,115,116,117,118,119,120,121,122,123,124,125,126,127,128,129,130,131,132,133,134,135,136,137,138,139,140,141"/>
  <line x1="40" x2="190" y1="182.5" y2="182.5" class="net_2"/>
  <line x1="190" x2="190" y1="182.5" y2="117.5" class="net_2"/>
  <circle cx="190" cy="182.5" r="2" style="fill:#000" class="net_2"/>
  <line x1="190" x2="252" y1="117.5" y2="117.5" class="net_2"/>
  <line x1="40" x2="58" y1="182.5" y2="182.5" class="net_2"/>
  <line x1="58" x2="58" y1="182.5" y2="137.5" class="net_2"/>
  <circle cx="58" cy="182.5" r="2" style="fill:#000" class="net_2"/>
  <line x1="58" x2="120" y1="137.5" y2="137.5" class="net_2"/>
  <line x1="40" x2="312" y1="182.5" y2="182.5" class="net_2"/>
  <line x1="312" x2="312" y1="182.5" y2="97.5" class="net_2"/>
  <line x1="312" x2="374" y1="97.5" y2="97.5" class="net_2"/>
  <line x1="40" x2="58" y1="52.5" y2="52.5" class="net_48,49,50,51"/>
  <line x1="58" x2="58" y1="52.5" y2="97.5" class="net_48,49,50,51"/>
  <line x1="58" x2="120" y1="97.5" y2="97.5" class="net_48,49,50,51"/>
  <line x1="40" x2="120" y1="117.5" y2="117.5" class="net_3,4,5,6,7,8,9,10,11,12,13,14,15,16,17,18,19,20,21,22,23,24,25,26,27,28,29,30,31,32,33,34,35,36,37,38,39,40,41,42,43,44,45,46,47"/>
  <line x1="283" x2="374" y1="77.5" y2="77.5" class="net_142,143,144,145,146,147,148,149,150,151,152,153,154,155,156,157,158,159,160,161,162,163,164,165,166,167,168,169,170,171,172,173,174,175,176,177,178,179,180,181,182,183,184,185,186"/>
  <line x1="405" x2="463" y1="57.5" y2="57.5" class="net_52,53,54,55,56,57,58,59,60,61,62,63,64,65,66,67,68,69,70,71,72,73,74,75,76,77,78,79,80,81,82,83,84,85,86,87,88,89,90,91,92,93,94,95,96"/>
</svg>
