<svg xmlns="http://www.w3.org/2000/svg" xmlns:xlink="http://www.w3.org/1999/xlink" xmlns:s="https://github.com/nturley/netlistsvg" width="1609" height="837.5">
  <style>svg {
    stroke:#000;
    fill:none;
  }
  text {
    fill:#000;
    stroke:none;
    font-size:10px;
    font-weight: bold;
    font-family: "Courier New", monospace;
  }
  .nodelabel {
    text-anchor: middle;
  }
  .inputPortLabel {
    text-anchor: end;
  }
  .splitjoinBody {
    fill:#000;
  }</style>
  <g s:type="add" transform="translate(342.6666666666667,331.5)" s:width="25" s:height="25" id="cell_$add$vgaWord.v:52$18">
    <s:alias val="$add"/>
    <circle r="12.5" cx="12.5" cy="12.5" class="cell_$add$vgaWord.v:52$18"/>
    <line x1="7.5" x2="17.5" y1="12.5" y2="12.5" class="cell_$add$vgaWord.v:52$18"/>
    <line x1="12.5" x2="12.5" y1="7.5" y2="17.5" class="cell_$add$vgaWord.v:52$18"/>
    <g s:x="3" s:y="5" s:pid="A"/>
    <g s:x="3" s:y="20" s:pid="B"/>
    <g s:x="25" s:y="12.5" s:pid="Y"/>
  </g>
  <g s:type="generic" transform="translate(563,300)" s:width="30" s:height="40" id="cell_$ge$vgaWord.v:41$6">
    <text x="15" y="-4" class="nodelabel cell_$ge$vgaWord.v:41$6" s:attribute="ref">$ge</text>
    <rect width="30" height="40" s:generic="body" class="cell_$ge$vgaWord.v:41$6"/>
    <g transform="translate(0,10)" s:x="0" s:y="10" s:pid="in0" id="port_$ge$vgaWord.v:41$6~A">
      <text x="-3" y="-4" class="inputPortLabel cell_$ge$vgaWord.v:41$6">A</text>
    </g>
    <g transform="translate(0,30)" s:x="0" s:y="10" s:pid="in0" id="port_$ge$vgaWord.v:41$6~B">
      <text x="-3" y="-4" class="inputPortLabel cell_$ge$vgaWord.v:41$6">B</text>
    </g>
    <g transform="translate(30,10)" s:x="30" s:y="10" s:pid="out0" id="port_$ge$vgaWord.v:41$6~Y">
      <text x="5" y="-4" style="fill:#000; stroke:none" class="cell_$ge$vgaWord.v:41$6">Y</text>
    </g>
  </g>
  <g s:type="generic" transform="translate(863,555)" s:width="30" s:height="40" id="cell_$ge$vgaWord.v:43$10">
    <text x="15" y="-4" class="nodelabel cell_$ge$vgaWord.v:43$10" s:attribute="ref">$ge</text>
    <rect width="30" height="40" s:generic="body" class="cell_$ge$vgaWord.v:43$10"/>
    <g transform="translate(0,10)" s:x="0" s:y="10" s:pid="in0" id="port_$ge$vgaWord.v:43$10~A">
      <text x="-3" y="-4" class="inputPortLabel cell_$ge$vgaWord.v:43$10">A</text>
    </g>
    <g transform="translate(0,30)" s:x="0" s:y="10" s:pid="in0" id="port_$ge$vgaWord.v:43$10~B">
      <text x="-3" y="-4" class="inputPortLabel cell_$ge$vgaWord.v:43$10">B</text>
    </g>
    <g transform="translate(30,10)" s:x="30" s:y="10" s:pid="out0" id="port_$ge$vgaWord.v:43$10~Y">
      <text x="5" y="-4" style="fill:#000; stroke:none" class="cell_$ge$vgaWord.v:43$10">Y</text>
    </g>
  </g>
  <g s:type="and" transform="translate(1044.6666666666667,217.5)" s:width="30" s:height="25" id="cell_$logic_and$vgaWord.v:40$11">
    <s:alias val="$and"/>
    <s:alias val="$logic_and"/>
    <s:alias val="$_AND_"/>
    <path d="M0,0 L0,25 L15,25 A15 12.5 0 0 0 15,0 Z" class="cell_$logic_and$vgaWord.v:40$11"/>
    <g s:x="0" s:y="5" s:pid="A"/>
    <g s:x="0" s:y="20" s:pid="B"/>
    <g s:x="30" s:y="12.5" s:pid="Y"/>
  </g>
  <g s:type="and" transform="translate(1168,225)" s:width="30" s:height="25" id="cell_$logic_and$vgaWord.v:40$13">
    <s:alias val="$and"/>
    <s:alias val="$logic_and"/>
    <s:alias val="$_AND_"/>
    <path d="M0,0 L0,25 L15,25 A15 12.5 0 0 0 15,0 Z" class="cell_$logic_and$vgaWord.v:40$13"/>
    <g s:x="0" s:y="5" s:pid="A"/>
    <g s:x="0" s:y="20" s:pid="B"/>
    <g s:x="30" s:y="12.5" s:pid="Y"/>
  </g>
  <g s:type="and" transform="translate(436.6666666666667,187.5)" s:width="30" s:height="25" id="cell_$logic_and$vgaWord.v:40$3">
    <s:alias val="$and"/>
    <s:alias val="$logic_and"/>
    <s:alias val="$_AND_"/>
    <path d="M0,0 L0,25 L15,25 A15 12.5 0 0 0 15,0 Z" class="cell_$logic_and$vgaWord.v:40$3"/>
    <g s:x="0" s:y="5" s:pid="A"/>
    <g s:x="0" s:y="20" s:pid="B"/>
    <g s:x="30" s:y="12.5" s:pid="Y"/>
  </g>
  <g s:type="and" transform="translate(586.6666666666666,195)" s:width="30" s:height="25" id="cell_$logic_and$vgaWord.v:40$5">
    <s:alias val="$and"/>
    <s:alias val="$logic_and"/>
    <s:alias val="$_AND_"/>
    <path d="M0,0 L0,25 L15,25 A15 12.5 0 0 0 15,0 Z" class="cell_$logic_and$vgaWord.v:40$5"/>
    <g s:x="0" s:y="5" s:pid="A"/>
    <g s:x="0" s:y="20" s:pid="B"/>
    <g s:x="30" s:y="12.5" s:pid="Y"/>
  </g>
  <g s:type="and" transform="translate(736.6666666666666,202.5)" s:width="30" s:height="25" id="cell_$logic_and$vgaWord.v:40$7">
    <s:alias val="$and"/>
    <s:alias val="$logic_and"/>
    <s:alias val="$_AND_"/>
    <path d="M0,0 L0,25 L15,25 A15 12.5 0 0 0 15,0 Z" class="cell_$logic_and$vgaWord.v:40$7"/>
    <g s:x="0" s:y="5" s:pid="A"/>
    <g s:x="0" s:y="20" s:pid="B"/>
    <g s:x="30" s:y="12.5" s:pid="Y"/>
  </g>
  <g s:type="and" transform="translate(888.6666666666666,210)" s:width="30" s:height="25" id="cell_$logic_and$vgaWord.v:40$9">
    <s:alias val="$and"/>
    <s:alias val="$logic_and"/>
    <s:alias val="$_AND_"/>
    <path d="M0,0 L0,25 L15,25 A15 12.5 0 0 0 15,0 Z" class="cell_$logic_and$vgaWord.v:40$9"/>
    <g s:x="0" s:y="5" s:pid="A"/>
    <g s:x="0" s:y="20" s:pid="B"/>
    <g s:x="30" s:y="12.5" s:pid="Y"/>
  </g>
  <g s:type="generic" transform="translate(713,504)" s:width="30" s:height="40" id="cell_$lt$vgaWord.v:42$8">
    <text x="15" y="-4" class="nodelabel cell_$lt$vgaWord.v:42$8" s:attribute="ref">$lt</text>
    <rect width="30" height="40" s:generic="body" class="cell_$lt$vgaWord.v:42$8"/>
    <g transform="translate(0,10)" s:x="0" s:y="10" s:pid="in0" id="port_$lt$vgaWord.v:42$8~A">
      <text x="-3" y="-4" class="inputPortLabel cell_$lt$vgaWord.v:42$8">A</text>
    </g>
    <g transform="translate(0,30)" s:x="0" s:y="10" s:pid="in0" id="port_$lt$vgaWord.v:42$8~B">
      <text x="-3" y="-4" class="inputPortLabel cell_$lt$vgaWord.v:42$8">B</text>
    </g>
    <g transform="translate(30,10)" s:x="30" s:y="10" s:pid="out0" id="port_$lt$vgaWord.v:42$8~Y">
      <text x="5" y="-4" style="fill:#000; stroke:none" class="cell_$lt$vgaWord.v:42$8">Y</text>
    </g>
  </g>
  <g s:type="generic" transform="translate(1019,597.5)" s:width="30" s:height="40" id="cell_$lt$vgaWord.v:44$12">
    <text x="15" y="-4" class="nodelabel cell_$lt$vgaWord.v:44$12" s:attribute="ref">$lt</text>
    <rect width="30" height="40" s:generic="body" class="cell_$lt$vgaWord.v:44$12"/>
    <g transform="translate(0,10)" s:x="0" s:y="10" s:pid="in0" id="port_$lt$vgaWord.v:44$12~A">
      <text x="-3" y="-4" class="inputPortLabel cell_$lt$vgaWord.v:44$12">A</text>
    </g>
    <g transform="translate(0,30)" s:x="0" s:y="10" s:pid="in0" id="port_$lt$vgaWord.v:44$12~B">
      <text x="-3" y="-4" class="inputPortLabel cell_$lt$vgaWord.v:44$12">B</text>
    </g>
    <g transform="translate(30,10)" s:x="30" s:y="10" s:pid="out0" id="port_$lt$vgaWord.v:44$12~Y">
      <text x="5" y="-4" style="fill:#000; stroke:none" class="cell_$lt$vgaWord.v:44$12">Y</text>
    </g>
  </g>
  <g s:type="generic" transform="translate(413,257.5)" s:width="30" s:height="40" id="cell_$ne$vgaWord.v:40$4">
    <text x="15" y="-4" class="nodelabel cell_$ne$vgaWord.v:40$4" s:attribute="ref">$ne</text>
    <rect width="30" height="40" s:generic="body" class="cell_$ne$vgaWord.v:40$4"/>
    <g transform="translate(0,10)" s:x="0" s:y="10" s:pid="in0" id="port_$ne$vgaWord.v:40$4~A">
      <text x="-3" y="-4" class="inputPortLabel cell_$ne$vgaWord.v:40$4">A</text>
    </g>
    <g transform="translate(0,30)" s:x="0" s:y="10" s:pid="in0" id="port_$ne$vgaWord.v:40$4~B">
      <text x="-3" y="-4" class="inputPortLabel cell_$ne$vgaWord.v:40$4">B</text>
    </g>
    <g transform="translate(30,10)" s:x="30" s:y="10" s:pid="out0" id="port_$ne$vgaWord.v:40$4~Y">
      <text x="5" y="-4" style="fill:#000; stroke:none" class="cell_$ne$vgaWord.v:40$4">Y</text>
    </g>
  </g>
  <g s:type="or" transform="translate(1311,58)" s:width="30" s:height="25" id="cell_$or$vgaWord.v:69$22">
    <s:alias val="$or"/>
    <s:alias val="$logic_or"/>
    <s:alias val="$_OR_"/>
    <path d="M0,25 L0,25 L15,25 A15 12.5 0 0 0 15,0 L0,0" class="cell_$or$vgaWord.v:69$22"/>
    <path d="M0,0 A30 25 0 0 1 0,25" class="cell_$or$vgaWord.v:69$22"/>
    <g s:x="3" s:y="5" s:pid="A"/>
    <g s:x="3" s:y="20" s:pid="B"/>
    <g s:x="30" s:y="12.5" s:pid="Y"/>
  </g>
  <g s:type="dff" transform="translate(1502,24.5)" s:width="30" s:height="40" id="cell_$procdff$26">
    <s:alias val="$dff"/>
    <s:alias val="$_DFF_"/>
    <rect width="30" height="40" x="0" y="0" class="cell_$procdff$26"/>
    <path d="M0,35 L5,30 L0,25" class="cell_$procdff$26"/>
    <g s:x="30" s:y="10" s:pid="Q"/>
    <g s:x="0" s:y="30" s:pid="CLK"/>
    <g s:x="0" s:y="10" s:pid="D"/>
  </g>
  <g s:type="mux" transform="translate(1376,24.5)" s:width="20" s:height="40" id="cell_$procmux$24">
    <s:alias val="$pmux"/>
    <s:alias val="$mux"/>
    <s:alias val="$_MUX_"/>
    <path d="M0,0 L20,10 L20,30 L0,40 Z" class="cell_$procmux$24"/>
    <g s:x="0" s:y="10" s:pid="A"/>
    <g s:x="0" s:y="30" s:pid="B"/>
    <g s:x="10" s:y="35" s:pid="S"/>
    <g s:x="20" s:y="20" s:pid="Y"/>
  </g>
  <g s:type="sub" transform="translate(218.66666666666666,190)" s:width="25" s:height="25" id="cell_$sub$vgaWord.v:47$14">
    <s:alias val="$sub"/>
    <circle r="12.5" cx="12.5" cy="12.5" class="cell_$sub$vgaWord.v:47$14"/>
    <line x1="7.5" x2="17.5" y1="12.5" y2="12.5" class="cell_$sub$vgaWord.v:47$14"/>
    <g s:x="3" s:y="5" s:pid="A"/>
    <g s:x="3" s:y="20" s:pid="B"/>
    <g s:x="25" s:y="12.5" s:pid="Y"/>
  </g>
  <g s:type="sub" transform="translate(157,461.5)" s:width="25" s:height="25" id="cell_$sub$vgaWord.v:48$15">
    <s:alias val="$sub"/>
    <circle r="12.5" cx="12.5" cy="12.5" class="cell_$sub$vgaWord.v:48$15"/>
    <line x1="7.5" x2="17.5" y1="12.5" y2="12.5" class="cell_$sub$vgaWord.v:48$15"/>
    <g s:x="3" s:y="5" s:pid="A"/>
    <g s:x="3" s:y="20" s:pid="B"/>
    <g s:x="25" s:y="12.5" s:pid="Y"/>
  </g>
  <g s:type="mux" transform="translate(283.3333333333333,331.5)" s:width="20" s:height="40" id="cell_$ternary$vgaWord.v:51$17">
    <s:alias val="$pmux"/>
    <s:alias val="$mux"/>
    <s:alias val="$_MUX_"/>
    <path d="M0,0 L20,10 L20,30 L0,40 Z" class="cell_$ternary$vgaWord.v:51$17"/>
    <g s:x="0" s:y="10" s:pid="A"/>
    <g s:x="0" s:y="30" s:pid="B"/>
    <g s:x="10" s:y="35" s:pid="S"/>
    <g s:x="20" s:y="20" s:pid="Y"/>
  </g>
  <g s:type="mux" transform="translate(1171.3333333333333,685.5)" s:width="20" s:height="40" id="cell_$ternary$vgaWord.v:56$20">
    <s:alias val="$pmux"/>
    <s:alias val="$mux"/>
    <s:alias val="$_MUX_"/>
    <path d="M0,0 L20,10 L20,30 L0,40 Z" class="cell_$ternary$vgaWord.v:56$20"/>
    <g s:x="0" s:y="10" s:pid="A"/>
    <g s:x="0" s:y="30" s:pid="B"/>
    <g s:x="10" s:y="35" s:pid="S"/>
    <g s:x="20" s:y="20" s:pid="Y"/>
  </g>
  <g s:type="mux" transform="translate(1171.3333333333333,68)" s:width="20" s:height="40" id="cell_$ternary$vgaWord.v:61$19">
    <s:alias val="$pmux"/>
    <s:alias val="$mux"/>
    <s:alias val="$_MUX_"/>
    <path d="M0,0 L20,10 L20,30 L0,40 Z" class="cell_$ternary$vgaWord.v:61$19"/>
    <g s:x="0" s:y="10" s:pid="A"/>
    <g s:x="0" s:y="30" s:pid="B"/>
    <g s:x="10" s:y="35" s:pid="S"/>
    <g s:x="20" s:y="20" s:pid="Y"/>
  </g>
  <g s:type="inputExt" transform="translate(1431,99)" s:width="30" s:height="20" id="cell_px_clk">
    <text x="15" y="-4" class="nodelabel cell_px_clk" s:attribute="ref">px_clk</text>
    <s:alias val="$_inputExt_"/>
    <path d="M0,0 L0,20 L15,20 L30,10 L15,0 Z" class="cell_px_clk"/>
    <g s:x="28" s:y="10" s:pid="Y"/>
  </g>
  <g s:type="inputExt" transform="translate(12,310.5)" s:width="30" s:height="20" id="cell_in">
    <text x="15" y="-4" class="nodelabel cell_in" s:attribute="ref">in</text>
    <s:alias val="$_inputExt_"/>
    <path d="M0,0 L0,20 L15,20 L30,10 L15,0 Z" class="cell_in"/>
    <g s:x="28" s:y="10" s:pid="Y"/>
  </g>
  <g s:type="inputExt" transform="translate(341,182.5)" s:width="30" s:height="20" id="cell_en">
    <text x="15" y="-4" class="nodelabel cell_en" s:attribute="ref">en</text>
    <s:alias val="$_inputExt_"/>
    <path d="M0,0 L0,20 L15,20 L30,10 L15,0 Z" class="cell_en"/>
    <g s:x="28" s:y="10" s:pid="Y"/>
  </g>
  <g s:type="outputExt" transform="translate(1567,24.5)" s:width="30" s:height="20" id="cell_out">
    <text x="15" y="-4" class="nodelabel cell_out" s:attribute="ref">out</text>
    <s:alias val="$_outputExt_"/>
    <path d="M30,0 L30,20 L15,20 L0,10 L15,0 Z" class="cell_out"/>
    <g s:x="0" s:y="10" s:pid="A"/>
  </g>
  <g s:type="constant" transform="translate(77,493.5)" s:width="30" s:height="20" id="cell_0">
    <text x="15" y="-4" class="nodelabel cell_0" s:attribute="ref">0</text>
    <s:alias val="$_constant_"/>
    <rect width="30" height="20" class="cell_0"/>
    <g s:x="30" s:y="10" s:pid="Y"/>
  </g>
  <g s:type="constant" transform="translate(563,535.5)" s:width="30" s:height="20" id="cell_1">
    <text x="15" y="-4" class="nodelabel cell_1" s:attribute="ref">1</text>
    <s:alias val="$_constant_"/>
    <rect width="30" height="20" class="cell_1"/>
    <g s:x="30" s:y="10" s:pid="Y"/>
  </g>
  <g s:type="constant" transform="translate(863,629)" s:width="30" s:height="20" id="cell_100">
    <text x="15" y="-4" class="nodelabel cell_100" s:attribute="ref">100</text>
    <s:alias val="$_constant_"/>
    <rect width="30" height="20" class="cell_100"/>
    <g s:x="30" s:y="10" s:pid="Y"/>
  </g>
  <g s:type="constant" transform="translate(341,278)" s:width="30" s:height="20" id="cell_11111">
    <text x="15" y="-4" class="nodelabel cell_11111" s:attribute="ref">0x1f</text>
    <s:alias val="$_constant_"/>
    <rect width="30" height="20" class="cell_11111"/>
    <g s:x="30" s:y="10" s:pid="Y"/>
  </g>
  <g s:type="constant" transform="translate(1168,159)" s:width="30" s:height="20" id="cell_0000011">
    <text x="15" y="-4" class="nodelabel cell_0000011" s:attribute="ref">0x3</text>
    <s:alias val="$_constant_"/>
    <rect width="30" height="20" class="cell_0000011"/>
    <g s:x="30" s:y="10" s:pid="Y"/>
  </g>
  <g s:type="constant" transform="translate(217,331.5)" s:width="30" s:height="20" id="cell_00000">
    <text x="15" y="-4" class="nodelabel cell_00000" s:attribute="ref">0x0</text>
    <s:alias val="$_constant_"/>
    <rect width="30" height="20" class="cell_00000"/>
    <g s:x="30" s:y="10" s:pid="Y"/>
  </g>
  <g s:type="constant" transform="translate(217,396.5)" s:width="30" s:height="20" id="cell_10000">
    <text x="15" y="-4" class="nodelabel cell_10000" s:attribute="ref">0x10</text>
    <s:alias val="$_constant_"/>
    <rect width="30" height="20" class="cell_10000"/>
    <g s:x="30" s:y="10" s:pid="Y"/>
  </g>
  <g s:type="constant" transform="translate(1019,685.5)" s:width="30" s:height="20" id="cell_11">
    <text x="15" y="-4" class="nodelabel cell_11" s:attribute="ref">11</text>
    <s:alias val="$_constant_"/>
    <rect width="30" height="20" class="cell_11"/>
    <g s:x="30" s:y="10" s:pid="Y"/>
  </g>
  <g s:type="constant" transform="translate(1019,750.5)" s:width="30" s:height="20" id="cell_01">
    <text x="15" y="-4" class="nodelabel cell_01" s:attribute="ref">01</text>
    <s:alias val="$_constant_"/>
    <rect width="30" height="20" class="cell_01"/>
    <g s:x="30" s:y="10" s:pid="Y"/>
  </g>
  <g s:type="join" transform="translate(1268,57.5)" s:width="4" s:height="40" id="cell_$join$,114,121,182,183,184,185,186,187,188,122,173,123,124,171,104,105,106,107,108,">
    <rect width="5" height="160" class="splitjoinBody" s:generic="body"/>
    <s:alias val="$_join_"/>
    <g s:x="5" s:y="20" s:pid="out"/>
    <g transform="translate(0,10)" s:x="0" s:y="10" s:pid="in0">
      <text x="-3" y="-4" class="inputPortLabel">0</text>
    </g>
    <g transform="translate(0,30)" s:x="0" s:y="10" s:pid="in0">
      <text x="-3" y="-4" class="inputPortLabel">1</text>
    </g>
    <g transform="translate(0,50)" s:x="0" s:y="10" s:pid="in0">
      <text x="-3" y="-4" class="inputPortLabel">2:8</text>
    </g>
    <g transform="translate(0,70)" s:x="0" s:y="10" s:pid="in0">
      <text x="-3" y="-4" class="inputPortLabel">9</text>
    </g>
    <g transform="translate(0,90)" s:x="0" s:y="10" s:pid="in0">
      <text x="-3" y="-4" class="inputPortLabel">10</text>
    </g>
    <g transform="translate(0,110)" s:x="0" s:y="10" s:pid="in0">
      <text x="-3" y="-4" class="inputPortLabel">11:12</text>
    </g>
    <g transform="translate(0,130)" s:x="0" s:y="10" s:pid="in0">
      <text x="-3" y="-4" class="inputPortLabel">13</text>
    </g>
    <g transform="translate(0,150)" s:x="0" s:y="10" s:pid="in0">
      <text x="-3" y="-4" class="inputPortLabel">14:18</text>
    </g>
  </g>
  <g s:type="join" transform="translate(1456,14)" s:width="4" s:height="40" id="cell_$join$,3,4,5,6,7,8,9,10,11,12,13,14,15,16,17,18,19,20,21,22,23,24,25,147,148,149,150,151,152,153,154,155,156,157,158,159,160,161,162,163,164,165,166,167,168,">
    <rect width="5" height="40" class="splitjoinBody" s:generic="body"/>
    <s:alias val="$_join_"/>
    <g s:x="5" s:y="20" s:pid="out"/>
    <g transform="translate(0,10)" s:x="0" s:y="10" s:pid="in0">
      <text x="-3" y="-4" class="inputPortLabel">0:22</text>
    </g>
    <g transform="translate(0,30)" s:x="0" s:y="10" s:pid="in0">
      <text x="-3" y="-4" class="inputPortLabel">23:44</text>
    </g>
  </g>
  <g s:type="split" transform="translate(282,182)" s:width="5" s:height="40" id="cell_$split$,122,115,94,95,96,97,98,">
    <rect width="5" height="60" class="splitjoinBody" s:generic="body"/>
    <s:alias val="$_split_"/>
    <g s:x="0" s:y="20" s:pid="in"/>
    <g transform="translate(4,10)" s:x="4" s:y="10" s:pid="out0">
      <text x="5" y="-4">2:6</text>
    </g>
    <g transform="translate(4,30)" s:x="4" s:y="10" s:pid="out0">
      <text x="5" y="-4">1</text>
    </g>
    <g transform="translate(4,50)" s:x="4" s:y="10" s:pid="out0">
      <text x="5" y="-4">0</text>
    </g>
  </g>
  <g s:type="split" transform="translate(77,300)" s:width="5" s:height="40" id="cell_$split$,3,4,5,6,7,8,9,10,11,12,13,14,15,16,17,18,19,20,21,22,23,24,25,26,27,28,29,30,31,32,33,34,35,36,37,38,39,40,41,42,43,44,45,46,47,">
    <rect width="5" height="100" class="splitjoinBody" s:generic="body"/>
    <s:alias val="$_split_"/>
    <g s:x="0" s:y="20" s:pid="in"/>
    <g transform="translate(4,10)" s:x="4" s:y="10" s:pid="out0">
      <text x="5" y="-4">5:11</text>
    </g>
    <g transform="translate(4,30)" s:x="4" s:y="10" s:pid="out0">
      <text x="5" y="-4">16:21</text>
    </g>
    <g transform="translate(4,50)" s:x="4" s:y="10" s:pid="out0">
      <text x="5" y="-4">23:44</text>
    </g>
    <g transform="translate(4,70)" s:x="4" s:y="10" s:pid="out0">
      <text x="5" y="-4">0:22</text>
    </g>
    <g transform="translate(4,90)" s:x="4" s:y="10" s:pid="out0">
      <text x="5" y="-4">16:17</text>
    </g>
  </g>
  <g s:type="split" transform="translate(231.33333333333334,453.5)" s:width="5" s:height="40" id="cell_$split$,169,170,">
    <rect width="5" height="40" class="splitjoinBody" s:generic="body"/>
    <s:alias val="$_split_"/>
    <g s:x="0" s:y="20" s:pid="in"/>
    <g transform="translate(4,10)" s:x="4" s:y="10" s:pid="out0">
      <text x="5" y="-4">1</text>
    </g>
    <g transform="translate(4,30)" s:x="4" s:y="10" s:pid="out0">
      <text x="5" y="-4">0</text>
    </g>
  </g>
  <line x1="287" x2="326" y1="192.5" y2="192.5" class="net_94,95,96,97,98"/>
  <line x1="326" x2="326" y1="192.5" y2="336.5" class="net_94,95,96,97,98"/>
  <line x1="326" x2="345.6666666666667" y1="336.5" y2="336.5" class="net_94,95,96,97,98"/>
  <line x1="303.3333333333333" x2="345.6666666666667" y1="351.5" y2="351.5" class="net_99,100,101,102,103"/>
  <line x1="82" x2="563" y1="310.5" y2="310.5" class="net_8,9,10,11,12,13,14"/>
  <line x1="82" x2="147" y1="310.5" y2="310.5" class="net_8,9,10,11,12,13,14"/>
  <line x1="147" x2="147" y1="310.5" y2="514.5" class="net_8,9,10,11,12,13,14"/>
  <circle cx="147" cy="310.5" r="2" style="fill:#000" class="net_8,9,10,11,12,13,14"/>
  <line x1="147" x2="713" y1="514.5" y2="514.5" class="net_8,9,10,11,12,13,14"/>
  <line x1="82" x2="147" y1="310.5" y2="310.5" class="net_8,9,10,11,12,13,14"/>
  <line x1="147" x2="147" y1="310.5" y2="195" class="net_8,9,10,11,12,13,14"/>
  <line x1="147" x2="221.66666666666666" y1="195" y2="195" class="net_8,9,10,11,12,13,14"/>
  <line x1="107" x2="531" y1="503.5" y2="503.5" class="net_171"/>
  <line x1="531" x2="531" y1="503.5" y2="330.5" class="net_171"/>
  <line x1="531" x2="563" y1="330.5" y2="330.5" class="net_171"/>
  <line x1="107" x2="137" y1="503.5" y2="503.5" class="net_171"/>
  <line x1="137" x2="137" y1="503.5" y2="585.5" class="net_171"/>
  <circle cx="137" cy="503.5" r="2" style="fill:#000" class="net_171"/>
  <circle cx="137" cy="585.5" r="2" style="fill:#000" class="net_171"/>
  <line x1="137" x2="863" y1="585.5" y2="585.5" class="net_171"/>
  <line x1="107" x2="137" y1="503.5" y2="503.5" class="net_171"/>
  <line x1="137" x2="137" y1="503.5" y2="210" class="net_171"/>
  <circle cx="137" cy="210" r="2" style="fill:#000" class="net_171"/>
  <line x1="137" x2="221.66666666666666" y1="210" y2="210" class="net_171"/>
  <line x1="107" x2="137" y1="503.5" y2="503.5" class="net_171"/>
  <line x1="137" x2="137" y1="503.5" y2="481.5" class="net_171"/>
  <circle cx="137" cy="481.5" r="2" style="fill:#000" class="net_171"/>
  <line x1="137" x2="160" y1="481.5" y2="481.5" class="net_171"/>
  <line x1="107" x2="137" y1="503.5" y2="503.5" class="net_171"/>
  <line x1="137" x2="137" y1="503.5" y2="78" class="net_171"/>
  <line x1="137" x2="1171.3333333333333" y1="78" y2="78" class="net_171"/>
  <line x1="107" x2="137" y1="503.5" y2="503.5" class="net_171"/>
  <line x1="137" x2="137" y1="503.5" y2="802.5" class="net_171"/>
  <line x1="137" x2="1248" y1="802.5" y2="802.5" class="net_171"/>
  <line x1="1248" x2="1248" y1="802.5" y2="188" class="net_171"/>
  <line x1="1248" x2="1268" y1="188" y2="188" class="net_171"/>
  <line x1="82" x2="127" y1="330.5" y2="330.5" class="net_19,20,21,22,23,24"/>
  <line x1="127" x2="127" y1="330.5" y2="565.5" class="net_19,20,21,22,23,24"/>
  <circle cx="127" cy="565.5" r="2" style="fill:#000" class="net_19,20,21,22,23,24"/>
  <line x1="127" x2="863" y1="565.5" y2="565.5" class="net_19,20,21,22,23,24"/>
  <line x1="82" x2="127" y1="330.5" y2="330.5" class="net_19,20,21,22,23,24"/>
  <line x1="127" x2="127" y1="330.5" y2="608" class="net_19,20,21,22,23,24"/>
  <line x1="127" x2="1019" y1="608" y2="608" class="net_19,20,21,22,23,24"/>
  <line x1="918.6666666666666" x2="1044.6666666666667" y1="222.5" y2="222.5" class="net_111"/>
  <line x1="894" x2="987" y1="565.5" y2="565.5" class="net_110"/>
  <line x1="987" x2="987" y1="565.5" y2="237.5" class="net_110"/>
  <line x1="987" x2="1044.6666666666667" y1="237.5" y2="237.5" class="net_110"/>
  <line x1="1074.6666666666667" x2="1168" y1="230" y2="230" class="net_112"/>
  <line x1="1050" x2="1143" y1="608" y2="608" class="net_113"/>
  <line x1="1143" x2="1143" y1="608" y2="245" class="net_113"/>
  <line x1="1143" x2="1168" y1="245" y2="245" class="net_113"/>
  <line x1="369" x2="436.6666666666667" y1="192.5" y2="192.5" class="net_48"/>
  <line x1="287" x2="381" y1="212.5" y2="212.5" class="net_115"/>
  <line x1="381" x2="381" y1="212.5" y2="207.5" class="net_115"/>
  <line x1="381" x2="436.6666666666667" y1="207.5" y2="207.5" class="net_115"/>
  <line x1="466.6666666666667" x2="586.6666666666666" y1="200" y2="200" class="net_116"/>
  <line x1="444" x2="531" y1="268" y2="268" class="net_117"/>
  <line x1="531" x2="531" y1="268" y2="215" class="net_117"/>
  <line x1="531" x2="586.6666666666666" y1="215" y2="215" class="net_117"/>
  <line x1="616.6666666666666" x2="736.6666666666666" y1="207.5" y2="207.5" class="net_118"/>
  <line x1="594" x2="691" y1="310.5" y2="310.5" class="net_109"/>
  <line x1="691" x2="691" y1="310.5" y2="222.5" class="net_109"/>
  <line x1="691" x2="736.6666666666666" y1="222.5" y2="222.5" class="net_109"/>
  <line x1="766.6666666666666" x2="888.6666666666666" y1="215" y2="215" class="net_119"/>
  <line x1="744" x2="831" y1="514.5" y2="514.5" class="net_120"/>
  <line x1="831" x2="831" y1="514.5" y2="230" class="net_120"/>
  <line x1="831" x2="888.6666666666666" y1="230" y2="230" class="net_120"/>
  <line x1="593" x2="681" y1="545.5" y2="545.5" class="net_173"/>
  <line x1="681" x2="681" y1="545.5" y2="534.5" class="net_173"/>
  <circle cx="681" cy="545.5" r="2" style="fill:#000" class="net_173"/>
  <circle cx="681" cy="534.5" r="2" style="fill:#000" class="net_173"/>
  <line x1="681" x2="713" y1="534.5" y2="534.5" class="net_173"/>
  <line x1="593" x2="681" y1="545.5" y2="545.5" class="net_173"/>
  <line x1="681" x2="681" y1="545.5" y2="98" class="net_173"/>
  <line x1="681" x2="1171.3333333333333" y1="98" y2="98" class="net_173"/>
  <line x1="593" x2="681" y1="545.5" y2="545.5" class="net_173"/>
  <line x1="681" x2="681" y1="545.5" y2="791.5" class="net_173"/>
  <line x1="681" x2="1228" y1="791.5" y2="791.5" class="net_173"/>
  <line x1="1228" x2="1228" y1="791.5" y2="148" class="net_173"/>
  <line x1="1228" x2="1268" y1="148" y2="148" class="net_173"/>
  <line x1="893" x2="987" y1="639" y2="639" class="net_174,175,176"/>
  <line x1="987" x2="987" y1="639" y2="628" class="net_174,175,176"/>
  <line x1="987" x2="1019" y1="628" y2="628" class="net_174,175,176"/>
  <line x1="367.6666666666667" x2="381" y1="344" y2="344" class="net_104,105,106,107,108"/>
  <line x1="381" x2="381" y1="344" y2="268" class="net_104,105,106,107,108"/>
  <circle cx="381" cy="344" r="2" style="fill:#000" class="net_104,105,106,107,108"/>
  <line x1="381" x2="413" y1="268" y2="268" class="net_104,105,106,107,108"/>
  <line x1="367.6666666666667" x2="381" y1="344" y2="344" class="net_104,105,106,107,108"/>
  <line x1="381" x2="381" y1="344" y2="813.5" class="net_104,105,106,107,108"/>
  <line x1="381" x2="1258" y1="813.5" y2="813.5" class="net_104,105,106,107,108"/>
  <line x1="1258" x2="1258" y1="813.5" y2="227.5" class="net_104,105,106,107,108"/>
  <line x1="1258" x2="1268.5" y1="227.5" y2="227.5" class="net_104,105,106,107,108"/>
  <line x1="1268.5" x2="1268.5" y1="227.5" y2="208.5" class="net_104,105,106,107,108"/>
  <line x1="371" x2="413" y1="288" y2="288" class="net_177,178,179,180,181"/>
  <line x1="82" x2="117" y1="350.5" y2="350.5" class="net_26,27,28,29,30,31,32,33,34,35,36,37,38,39,40,41,42,43,44,45,46,47"/>
  <line x1="117" x2="117" y1="350.5" y2="34.5" class="net_26,27,28,29,30,31,32,33,34,35,36,37,38,39,40,41,42,43,44,45,46,47"/>
  <line x1="117" x2="1286" y1="34.5" y2="34.5" class="net_26,27,28,29,30,31,32,33,34,35,36,37,38,39,40,41,42,43,44,45,46,47"/>
  <line x1="1286" x2="1286" y1="34.5" y2="63" class="net_26,27,28,29,30,31,32,33,34,35,36,37,38,39,40,41,42,43,44,45,46,47"/>
  <circle cx="1286" cy="34.5" r="2" style="fill:#000" class="net_26,27,28,29,30,31,32,33,34,35,36,37,38,39,40,41,42,43,44,45,46,47"/>
  <line x1="1286" x2="1314" y1="63" y2="63" class="net_26,27,28,29,30,31,32,33,34,35,36,37,38,39,40,41,42,43,44,45,46,47"/>
  <line x1="82" x2="117" y1="350.5" y2="350.5" class="net_26,27,28,29,30,31,32,33,34,35,36,37,38,39,40,41,42,43,44,45,46,47"/>
  <line x1="117" x2="117" y1="350.5" y2="34.5" class="net_26,27,28,29,30,31,32,33,34,35,36,37,38,39,40,41,42,43,44,45,46,47"/>
  <line x1="117" x2="1376" y1="34.5" y2="34.5" class="net_26,27,28,29,30,31,32,33,34,35,36,37,38,39,40,41,42,43,44,45,46,47"/>
  <line x1="1274" x2="1314" y1="78" y2="78" class="net_114,121,182,183,184,185,186,187,188,122,173,123,124,171,104,105,106,107,108"/>
  <line x1="1459" x2="1477" y1="109" y2="109" class="net_2"/>
  <line x1="1477" x2="1477" y1="109" y2="54.5" class="net_2"/>
  <line x1="1477" x2="1502" y1="54.5" y2="54.5" class="net_2"/>
  <line x1="1462" x2="1502" y1="34.5" y2="34.5" class="net_3,4,5,6,7,8,9,10,11,12,13,14,15,16,17,18,19,20,21,22,23,24,25,147,148,149,150,151,152,153,154,155,156,157,158,159,160,161,162,163,164,165,166,167,168"/>
  <line x1="1341" x2="1351" y1="70.5" y2="70.5" class="net_125,126,127,128,129,130,131,132,133,134,135,136,137,138,139,140,141,142,143,144,145,146"/>
  <line x1="1351" x2="1351" y1="70.5" y2="54.5" class="net_125,126,127,128,129,130,131,132,133,134,135,136,137,138,139,140,141,142,143,144,145,146"/>
  <line x1="1351" x2="1376" y1="54.5" y2="54.5" class="net_125,126,127,128,129,130,131,132,133,134,135,136,137,138,139,140,141,142,143,144,145,146"/>
  <line x1="1198" x2="1386" y1="237.5" y2="237.5" class="net_114"/>
  <line x1="1386" x2="1386" y1="237.5" y2="59.5" class="net_114"/>
  <line x1="1198" x2="1218" y1="237.5" y2="237.5" class="net_114"/>
  <line x1="1218" x2="1218" y1="237.5" y2="45.5" class="net_114"/>
  <line x1="1218" x2="1268.5" y1="45.5" y2="45.5" class="net_114"/>
  <circle cx="1218" cy="237.5" r="2" style="fill:#000" class="net_114"/>
  <line x1="1268.5" x2="1268.5" y1="45.5" y2="67.5" class="net_114"/>
  <line x1="81.5" x2="81.5" y1="391" y2="466.5" class="net_19,20"/>
  <line x1="81.5" x2="160" y1="466.5" y2="466.5" class="net_19,20"/>
  <line x1="247" x2="283.3333333333333" y1="341.5" y2="341.5" class="net_193,194,195,196,197"/>
  <line x1="247" x2="267" y1="406.5" y2="406.5" class="net_198,199,200,201,202"/>
  <line x1="267" x2="267" y1="406.5" y2="361.5" class="net_198,199,200,201,202"/>
  <line x1="267" x2="283.3333333333333" y1="361.5" y2="361.5" class="net_198,199,200,201,202"/>
  <line x1="236.33333333333334" x2="293.3333333333333" y1="464" y2="464" class="net_170"/>
  <line x1="293.3333333333333" x2="293.3333333333333" y1="464" y2="366.5" class="net_170"/>
  <line x1="1049" x2="1171.3333333333333" y1="695.5" y2="695.5" class="net_203,204"/>
  <line x1="1049" x2="1143" y1="760.5" y2="760.5" class="net_205,206"/>
  <line x1="1143" x2="1143" y1="760.5" y2="715.5" class="net_205,206"/>
  <line x1="1143" x2="1171.3333333333333" y1="715.5" y2="715.5" class="net_205,206"/>
  <line x1="236.33333333333334" x2="257" y1="484" y2="484" class="net_169"/>
  <line x1="257" x2="257" y1="484" y2="780.5" class="net_169"/>
  <line x1="257" x2="1181.3333333333333" y1="780.5" y2="780.5" class="net_169"/>
  <circle cx="257" cy="484" r="2" style="fill:#000" class="net_169"/>
  <line x1="1181.3333333333333" x2="1181.3333333333333" y1="780.5" y2="720.5" class="net_169"/>
  <line x1="236.33333333333334" x2="257" y1="484" y2="484" class="net_169"/>
  <line x1="257" x2="257" y1="484" y2="139" class="net_169"/>
  <line x1="257" x2="1181.3333333333333" y1="139" y2="139" class="net_169"/>
  <line x1="1181.3333333333333" x2="1181.3333333333333" y1="139" y2="103" class="net_169"/>
  <line x1="1532" x2="1567" y1="34.5" y2="34.5" class="net_49,50,51,52,53,54,55,56,57,58,59,60,61,62,63,64,65,66,67,68,69,70,71,72,73,74,75,76,77,78,79,80,81,82,83,84,85,86,87,88,89,90,91,92,93"/>
  <line x1="1191.3333333333333" x2="1268" y1="88" y2="88" class="net_121"/>
  <line x1="1198" x2="1208" y1="169" y2="169" class="net_182,183,184,185,186,187,188"/>
  <line x1="1208" x2="1208" y1="169" y2="108" class="net_182,183,184,185,186,187,188"/>
  <line x1="1208" x2="1268" y1="108" y2="108" class="net_182,183,184,185,186,187,188"/>
  <line x1="287" x2="316" y1="232.5" y2="232.5" class="net_122"/>
  <line x1="316" x2="316" y1="232.5" y2="128" class="net_122"/>
  <line x1="316" x2="1268" y1="128" y2="128" class="net_122"/>
  <line x1="1191.3333333333333" x2="1238" y1="705.5" y2="705.5" class="net_123,124"/>
  <line x1="1238" x2="1238" y1="705.5" y2="168" class="net_123,124"/>
  <line x1="1238" x2="1268" y1="168" y2="168" class="net_123,124"/>
  <line x1="82" x2="117" y1="370.5" y2="370.5" class="net_3,4,5,6,7,8,9,10,11,12,13,14,15,16,17,18,19,20,21,22,23,24,25"/>
  <line x1="117" x2="117" y1="370.5" y2="824.5" class="net_3,4,5,6,7,8,9,10,11,12,13,14,15,16,17,18,19,20,21,22,23,24,25"/>
  <line x1="117" x2="1406" y1="824.5" y2="824.5" class="net_3,4,5,6,7,8,9,10,11,12,13,14,15,16,17,18,19,20,21,22,23,24,25"/>
  <line x1="1406" x2="1406" y1="824.5" y2="24.5" class="net_3,4,5,6,7,8,9,10,11,12,13,14,15,16,17,18,19,20,21,22,23,24,25"/>
  <line x1="1406" x2="1456" y1="24.5" y2="24.5" class="net_3,4,5,6,7,8,9,10,11,12,13,14,15,16,17,18,19,20,21,22,23,24,25"/>
  <line x1="1396" x2="1456" y1="44.5" y2="44.5" class="net_147,148,149,150,151,152,153,154,155,156,157,158,159,160,161,162,163,164,165,166,167,168"/>
  <line x1="243.66666666666666" x2="282" y1="202.5" y2="202.5" class="net_122,115,94,95,96,97,98"/>
  <line x1="40" x2="77" y1="320.5" y2="320.5" class="net_3,4,5,6,7,8,9,10,11,12,13,14,15,16,17,18,19,20,21,22,23,24,25,26,27,28,29,30,31,32,33,34,35,36,37,38,39,40,41,42,43,44,45,46,47"/>
  <line x1="182" x2="231.33333333333334" y1="474" y2="474" class="net_169,170"/>
</svg>
